<svg xmlns="http://www.w3.org/2000/svg" xmlns:xlink="http://www.w3.org/1999/xlink" width="1600" zoomAndPan="magnify" viewBox="0 0 1200 290.999983" height="388" preserveAspectRatio="xMidYMid meet" version="1.0"><defs><g/><clipPath id="c9b0dd781f"><path d="M 150.042969 66 L 453 66 L 453 215 L 150.042969 215 Z M 150.042969 66 " clip-rule="nonzero"/></clipPath><clipPath id="d17a2583ec"><path d="M 272 40.050781 L 483.011719 40.050781 L 483.011719 251.53125 L 272 251.53125 Z M 272 40.050781 " clip-rule="nonzero"/></clipPath></defs><g clip-path="url(#c9b0dd781f)"><path fill="#ffffff" d="M 277.695312 197.121094 C 291.144531 190.96875 302.832031 184.1875 312.398438 177.90625 C 330.699219 165.902344 354.09375 143.578125 355.375 141.792969 L 346.804688 136.050781 L 339.378906 131.078125 L 362.882812 130.15625 L 370.433594 129.859375 L 372.488281 122.570312 L 378.878906 99.882812 L 387.015625 122 L 389.628906 129.109375 L 397.183594 128.8125 L 420.6875 127.890625 L 402.210938 142.484375 L 396.273438 147.167969 L 398.890625 154.277344 L 407.027344 176.394531 L 387.46875 163.296875 L 381.191406 159.085938 L 375.253906 163.773438 L 356.777344 178.363281 L 359.949219 167.089844 L 363.164062 155.679688 L 363.5625 154.261719 C 341.074219 171.132812 309.609375 187.390625 290.796875 193.402344 C 286.484375 194.78125 282.113281 196.019531 277.695312 197.121094 Z M 233.460938 214.394531 C 266.800781 213.089844 306.515625 204.597656 345.601562 179.667969 L 338.070312 206.410156 L 381.691406 171.960938 L 427.859375 202.890625 L 408.648438 150.671875 L 452.269531 116.21875 L 396.777344 118.394531 L 377.5625 66.171875 L 362.476562 119.738281 L 306.980469 121.914062 L 339.109375 143.4375 C 317.964844 162.707031 264.921875 203.8125 194.652344 206.570312 C 180.449219 207.125 165.53125 206.113281 150.042969 203.035156 C 150.042969 203.035156 185.015625 216.296875 233.460938 214.394531 " fill-opacity="1" fill-rule="nonzero"/></g><g clip-path="url(#d17a2583ec)"><path fill="#ffffff" d="M 377.695312 40.242188 C 319.53125 40.242188 272.378906 87.5 272.378906 145.789062 C 272.378906 156.828125 274.074219 167.46875 277.210938 177.472656 C 281.789062 175.183594 286.164062 172.816406 290.332031 170.414062 C 288.136719 162.582031 286.960938 154.324219 286.960938 145.789062 C 286.960938 95.570312 327.582031 54.855469 377.695312 54.855469 C 427.808594 54.855469 468.429688 95.570312 468.429688 145.789062 C 468.429688 196.011719 427.808594 236.722656 377.695312 236.722656 C 350.519531 236.722656 326.136719 224.746094 309.507812 205.773438 C 304.671875 207.660156 299.777344 209.378906 294.820312 210.925781 C 314.101562 235.53125 344.054688 251.335938 377.695312 251.335938 C 435.859375 251.335938 483.011719 204.082031 483.011719 145.789062 C 483.011719 87.5 435.859375 40.242188 377.695312 40.242188 " fill-opacity="1" fill-rule="nonzero"/></g><path fill="#ffffff" d="M 224.0625 131.691406 L 229.875 149.621094 L 248.683594 149.621094 L 233.464844 160.699219 L 239.277344 178.628906 L 224.0625 167.546875 L 208.84375 178.628906 L 214.65625 160.699219 L 199.441406 149.621094 L 218.25 149.621094 L 224.0625 131.691406 " fill-opacity="1" fill-rule="nonzero"/><path fill="#ffffff" d="M 251.125 72.601562 L 256.144531 88.078125 L 272.378906 88.078125 L 259.246094 97.640625 L 264.261719 113.117188 L 251.125 103.554688 L 237.992188 113.117188 L 243.007812 97.640625 L 229.875 88.078125 L 246.109375 88.078125 L 251.125 72.601562 " fill-opacity="1" fill-rule="nonzero"/><path fill="#ffffff" d="M 168.230469 166.804688 L 171.160156 175.835938 L 180.632812 175.835938 L 172.972656 181.417969 L 175.898438 190.445312 L 168.230469 184.867188 L 160.570312 190.445312 L 163.496094 181.417969 L 155.832031 175.835938 L 165.304688 175.835938 L 168.230469 166.804688 " fill-opacity="1" fill-rule="nonzero"/><g fill="#ffffff" fill-opacity="1"><g transform="translate(543.580108, 155.402656)"><g><path d="M 5.921875 0 L 5.921875 -68.0625 L 20.3125 -68.0625 L 20.3125 -11.859375 L 49.484375 -11.859375 L 49.484375 0 Z M 5.921875 0 "/></g></g></g><g fill="#ffffff" fill-opacity="1"><g transform="translate(603.514824, 155.402656)"><g><path d="M 20.3125 -68.0625 L 20.3125 0 L 5.921875 0 L 5.921875 -68.0625 Z M 20.3125 -68.0625 "/></g></g></g><g fill="#ffffff" fill-opacity="1"><g transform="translate(636.599418, 155.402656)"><g><path d="M 3.328125 -56.203125 L 3.328125 -68.0625 L 59.234375 -68.0625 L 59.234375 -56.203125 L 38.390625 -56.203125 L 38.390625 0 L 24.15625 0 L 24.15625 -56.203125 Z M 3.328125 -56.203125 "/></g></g></g><g fill="#ffffff" fill-opacity="1"><g transform="translate(705.971557, 155.402656)"><g><path d="M 5.921875 0 L 5.921875 -68.0625 L 51.78125 -68.0625 L 51.78125 -56.203125 L 20.3125 -56.203125 L 20.3125 -39.984375 L 49.421875 -39.984375 L 49.421875 -28.125 L 20.3125 -28.125 L 20.3125 -11.859375 L 51.921875 -11.859375 L 51.921875 0 Z M 5.921875 0 "/></g></g></g><g fill="#ffffff" fill-opacity="1"><g transform="translate(770.126525, 155.402656)"><g><path d="M 42.84375 -48.484375 C 42.570312 -51.171875 41.421875 -53.253906 39.390625 -54.734375 C 37.367188 -56.222656 34.640625 -56.96875 31.203125 -56.96875 C 27.679688 -56.96875 24.976562 -56.242188 23.09375 -54.796875 C 21.21875 -53.359375 20.28125 -51.546875 20.28125 -49.359375 C 20.226562 -46.921875 21.269531 -45.070312 23.40625 -43.8125 C 25.550781 -42.5625 28.097656 -41.597656 31.046875 -40.921875 L 37.15625 -39.453125 C 41.101562 -38.566406 44.609375 -37.28125 47.671875 -35.59375 C 50.742188 -33.914062 53.160156 -31.75 54.921875 -29.09375 C 56.679688 -26.445312 57.5625 -23.226562 57.5625 -19.4375 C 57.539062 -13.21875 55.207031 -8.257812 50.5625 -4.5625 C 45.925781 -0.875 39.453125 0.96875 31.140625 0.96875 C 22.878906 0.96875 16.285156 -0.914062 11.359375 -4.6875 C 6.441406 -8.457031 3.894531 -14.019531 3.71875 -21.375 L 17.65625 -21.375 C 17.894531 -17.957031 19.238281 -15.390625 21.6875 -13.671875 C 24.132812 -11.953125 27.226562 -11.09375 30.96875 -11.09375 C 34.625 -11.09375 37.546875 -11.867188 39.734375 -13.421875 C 41.921875 -14.972656 43.023438 -16.992188 43.046875 -19.484375 C 43.023438 -21.785156 42.015625 -23.554688 40.015625 -24.796875 C 38.023438 -26.035156 35.175781 -27.097656 31.46875 -27.984375 L 24.0625 -29.84375 C 18.320312 -31.21875 13.789062 -33.398438 10.46875 -36.390625 C 7.144531 -39.378906 5.492188 -43.378906 5.515625 -48.390625 C 5.492188 -52.515625 6.597656 -56.117188 8.828125 -59.203125 C 11.054688 -62.296875 14.117188 -64.703125 18.015625 -66.421875 C 21.910156 -68.140625 26.34375 -69 31.3125 -69 C 36.363281 -69 40.773438 -68.132812 44.546875 -66.40625 C 48.328125 -64.675781 51.269531 -62.269531 53.375 -59.1875 C 55.476562 -56.113281 56.566406 -52.546875 56.640625 -48.484375 Z M 42.84375 -48.484375 "/></g></g></g><g fill="#ffffff" fill-opacity="1"><g transform="translate(838.23592, 155.402656)"><g><path d="M 3.328125 -56.203125 L 3.328125 -68.0625 L 59.234375 -68.0625 L 59.234375 -56.203125 L 38.390625 -56.203125 L 38.390625 0 L 24.15625 0 L 24.15625 -56.203125 Z M 3.328125 -56.203125 "/></g></g></g><g fill="#ffffff" fill-opacity="1"><g transform="translate(907.608053, 155.402656)"><g><path d="M 17.65625 0 L 2.234375 0 L 25.71875 -68.0625 L 44.265625 -68.0625 L 67.734375 0 L 52.3125 0 L 47.265625 -15.515625 L 22.703125 -15.515625 Z M 26.359375 -26.75 L 43.640625 -26.75 L 35.265625 -52.515625 L 34.734375 -52.515625 Z M 26.359375 -26.75 "/></g></g></g><g fill="#ffffff" fill-opacity="1"><g transform="translate(984.423782, 155.402656)"><g><path d="M 5.921875 0 L 5.921875 -68.0625 L 32.765625 -68.0625 C 40.503906 -68.0625 46.503906 -66.046875 50.765625 -62.015625 C 55.035156 -57.984375 57.171875 -52.585938 57.171875 -45.828125 C 57.171875 -41.179688 56.132812 -37.207031 54.0625 -33.90625 C 51.988281 -30.601562 49.015625 -28.117188 45.140625 -26.453125 L 59.59375 0 L 43.703125 0 L 30.8125 -24.125 L 20.3125 -24.125 L 20.3125 0 Z M 20.3125 -35.703125 L 30.078125 -35.703125 C 38.253906 -35.703125 42.34375 -39.078125 42.34375 -45.828125 C 42.34375 -52.804688 38.234375 -56.296875 30.015625 -56.296875 L 20.3125 -56.296875 Z M 20.3125 -35.703125 "/></g></g></g><g fill="#ffffff" fill-opacity="1"><g transform="translate(654.597027, 216.002592)"><g><path d="M 5.046875 0 L 1.09375 0 L 12.53125 -31.140625 L 16.421875 -31.140625 L 27.859375 0 L 23.90625 0 L 20.765625 -8.8125 L 8.171875 -8.8125 Z M 9.359375 -12.15625 L 19.578125 -12.15625 L 14.59375 -26.203125 L 14.359375 -26.203125 Z M 9.359375 -12.15625 "/></g></g></g><g fill="#ffffff" fill-opacity="1"><g transform="translate(693.630596, 216.002592)"><g><path d="M 9.421875 0 L 0.90625 -31.140625 L 4.75 -31.140625 L 11.25 -5.78125 L 11.546875 -5.78125 L 18.1875 -31.140625 L 22.4375 -31.140625 L 29.0625 -5.78125 L 29.375 -5.78125 L 35.875 -31.140625 L 39.703125 -31.140625 L 31.203125 0 L 27.3125 0 L 20.4375 -24.8125 L 20.1875 -24.8125 L 13.3125 0 Z M 9.421875 0 "/></g></g></g><g fill="#ffffff" fill-opacity="1"><g transform="translate(744.331725, 216.002592)"><g><path d="M 3.765625 0 L 3.765625 -31.140625 L 22.5625 -31.140625 L 22.5625 -27.796875 L 7.546875 -27.796875 L 7.546875 -17.265625 L 21.59375 -17.265625 L 21.59375 -13.921875 L 7.546875 -13.921875 L 7.546875 -3.34375 L 22.8125 -3.34375 L 22.8125 0 Z M 3.765625 0 "/></g></g></g><g fill="#ffffff" fill-opacity="1"><g transform="translate(780.023035, 216.002592)"><g><path d="M 20.796875 -23.359375 C 20.617188 -24.890625 19.878906 -26.082031 18.578125 -26.9375 C 17.273438 -27.789062 15.679688 -28.21875 13.796875 -28.21875 C 11.734375 -28.21875 10.070312 -27.726562 8.8125 -26.75 C 7.5625 -25.769531 6.9375 -24.535156 6.9375 -23.046875 C 6.9375 -21.929688 7.273438 -21.03125 7.953125 -20.34375 C 8.640625 -19.664062 9.453125 -19.132812 10.390625 -18.75 C 11.328125 -18.375 12.179688 -18.082031 12.953125 -17.875 L 16.109375 -17.03125 C 16.921875 -16.8125 17.828125 -16.515625 18.828125 -16.140625 C 19.828125 -15.765625 20.785156 -15.253906 21.703125 -14.609375 C 22.617188 -13.972656 23.375 -13.148438 23.96875 -12.140625 C 24.570312 -11.140625 24.875 -9.910156 24.875 -8.453125 C 24.875 -6.765625 24.4375 -5.242188 23.5625 -3.890625 C 22.6875 -2.535156 21.40625 -1.457031 19.71875 -0.65625 C 18.039062 0.144531 16.007812 0.546875 13.625 0.546875 C 10.28125 0.546875 7.625 -0.242188 5.65625 -1.828125 C 3.6875 -3.410156 2.613281 -5.476562 2.4375 -8.03125 L 6.328125 -8.03125 C 6.429688 -6.851562 6.828125 -5.878906 7.515625 -5.109375 C 8.210938 -4.347656 9.09375 -3.78125 10.15625 -3.40625 C 11.226562 -3.039062 12.382812 -2.859375 13.625 -2.859375 C 15.0625 -2.859375 16.351562 -3.09375 17.5 -3.5625 C 18.644531 -4.03125 19.550781 -4.6875 20.21875 -5.53125 C 20.882812 -6.382812 21.21875 -7.378906 21.21875 -8.515625 C 21.21875 -9.546875 20.925781 -10.382812 20.34375 -11.03125 C 19.769531 -11.6875 19.007812 -12.21875 18.0625 -12.625 C 17.125 -13.03125 16.109375 -13.382812 15.015625 -13.6875 L 11.1875 -14.78125 C 8.757812 -15.476562 6.832031 -16.472656 5.40625 -17.765625 C 3.988281 -19.066406 3.28125 -20.765625 3.28125 -22.859375 C 3.28125 -24.609375 3.753906 -26.132812 4.703125 -27.4375 C 5.648438 -28.738281 6.925781 -29.75 8.53125 -30.46875 C 10.144531 -31.195312 11.941406 -31.5625 13.921875 -31.5625 C 15.929688 -31.5625 17.71875 -31.203125 19.28125 -30.484375 C 20.84375 -29.773438 22.082031 -28.800781 23 -27.5625 C 23.914062 -26.320312 24.398438 -24.921875 24.453125 -23.359375 Z M 20.796875 -23.359375 "/></g></g></g><g fill="#ffffff" fill-opacity="1"><g transform="translate(817.415855, 216.002592)"><g><path d="M 30.046875 -15.5625 C 30.046875 -12.28125 29.453125 -9.441406 28.265625 -7.046875 C 27.078125 -4.660156 25.445312 -2.816406 23.375 -1.515625 C 21.3125 -0.222656 18.953125 0.421875 16.296875 0.421875 C 13.640625 0.421875 11.273438 -0.222656 9.203125 -1.515625 C 7.140625 -2.816406 5.515625 -4.660156 4.328125 -7.046875 C 3.140625 -9.441406 2.546875 -12.28125 2.546875 -15.5625 C 2.546875 -18.851562 3.140625 -21.691406 4.328125 -24.078125 C 5.515625 -26.472656 7.140625 -28.316406 9.203125 -29.609375 C 11.273438 -30.910156 13.640625 -31.5625 16.296875 -31.5625 C 18.953125 -31.5625 21.3125 -30.910156 23.375 -29.609375 C 25.445312 -28.316406 27.078125 -26.472656 28.265625 -24.078125 C 29.453125 -21.691406 30.046875 -18.851562 30.046875 -15.5625 Z M 26.390625 -15.5625 C 26.390625 -18.257812 25.941406 -20.535156 25.046875 -22.390625 C 24.148438 -24.242188 22.9375 -25.644531 21.40625 -26.59375 C 19.882812 -27.550781 18.179688 -28.03125 16.296875 -28.03125 C 14.410156 -28.03125 12.703125 -27.550781 11.171875 -26.59375 C 9.648438 -25.644531 8.441406 -24.242188 7.546875 -22.390625 C 6.648438 -20.535156 6.203125 -18.257812 6.203125 -15.5625 C 6.203125 -12.875 6.648438 -10.597656 7.546875 -8.734375 C 8.441406 -6.878906 9.648438 -5.472656 11.171875 -4.515625 C 12.703125 -3.566406 14.410156 -3.09375 16.296875 -3.09375 C 18.179688 -3.09375 19.882812 -3.566406 21.40625 -4.515625 C 22.9375 -5.472656 24.148438 -6.878906 25.046875 -8.734375 C 25.941406 -10.597656 26.390625 -12.875 26.390625 -15.5625 Z M 26.390625 -15.5625 "/></g></g></g><g fill="#ffffff" fill-opacity="1"><g transform="translate(860.095571, 216.002592)"><g><path d="M 3.765625 -31.140625 L 8.265625 -31.140625 L 18.859375 -5.296875 L 19.21875 -5.296875 L 29.796875 -31.140625 L 34.296875 -31.140625 L 34.296875 0 L 30.765625 0 L 30.765625 -23.65625 L 30.46875 -23.65625 L 20.734375 0 L 17.328125 0 L 7.609375 -23.65625 L 7.296875 -23.65625 L 7.296875 0 L 3.765625 0 Z M 3.765625 -31.140625 "/></g></g></g><g fill="#ffffff" fill-opacity="1"><g transform="translate(909.216722, 216.002592)"><g><path d="M 3.765625 0 L 3.765625 -31.140625 L 22.5625 -31.140625 L 22.5625 -27.796875 L 7.546875 -27.796875 L 7.546875 -17.265625 L 21.59375 -17.265625 L 21.59375 -13.921875 L 7.546875 -13.921875 L 7.546875 -3.34375 L 22.8125 -3.34375 L 22.8125 0 Z M 3.765625 0 "/></g></g></g><path stroke-linecap="round" transform="matrix(0.000000000000000138, 2.256529, -2.249777, 0.000000000000000138, 511.164488, 40.058951)" fill="none" stroke-linejoin="miter" d="M 0.500126 0.500239 L 93.225863 0.500239 " stroke="#edb641" stroke-width="1" stroke-opacity="1" stroke-miterlimit="4"/></svg>