<svg xmlns="http://www.w3.org/2000/svg" xmlns:xlink="http://www.w3.org/1999/xlink" width="1600" zoomAndPan="magnify" viewBox="0 0 1200 290.999983" height="388" preserveAspectRatio="xMidYMid meet" version="1.0"><defs><g/><clipPath id="94942c2413"><path d="M 150.042969 66 L 453 66 L 453 215 L 150.042969 215 Z M 150.042969 66 " clip-rule="nonzero"/></clipPath><clipPath id="311f92130f"><path d="M 272 40.050781 L 483 40.050781 L 483 251 L 272 251 Z M 272 40.050781 " clip-rule="nonzero"/></clipPath></defs><g clip-path="url(#94942c2413)"><path fill="#ffffff" d="M 277.613281 196.675781 C 291.058594 190.542969 302.734375 183.78125 312.296875 177.519531 C 330.585938 165.546875 353.964844 143.285156 355.246094 141.503906 L 346.679688 135.78125 L 339.257812 130.820312 L 362.746094 129.902344 L 370.296875 129.605469 L 372.347656 122.339844 L 378.734375 99.714844 L 386.863281 121.769531 L 389.476562 128.855469 L 397.027344 128.5625 L 420.515625 127.644531 L 402.050781 142.191406 L 396.117188 146.867188 L 398.730469 153.953125 L 406.863281 176.011719 L 387.320312 162.945312 L 381.042969 158.75 L 375.109375 163.421875 L 356.648438 177.972656 L 359.816406 166.730469 L 363.03125 155.351562 L 363.425781 153.941406 C 340.953125 170.761719 309.507812 186.976562 290.707031 192.96875 C 286.398438 194.34375 282.03125 195.578125 277.613281 196.675781 Z M 233.410156 213.902344 C 266.726562 212.601562 306.417969 204.132812 345.476562 179.273438 L 337.949219 205.941406 L 381.542969 171.589844 L 427.683594 202.433594 L 408.484375 150.359375 L 452.078125 116.003906 L 396.621094 118.171875 L 377.417969 66.097656 L 362.339844 119.515625 L 306.882812 121.683594 L 338.988281 143.144531 C 317.859375 162.363281 264.847656 203.351562 194.625 206.097656 C 180.429688 206.652344 165.523438 205.644531 150.042969 202.574219 C 150.042969 202.574219 184.992188 215.796875 233.410156 213.902344 " fill-opacity="1" fill-rule="nonzero"/></g><g clip-path="url(#311f92130f)"><path fill="#ffffff" d="M 377.550781 40.242188 C 319.421875 40.242188 272.300781 87.363281 272.300781 145.492188 C 272.300781 156.5 273.992188 167.109375 277.128906 177.082031 C 281.707031 174.800781 286.078125 172.441406 290.242188 170.042969 C 288.046875 162.234375 286.875 154 286.875 145.492188 C 286.875 95.414062 327.472656 54.816406 377.550781 54.816406 C 427.632812 54.816406 468.226562 95.414062 468.226562 145.492188 C 468.226562 195.570312 427.632812 236.167969 377.550781 236.167969 C 350.390625 236.167969 326.023438 224.222656 309.40625 205.304688 C 304.574219 207.1875 299.683594 208.898438 294.730469 210.445312 C 314 234.980469 343.933594 250.738281 377.550781 250.738281 C 435.679688 250.738281 482.800781 203.617188 482.800781 145.492188 C 482.800781 87.363281 435.679688 40.242188 377.550781 40.242188 " fill-opacity="1" fill-rule="nonzero"/></g><path fill="#ffffff" d="M 224.015625 131.433594 L 229.824219 149.3125 L 248.621094 149.3125 L 233.414062 160.359375 L 239.222656 178.234375 L 224.015625 167.1875 L 208.808594 178.234375 L 214.617188 160.359375 L 199.410156 149.3125 L 218.207031 149.3125 L 224.015625 131.433594 " fill-opacity="1" fill-rule="nonzero"/><path fill="#ffffff" d="M 251.0625 72.511719 L 256.074219 87.945312 L 272.300781 87.945312 L 259.175781 97.480469 L 264.1875 112.910156 L 251.0625 103.375 L 237.933594 112.910156 L 242.949219 97.480469 L 229.824219 87.945312 L 246.046875 87.945312 L 251.0625 72.511719 " fill-opacity="1" fill-rule="nonzero"/><path fill="#ffffff" d="M 168.21875 166.449219 L 171.148438 175.453125 L 180.613281 175.453125 L 172.957031 181.015625 L 175.882812 190.019531 L 168.21875 184.457031 L 160.5625 190.019531 L 163.488281 181.015625 L 155.828125 175.453125 L 165.296875 175.453125 L 168.21875 166.449219 " fill-opacity="1" fill-rule="nonzero"/><g fill="#ffffff" fill-opacity="1"><g transform="translate(543.544883, 155.402685)"><g><path d="M 5.921875 0 L 5.921875 -68.0625 L 20.3125 -68.0625 L 20.3125 -11.859375 L 49.484375 -11.859375 L 49.484375 0 Z M 5.921875 0 "/></g></g></g><g fill="#ffffff" fill-opacity="1"><g transform="translate(603.479599, 155.402685)"><g><path d="M 20.3125 -68.0625 L 20.3125 0 L 5.921875 0 L 5.921875 -68.0625 Z M 20.3125 -68.0625 "/></g></g></g><g fill="#ffffff" fill-opacity="1"><g transform="translate(636.564193, 155.402685)"><g><path d="M 3.328125 -56.203125 L 3.328125 -68.0625 L 59.234375 -68.0625 L 59.234375 -56.203125 L 38.390625 -56.203125 L 38.390625 0 L 24.15625 0 L 24.15625 -56.203125 Z M 3.328125 -56.203125 "/></g></g></g><g fill="#ffffff" fill-opacity="1"><g transform="translate(705.936333, 155.402685)"><g><path d="M 5.921875 0 L 5.921875 -68.0625 L 51.78125 -68.0625 L 51.78125 -56.203125 L 20.3125 -56.203125 L 20.3125 -39.984375 L 49.421875 -39.984375 L 49.421875 -28.125 L 20.3125 -28.125 L 20.3125 -11.859375 L 51.921875 -11.859375 L 51.921875 0 Z M 5.921875 0 "/></g></g></g><g fill="#ffffff" fill-opacity="1"><g transform="translate(770.0913, 155.402685)"><g><path d="M 42.84375 -48.484375 C 42.570312 -51.171875 41.421875 -53.253906 39.390625 -54.734375 C 37.367188 -56.222656 34.640625 -56.96875 31.203125 -56.96875 C 27.679688 -56.96875 24.976562 -56.242188 23.09375 -54.796875 C 21.21875 -53.359375 20.28125 -51.546875 20.28125 -49.359375 C 20.226562 -46.921875 21.269531 -45.070312 23.40625 -43.8125 C 25.550781 -42.5625 28.097656 -41.597656 31.046875 -40.921875 L 37.15625 -39.453125 C 41.101562 -38.566406 44.609375 -37.28125 47.671875 -35.59375 C 50.742188 -33.914062 53.160156 -31.75 54.921875 -29.09375 C 56.679688 -26.445312 57.5625 -23.226562 57.5625 -19.4375 C 57.539062 -13.21875 55.207031 -8.257812 50.5625 -4.5625 C 45.925781 -0.875 39.453125 0.96875 31.140625 0.96875 C 22.878906 0.96875 16.285156 -0.914062 11.359375 -4.6875 C 6.441406 -8.457031 3.894531 -14.019531 3.71875 -21.375 L 17.65625 -21.375 C 17.894531 -17.957031 19.238281 -15.390625 21.6875 -13.671875 C 24.132812 -11.953125 27.226562 -11.09375 30.96875 -11.09375 C 34.625 -11.09375 37.546875 -11.867188 39.734375 -13.421875 C 41.921875 -14.972656 43.023438 -16.992188 43.046875 -19.484375 C 43.023438 -21.785156 42.015625 -23.554688 40.015625 -24.796875 C 38.023438 -26.035156 35.175781 -27.097656 31.46875 -27.984375 L 24.0625 -29.84375 C 18.320312 -31.21875 13.789062 -33.398438 10.46875 -36.390625 C 7.144531 -39.378906 5.492188 -43.378906 5.515625 -48.390625 C 5.492188 -52.515625 6.597656 -56.117188 8.828125 -59.203125 C 11.054688 -62.296875 14.117188 -64.703125 18.015625 -66.421875 C 21.910156 -68.140625 26.34375 -69 31.3125 -69 C 36.363281 -69 40.773438 -68.132812 44.546875 -66.40625 C 48.328125 -64.675781 51.269531 -62.269531 53.375 -59.1875 C 55.476562 -56.113281 56.566406 -52.546875 56.640625 -48.484375 Z M 42.84375 -48.484375 "/></g></g></g><g fill="#ffffff" fill-opacity="1"><g transform="translate(838.200696, 155.402685)"><g><path d="M 3.328125 -56.203125 L 3.328125 -68.0625 L 59.234375 -68.0625 L 59.234375 -56.203125 L 38.390625 -56.203125 L 38.390625 0 L 24.15625 0 L 24.15625 -56.203125 Z M 3.328125 -56.203125 "/></g></g></g><g fill="#ffffff" fill-opacity="1"><g transform="translate(907.572828, 155.402685)"><g><path d="M 17.65625 0 L 2.234375 0 L 25.71875 -68.0625 L 44.265625 -68.0625 L 67.734375 0 L 52.3125 0 L 47.265625 -15.515625 L 22.703125 -15.515625 Z M 26.359375 -26.75 L 43.640625 -26.75 L 35.265625 -52.515625 L 34.734375 -52.515625 Z M 26.359375 -26.75 "/></g></g></g><g fill="#ffffff" fill-opacity="1"><g transform="translate(984.388558, 155.402685)"><g><path d="M 5.921875 0 L 5.921875 -68.0625 L 32.765625 -68.0625 C 40.503906 -68.0625 46.503906 -66.046875 50.765625 -62.015625 C 55.035156 -57.984375 57.171875 -52.585938 57.171875 -45.828125 C 57.171875 -41.179688 56.132812 -37.207031 54.0625 -33.90625 C 51.988281 -30.601562 49.015625 -28.117188 45.140625 -26.453125 L 59.59375 0 L 43.703125 0 L 30.8125 -24.125 L 20.3125 -24.125 L 20.3125 0 Z M 20.3125 -35.703125 L 30.078125 -35.703125 C 38.253906 -35.703125 42.34375 -39.078125 42.34375 -45.828125 C 42.34375 -52.804688 38.234375 -56.296875 30.015625 -56.296875 L 20.3125 -56.296875 Z M 20.3125 -35.703125 "/></g></g></g><g fill="#ffffff" fill-opacity="1"><g transform="translate(634.138117, 216.002592)"><g><path d="M 30.046875 -15.5625 C 30.046875 -12.28125 29.453125 -9.441406 28.265625 -7.046875 C 27.078125 -4.660156 25.445312 -2.816406 23.375 -1.515625 C 21.3125 -0.222656 18.953125 0.421875 16.296875 0.421875 C 13.640625 0.421875 11.273438 -0.222656 9.203125 -1.515625 C 7.140625 -2.816406 5.515625 -4.660156 4.328125 -7.046875 C 3.140625 -9.441406 2.546875 -12.28125 2.546875 -15.5625 C 2.546875 -18.851562 3.140625 -21.691406 4.328125 -24.078125 C 5.515625 -26.472656 7.140625 -28.316406 9.203125 -29.609375 C 11.273438 -30.910156 13.640625 -31.5625 16.296875 -31.5625 C 18.953125 -31.5625 21.3125 -30.910156 23.375 -29.609375 C 25.445312 -28.316406 27.078125 -26.472656 28.265625 -24.078125 C 29.453125 -21.691406 30.046875 -18.851562 30.046875 -15.5625 Z M 26.390625 -15.5625 C 26.390625 -18.257812 25.941406 -20.535156 25.046875 -22.390625 C 24.148438 -24.242188 22.9375 -25.644531 21.40625 -26.59375 C 19.882812 -27.550781 18.179688 -28.03125 16.296875 -28.03125 C 14.410156 -28.03125 12.703125 -27.550781 11.171875 -26.59375 C 9.648438 -25.644531 8.441406 -24.242188 7.546875 -22.390625 C 6.648438 -20.535156 6.203125 -18.257812 6.203125 -15.5625 C 6.203125 -12.875 6.648438 -10.597656 7.546875 -8.734375 C 8.441406 -6.878906 9.648438 -5.472656 11.171875 -4.515625 C 12.703125 -3.566406 14.410156 -3.09375 16.296875 -3.09375 C 18.179688 -3.09375 19.882812 -3.566406 21.40625 -4.515625 C 22.9375 -5.472656 24.148438 -6.878906 25.046875 -8.734375 C 25.941406 -10.597656 26.390625 -12.875 26.390625 -15.5625 Z M 26.390625 -15.5625 "/></g></g></g><g fill="#ffffff" fill-opacity="1"><g transform="translate(676.817823, 216.002592)"><g><path d="M 3.765625 0 L 3.765625 -31.140625 L 14.296875 -31.140625 C 16.722656 -31.140625 18.71875 -30.722656 20.28125 -29.890625 C 21.84375 -29.066406 23 -27.9375 23.75 -26.5 C 24.5 -25.0625 24.875 -23.425781 24.875 -21.59375 C 24.875 -19.519531 24.398438 -17.710938 23.453125 -16.171875 C 22.503906 -14.640625 21.035156 -13.535156 19.046875 -12.859375 L 26.09375 0 L 21.703125 0 L 15.140625 -12.171875 C 14.890625 -12.160156 14.628906 -12.15625 14.359375 -12.15625 L 7.546875 -12.15625 L 7.546875 0 Z M 7.546875 -15.5625 L 14.234375 -15.5625 C 16.722656 -15.5625 18.5 -16.097656 19.5625 -17.171875 C 20.625 -18.253906 21.15625 -19.726562 21.15625 -21.59375 C 21.15625 -23.46875 20.617188 -24.96875 19.546875 -26.09375 C 18.484375 -27.226562 16.691406 -27.796875 14.171875 -27.796875 L 7.546875 -27.796875 Z M 7.546875 -15.5625 "/></g></g></g><g fill="#ffffff" fill-opacity="1"><g transform="translate(714.271405, 216.002592)"><g><path d="M 5.046875 0 L 1.09375 0 L 12.53125 -31.140625 L 16.421875 -31.140625 L 27.859375 0 L 23.90625 0 L 20.765625 -8.8125 L 8.171875 -8.8125 Z M 9.359375 -12.15625 L 19.578125 -12.15625 L 14.59375 -26.203125 L 14.359375 -26.203125 Z M 9.359375 -12.15625 "/></g></g></g><g fill="#ffffff" fill-opacity="1"><g transform="translate(753.304975, 216.002592)"><g><path d="M 28.828125 -21.40625 L 25.0625 -21.40625 C 24.75 -22.84375 24.160156 -24.050781 23.296875 -25.03125 C 22.441406 -26.019531 21.40625 -26.765625 20.1875 -27.265625 C 18.96875 -27.773438 17.671875 -28.03125 16.296875 -28.03125 C 14.410156 -28.03125 12.703125 -27.550781 11.171875 -26.59375 C 9.648438 -25.644531 8.441406 -24.242188 7.546875 -22.390625 C 6.648438 -20.535156 6.203125 -18.257812 6.203125 -15.5625 C 6.203125 -12.875 6.648438 -10.597656 7.546875 -8.734375 C 8.441406 -6.878906 9.648438 -5.472656 11.171875 -4.515625 C 12.703125 -3.566406 14.410156 -3.09375 16.296875 -3.09375 C 17.671875 -3.09375 18.96875 -3.347656 20.1875 -3.859375 C 21.40625 -4.367188 22.441406 -5.113281 23.296875 -6.09375 C 24.160156 -7.082031 24.75 -8.296875 25.0625 -9.734375 L 28.828125 -9.734375 C 28.441406 -7.597656 27.65625 -5.769531 26.46875 -4.25 C 25.28125 -2.738281 23.8125 -1.582031 22.0625 -0.78125 C 20.3125 0.0195312 18.390625 0.421875 16.296875 0.421875 C 13.640625 0.421875 11.273438 -0.222656 9.203125 -1.515625 C 7.140625 -2.816406 5.515625 -4.660156 4.328125 -7.046875 C 3.140625 -9.441406 2.546875 -12.28125 2.546875 -15.5625 C 2.546875 -18.851562 3.140625 -21.691406 4.328125 -24.078125 C 5.515625 -26.472656 7.140625 -28.316406 9.203125 -29.609375 C 11.273438 -30.910156 13.640625 -31.5625 16.296875 -31.5625 C 18.390625 -31.5625 20.3125 -31.15625 22.0625 -30.34375 C 23.8125 -29.539062 25.28125 -28.378906 26.46875 -26.859375 C 27.65625 -25.347656 28.441406 -23.53125 28.828125 -21.40625 Z M 28.828125 -21.40625 "/></g></g></g><g fill="#ffffff" fill-opacity="1"><g transform="translate(794.526221, 216.002592)"><g><path d="M 3.765625 0 L 3.765625 -31.140625 L 7.546875 -31.140625 L 7.546875 -3.34375 L 22.015625 -3.34375 L 22.015625 0 Z M 3.765625 0 "/></g></g></g><g fill="#ffffff" fill-opacity="1"><g transform="translate(828.698315, 216.002592)"><g><path d="M 3.765625 0 L 3.765625 -31.140625 L 22.5625 -31.140625 L 22.5625 -27.796875 L 7.546875 -27.796875 L 7.546875 -17.265625 L 21.59375 -17.265625 L 21.59375 -13.921875 L 7.546875 -13.921875 L 7.546875 -3.34375 L 22.8125 -3.34375 L 22.8125 0 Z M 3.765625 0 "/></g></g></g><g fill="#ffffff" fill-opacity="1"><g transform="translate(864.389633, 216.002592)"><g/></g></g><g fill="#ffffff" fill-opacity="1"><g transform="translate(886.529559, 216.002592)"><g><path d="M 13.375 0 L 3.765625 0 L 3.765625 -31.140625 L 13.796875 -31.140625 C 16.816406 -31.140625 19.398438 -30.515625 21.546875 -29.265625 C 23.703125 -28.023438 25.351562 -26.25 26.5 -23.9375 C 27.644531 -21.625 28.21875 -18.851562 28.21875 -15.625 C 28.21875 -12.382812 27.640625 -9.59375 26.484375 -7.25 C 25.328125 -4.914062 23.644531 -3.125 21.4375 -1.875 C 19.226562 -0.625 16.539062 0 13.375 0 Z M 7.546875 -3.34375 L 13.140625 -3.34375 C 16.992188 -3.34375 19.859375 -4.4375 21.734375 -6.625 C 23.617188 -8.820312 24.5625 -11.820312 24.5625 -15.625 C 24.5625 -19.394531 23.640625 -22.363281 21.796875 -24.53125 C 19.953125 -26.707031 17.207031 -27.796875 13.5625 -27.796875 L 7.546875 -27.796875 Z M 7.546875 -3.34375 "/></g></g></g><g fill="#ffffff" fill-opacity="1"><g transform="translate(927.386206, 216.002592)"><g><path d="M 3.765625 0 L 3.765625 -31.140625 L 14.65625 -31.140625 C 16.820312 -31.140625 18.609375 -30.765625 20.015625 -30.015625 C 21.429688 -29.273438 22.484375 -28.273438 23.171875 -27.015625 C 23.859375 -25.765625 24.203125 -24.378906 24.203125 -22.859375 C 24.203125 -21.523438 23.96875 -20.421875 23.5 -19.546875 C 23.03125 -18.679688 22.410156 -17.992188 21.640625 -17.484375 C 20.878906 -16.972656 20.050781 -16.597656 19.15625 -16.359375 L 19.15625 -16.046875 C 20.101562 -15.992188 21.054688 -15.660156 22.015625 -15.046875 C 22.984375 -14.441406 23.789062 -13.570312 24.4375 -12.4375 C 25.09375 -11.300781 25.421875 -9.910156 25.421875 -8.265625 C 25.421875 -6.703125 25.066406 -5.296875 24.359375 -4.046875 C 23.648438 -2.804688 22.53125 -1.820312 21 -1.09375 C 19.46875 -0.363281 17.472656 0 15.015625 0 Z M 7.546875 -3.34375 L 15.015625 -3.34375 C 17.484375 -3.34375 19.234375 -3.820312 20.265625 -4.78125 C 21.304688 -5.738281 21.828125 -6.898438 21.828125 -8.265625 C 21.828125 -9.328125 21.554688 -10.304688 21.015625 -11.203125 C 20.484375 -12.097656 19.71875 -12.816406 18.71875 -13.359375 C 17.726562 -13.898438 16.554688 -14.171875 15.203125 -14.171875 L 7.546875 -14.171875 Z M 7.546875 -17.453125 L 14.53125 -17.453125 C 16.238281 -17.453125 17.675781 -17.941406 18.84375 -18.921875 C 20.019531 -19.910156 20.609375 -21.222656 20.609375 -22.859375 C 20.609375 -24.234375 20.128906 -25.398438 19.171875 -26.359375 C 18.222656 -27.316406 16.71875 -27.796875 14.65625 -27.796875 L 7.546875 -27.796875 Z M 7.546875 -17.453125 "/></g></g></g><path stroke-linecap="round" transform="matrix(0, 2.249777, -2.249777, 0, 511.164488, 40.058951)" fill="none" stroke-linejoin="miter" d="M 0.499891 0.500239 L 93.226092 0.500239 " stroke="#edb641" stroke-width="1" stroke-opacity="1" stroke-miterlimit="4"/></svg>