<svg xmlns="http://www.w3.org/2000/svg" xmlns:xlink="http://www.w3.org/1999/xlink" width="1600" zoomAndPan="magnify" viewBox="0 0 1200 290.999983" height="388" preserveAspectRatio="xMidYMid meet" version="1.0"><defs><g/><clipPath id="e886d65255"><path d="M 150.433594 66 L 453 66 L 453 215 L 150.433594 215 Z M 150.433594 66 " clip-rule="nonzero"/></clipPath><clipPath id="7990b9df02"><path d="M 272 40.140625 L 483 40.140625 L 483 251 L 272 251 Z M 272 40.140625 " clip-rule="nonzero"/></clipPath></defs><g clip-path="url(#e886d65255)"><path fill="#edb641" d="M 277.894531 196.632812 C 291.324219 190.503906 302.988281 183.746094 312.542969 177.492188 C 330.816406 165.53125 354.175781 143.285156 355.457031 141.507812 L 346.898438 135.789062 L 339.484375 130.832031 L 362.953125 129.914062 L 370.492188 129.621094 L 372.542969 122.359375 L 378.925781 99.753906 L 387.050781 121.789062 L 389.660156 128.871094 L 397.199219 128.574219 L 420.667969 127.660156 L 402.222656 142.195312 L 396.292969 146.867188 L 398.90625 153.945312 L 407.03125 175.984375 L 387.503906 162.933594 L 381.230469 158.738281 L 375.304688 163.40625 L 356.855469 177.945312 L 360.023438 166.710938 L 363.234375 155.34375 L 363.632812 153.933594 C 341.175781 170.742188 309.757812 186.9375 290.972656 192.925781 C 286.667969 194.300781 282.304688 195.535156 277.894531 196.632812 Z M 233.726562 213.84375 C 267.011719 212.542969 306.667969 204.082031 345.695312 179.246094 L 338.175781 205.890625 L 381.734375 171.566406 L 427.832031 202.382812 L 408.652344 150.351562 L 452.207031 116.03125 L 396.792969 118.195312 L 377.609375 66.167969 L 362.546875 119.535156 L 307.136719 121.703125 L 339.214844 143.144531 C 318.101562 162.347656 265.136719 203.300781 194.976562 206.046875 C 180.792969 206.601562 165.898438 205.589844 150.433594 202.527344 C 150.433594 202.527344 185.351562 215.738281 233.726562 213.84375 " fill-opacity="1" fill-rule="nonzero"/></g><g clip-path="url(#7990b9df02)"><path fill="#edb641" d="M 377.746094 40.332031 C 319.664062 40.332031 272.585938 87.414062 272.585938 145.492188 C 272.585938 156.488281 274.273438 167.089844 277.410156 177.054688 C 281.980469 174.777344 286.351562 172.417969 290.507812 170.023438 C 288.316406 162.21875 287.144531 153.992188 287.144531 145.492188 C 287.144531 95.457031 327.707031 54.894531 377.746094 54.894531 C 427.78125 54.894531 468.339844 95.457031 468.339844 145.492188 C 468.339844 195.527344 427.78125 236.089844 377.746094 236.089844 C 350.605469 236.089844 326.261719 224.15625 309.65625 205.253906 C 304.828125 207.132812 299.941406 208.84375 294.992188 210.390625 C 314.246094 234.902344 344.152344 250.648438 377.746094 250.648438 C 435.820312 250.648438 482.902344 203.566406 482.902344 145.492188 C 482.902344 87.414062 435.820312 40.332031 377.746094 40.332031 " fill-opacity="1" fill-rule="nonzero"/></g><path fill="#edb641" d="M 224.339844 131.445312 L 230.144531 149.308594 L 248.921875 149.308594 L 233.730469 160.34375 L 239.53125 178.207031 L 224.339844 167.167969 L 209.144531 178.207031 L 214.949219 160.34375 L 199.757812 149.308594 L 218.535156 149.308594 L 224.339844 131.445312 " fill-opacity="1" fill-rule="nonzero"/><path fill="#edb641" d="M 251.363281 72.574219 L 256.371094 87.992188 L 272.585938 87.992188 L 259.46875 97.519531 L 264.476562 112.941406 L 251.363281 103.410156 L 238.246094 112.941406 L 243.257812 97.519531 L 230.144531 87.992188 L 246.351562 87.992188 L 251.363281 72.574219 " fill-opacity="1" fill-rule="nonzero"/><path fill="#edb641" d="M 168.59375 166.429688 L 171.519531 175.425781 L 180.976562 175.425781 L 173.324219 180.988281 L 176.246094 189.984375 L 168.59375 184.421875 L 160.941406 189.984375 L 163.863281 180.988281 L 156.210938 175.425781 L 165.671875 175.425781 L 168.59375 166.429688 " fill-opacity="1" fill-rule="nonzero"/><g fill="#202235" fill-opacity="1"><g transform="translate(543.688742, 154.084911)"><g><path d="M 5.90625 0 L 5.90625 -67.984375 L 20.28125 -67.984375 L 20.28125 -11.84375 L 49.4375 -11.84375 L 49.4375 0 Z M 5.90625 0 "/></g></g></g><g fill="#202235" fill-opacity="1"><g transform="translate(603.556213, 154.084911)"><g><path d="M 20.28125 -67.984375 L 20.28125 0 L 5.90625 0 L 5.90625 -67.984375 Z M 20.28125 -67.984375 "/></g></g></g><g fill="#202235" fill-opacity="1"><g transform="translate(636.604592, 154.084911)"><g><path d="M 3.3125 -56.140625 L 3.3125 -67.984375 L 59.15625 -67.984375 L 59.15625 -56.140625 L 38.34375 -56.140625 L 38.34375 0 L 24.140625 0 L 24.140625 -56.140625 Z M 3.3125 -56.140625 "/></g></g></g><g fill="#202235" fill-opacity="1"><g transform="translate(705.898598, 154.084911)"><g><path d="M 5.90625 0 L 5.90625 -67.984375 L 51.71875 -67.984375 L 51.71875 -56.140625 L 20.28125 -56.140625 L 20.28125 -39.9375 L 49.359375 -39.9375 L 49.359375 -28.078125 L 20.28125 -28.078125 L 20.28125 -11.84375 L 51.859375 -11.84375 L 51.859375 0 Z M 5.90625 0 "/></g></g></g><g fill="#202235" fill-opacity="1"><g transform="translate(769.981477, 154.084911)"><g><path d="M 42.796875 -48.4375 C 42.523438 -51.113281 41.375 -53.191406 39.34375 -54.671875 C 37.320312 -56.160156 34.597656 -56.90625 31.171875 -56.90625 C 27.648438 -56.90625 24.945312 -56.179688 23.0625 -54.734375 C 21.1875 -53.296875 20.25 -51.484375 20.25 -49.296875 C 20.207031 -46.859375 21.253906 -45.015625 23.390625 -43.765625 C 25.523438 -42.515625 28.0625 -41.546875 31 -40.859375 L 37.109375 -39.40625 C 41.054688 -38.519531 44.5625 -37.234375 47.625 -35.546875 C 50.6875 -33.867188 53.097656 -31.707031 54.859375 -29.0625 C 56.617188 -26.414062 57.5 -23.203125 57.5 -19.421875 C 57.476562 -13.203125 55.148438 -8.25 50.515625 -4.5625 C 45.878906 -0.875 39.410156 0.96875 31.109375 0.96875 C 22.847656 0.96875 16.257812 -0.910156 11.34375 -4.671875 C 6.4375 -8.441406 3.894531 -14 3.71875 -21.34375 L 17.625 -21.34375 C 17.875 -17.9375 19.21875 -15.375 21.65625 -13.65625 C 24.101562 -11.945312 27.195312 -11.09375 30.9375 -11.09375 C 34.59375 -11.09375 37.507812 -11.863281 39.6875 -13.40625 C 41.863281 -14.957031 42.960938 -16.972656 42.984375 -19.453125 C 42.960938 -21.753906 41.957031 -23.523438 39.96875 -24.765625 C 37.976562 -26.003906 35.132812 -27.066406 31.4375 -27.953125 L 24.03125 -29.8125 C 18.300781 -31.1875 13.773438 -33.363281 10.453125 -36.34375 C 7.140625 -39.332031 5.492188 -43.328125 5.515625 -48.328125 C 5.492188 -52.453125 6.59375 -56.054688 8.8125 -59.140625 C 11.039062 -62.222656 14.097656 -64.625 17.984375 -66.34375 C 21.878906 -68.0625 26.304688 -68.921875 31.265625 -68.921875 C 36.316406 -68.921875 40.726562 -68.054688 44.5 -66.328125 C 48.269531 -64.597656 51.207031 -62.195312 53.3125 -59.125 C 55.414062 -56.050781 56.5 -52.488281 56.5625 -48.4375 Z M 42.796875 -48.4375 "/></g></g></g><g fill="#202235" fill-opacity="1"><g transform="translate(838.014173, 154.084911)"><g><path d="M 3.3125 -56.140625 L 3.3125 -67.984375 L 59.15625 -67.984375 L 59.15625 -56.140625 L 38.34375 -56.140625 L 38.34375 0 L 24.140625 0 L 24.140625 -56.140625 Z M 3.3125 -56.140625 "/></g></g></g><g fill="#202235" fill-opacity="1"><g transform="translate(907.308168, 154.084911)"><g><path d="M 17.625 0 L 2.21875 0 L 25.6875 -67.984375 L 44.21875 -67.984375 L 67.65625 0 L 52.25 0 L 47.203125 -15.5 L 22.671875 -15.5 Z M 26.328125 -26.71875 L 43.59375 -26.71875 L 35.21875 -52.453125 L 34.6875 -52.453125 Z M 26.328125 -26.71875 "/></g></g></g><g fill="#202235" fill-opacity="1"><g transform="translate(984.037186, 154.084911)"><g><path d="M 5.90625 0 L 5.90625 -67.984375 L 32.734375 -67.984375 C 40.453125 -67.984375 46.441406 -65.96875 50.703125 -61.9375 C 54.960938 -57.914062 57.09375 -52.53125 57.09375 -45.78125 C 57.09375 -41.132812 56.054688 -37.160156 53.984375 -33.859375 C 51.921875 -30.566406 48.953125 -28.085938 45.078125 -26.421875 L 59.515625 0 L 43.65625 0 L 30.78125 -24.09375 L 20.28125 -24.09375 L 20.28125 0 Z M 20.28125 -35.65625 L 30.046875 -35.65625 C 38.210938 -35.65625 42.296875 -39.03125 42.296875 -45.78125 C 42.296875 -52.75 38.191406 -56.234375 29.984375 -56.234375 L 20.28125 -56.234375 Z M 20.28125 -35.65625 "/></g></g></g><g fill="#737373" fill-opacity="1"><g transform="translate(634.118104, 212.215453)"><g><path d="M 30.015625 -15.546875 C 30.015625 -12.265625 29.421875 -9.429688 28.234375 -7.046875 C 27.046875 -4.660156 25.421875 -2.816406 23.359375 -1.515625 C 21.296875 -0.222656 18.9375 0.421875 16.28125 0.421875 C 13.625 0.421875 11.265625 -0.222656 9.203125 -1.515625 C 7.140625 -2.816406 5.515625 -4.660156 4.328125 -7.046875 C 3.140625 -9.429688 2.546875 -12.265625 2.546875 -15.546875 C 2.546875 -18.828125 3.140625 -21.660156 4.328125 -24.046875 C 5.515625 -26.441406 7.140625 -28.285156 9.203125 -29.578125 C 11.265625 -30.878906 13.625 -31.53125 16.28125 -31.53125 C 18.9375 -31.53125 21.296875 -30.878906 23.359375 -29.578125 C 25.421875 -28.285156 27.046875 -26.441406 28.234375 -24.046875 C 29.421875 -21.660156 30.015625 -18.828125 30.015625 -15.546875 Z M 26.359375 -15.546875 C 26.359375 -18.242188 25.910156 -20.519531 25.015625 -22.375 C 24.117188 -24.226562 22.910156 -25.628906 21.390625 -26.578125 C 19.867188 -27.523438 18.164062 -28 16.28125 -28 C 14.394531 -28 12.691406 -27.523438 11.171875 -26.578125 C 9.648438 -25.628906 8.441406 -24.226562 7.546875 -22.375 C 6.648438 -20.519531 6.203125 -18.242188 6.203125 -15.546875 C 6.203125 -12.859375 6.648438 -10.585938 7.546875 -8.734375 C 8.441406 -6.878906 9.648438 -5.472656 11.171875 -4.515625 C 12.691406 -3.566406 14.394531 -3.09375 16.28125 -3.09375 C 18.164062 -3.09375 19.867188 -3.566406 21.390625 -4.515625 C 22.910156 -5.472656 24.117188 -6.878906 25.015625 -8.734375 C 25.910156 -10.585938 26.359375 -12.859375 26.359375 -15.546875 Z M 26.359375 -15.546875 "/></g></g></g><g fill="#737373" fill-opacity="1"><g transform="translate(676.760192, 212.215453)"><g><path d="M 3.765625 0 L 3.765625 -31.109375 L 14.28125 -31.109375 C 16.707031 -31.109375 18.695312 -30.691406 20.25 -29.859375 C 21.8125 -29.035156 22.96875 -27.90625 23.71875 -26.46875 C 24.46875 -25.03125 24.84375 -23.394531 24.84375 -21.5625 C 24.84375 -19.5 24.367188 -17.695312 23.421875 -16.15625 C 22.472656 -14.625 21.007812 -13.519531 19.03125 -12.84375 L 26.0625 0 L 21.6875 0 L 15.125 -12.171875 C 14.875 -12.160156 14.613281 -12.15625 14.34375 -12.15625 L 7.53125 -12.15625 L 7.53125 0 Z M 7.53125 -15.546875 L 14.21875 -15.546875 C 16.707031 -15.546875 18.484375 -16.082031 19.546875 -17.15625 C 20.609375 -18.226562 21.140625 -19.695312 21.140625 -21.5625 C 21.140625 -23.4375 20.601562 -24.9375 19.53125 -26.0625 C 18.46875 -27.195312 16.675781 -27.765625 14.15625 -27.765625 L 7.53125 -27.765625 Z M 7.53125 -15.546875 "/></g></g></g><g fill="#737373" fill-opacity="1"><g transform="translate(714.180784, 212.215453)"><g><path d="M 5.046875 0 L 1.09375 0 L 12.515625 -31.109375 L 16.40625 -31.109375 L 27.828125 0 L 23.875 0 L 20.75 -8.8125 L 8.171875 -8.8125 Z M 9.359375 -12.15625 L 19.5625 -12.15625 L 14.578125 -26.1875 L 14.34375 -26.1875 Z M 9.359375 -12.15625 "/></g></g></g><g fill="#737373" fill-opacity="1"><g transform="translate(753.179963, 212.215453)"><g><path d="M 28.796875 -21.375 L 25.03125 -21.375 C 24.726562 -22.820312 24.144531 -24.035156 23.28125 -25.015625 C 22.414062 -25.992188 21.375 -26.734375 20.15625 -27.234375 C 18.945312 -27.742188 17.65625 -28 16.28125 -28 C 14.394531 -28 12.691406 -27.523438 11.171875 -26.578125 C 9.648438 -25.628906 8.441406 -24.226562 7.546875 -22.375 C 6.648438 -20.519531 6.203125 -18.242188 6.203125 -15.546875 C 6.203125 -12.859375 6.648438 -10.585938 7.546875 -8.734375 C 8.441406 -6.878906 9.648438 -5.472656 11.171875 -4.515625 C 12.691406 -3.566406 14.394531 -3.09375 16.28125 -3.09375 C 17.65625 -3.09375 18.945312 -3.34375 20.15625 -3.84375 C 21.375 -4.351562 22.414062 -5.097656 23.28125 -6.078125 C 24.144531 -7.066406 24.726562 -8.28125 25.03125 -9.71875 L 28.796875 -9.71875 C 28.410156 -7.59375 27.625 -5.769531 26.4375 -4.25 C 25.25 -2.738281 23.78125 -1.582031 22.03125 -0.78125 C 20.28125 0.0195312 18.363281 0.421875 16.28125 0.421875 C 13.625 0.421875 11.265625 -0.222656 9.203125 -1.515625 C 7.140625 -2.816406 5.515625 -4.660156 4.328125 -7.046875 C 3.140625 -9.429688 2.546875 -12.265625 2.546875 -15.546875 C 2.546875 -18.828125 3.140625 -21.660156 4.328125 -24.046875 C 5.515625 -26.441406 7.140625 -28.285156 9.203125 -29.578125 C 11.265625 -30.878906 13.625 -31.53125 16.28125 -31.53125 C 18.363281 -31.53125 20.28125 -31.125 22.03125 -30.3125 C 23.78125 -29.507812 25.25 -28.351562 26.4375 -26.84375 C 27.625 -25.332031 28.410156 -23.507812 28.796875 -21.375 Z M 28.796875 -21.375 "/></g></g></g><g fill="#737373" fill-opacity="1"><g transform="translate(794.364878, 212.215453)"><g><path d="M 3.765625 0 L 3.765625 -31.109375 L 7.53125 -31.109375 L 7.53125 -3.34375 L 21.984375 -3.34375 L 21.984375 0 Z M 3.765625 0 "/></g></g></g><g fill="#737373" fill-opacity="1"><g transform="translate(828.506887, 212.215453)"><g><path d="M 3.765625 0 L 3.765625 -31.109375 L 22.53125 -31.109375 L 22.53125 -27.765625 L 7.53125 -27.765625 L 7.53125 -17.25 L 21.5625 -17.25 L 21.5625 -13.90625 L 7.53125 -13.90625 L 7.53125 -3.34375 L 22.78125 -3.34375 L 22.78125 0 Z M 3.765625 0 "/></g></g></g><g fill="#737373" fill-opacity="1"><g transform="translate(864.166775, 212.215453)"><g/></g></g><g fill="#737373" fill-opacity="1"><g transform="translate(886.287295, 212.215453)"><g><path d="M 13.359375 0 L 3.765625 0 L 3.765625 -31.109375 L 13.796875 -31.109375 C 16.804688 -31.109375 19.382812 -30.484375 21.53125 -29.234375 C 23.675781 -27.992188 25.320312 -26.21875 26.46875 -23.90625 C 27.613281 -21.59375 28.1875 -18.828125 28.1875 -15.609375 C 28.1875 -12.367188 27.609375 -9.582031 26.453125 -7.25 C 25.296875 -4.914062 23.613281 -3.125 21.40625 -1.875 C 19.207031 -0.625 16.523438 0 13.359375 0 Z M 7.53125 -3.34375 L 13.125 -3.34375 C 16.976562 -3.34375 19.84375 -4.4375 21.71875 -6.625 C 23.601562 -8.820312 24.546875 -11.816406 24.546875 -15.609375 C 24.546875 -19.378906 23.625 -22.347656 21.78125 -24.515625 C 19.9375 -26.679688 17.191406 -27.765625 13.546875 -27.765625 L 7.53125 -27.765625 Z M 7.53125 -3.34375 "/></g></g></g><g fill="#737373" fill-opacity="1"><g transform="translate(927.107928, 212.215453)"><g><path d="M 3.765625 0 L 3.765625 -31.109375 L 14.640625 -31.109375 C 16.804688 -31.109375 18.59375 -30.734375 20 -29.984375 C 21.40625 -29.242188 22.453125 -28.25 23.140625 -27 C 23.828125 -25.75 24.171875 -24.363281 24.171875 -22.84375 C 24.171875 -21.507812 23.9375 -20.40625 23.46875 -19.53125 C 23 -18.65625 22.378906 -17.960938 21.609375 -17.453125 C 20.847656 -16.953125 20.023438 -16.582031 19.140625 -16.34375 L 19.140625 -16.03125 C 20.085938 -15.976562 21.039062 -15.644531 22 -15.03125 C 22.96875 -14.425781 23.773438 -13.554688 24.421875 -12.421875 C 25.066406 -11.285156 25.390625 -9.898438 25.390625 -8.265625 C 25.390625 -6.703125 25.035156 -5.296875 24.328125 -4.046875 C 23.617188 -2.804688 22.5 -1.820312 20.96875 -1.09375 C 19.4375 -0.363281 17.445312 0 15 0 Z M 7.53125 -3.34375 L 15 -3.34375 C 17.457031 -3.34375 19.207031 -3.820312 20.25 -4.78125 C 21.289062 -5.738281 21.8125 -6.898438 21.8125 -8.265625 C 21.8125 -9.316406 21.539062 -10.289062 21 -11.1875 C 20.46875 -12.082031 19.703125 -12.800781 18.703125 -13.34375 C 17.710938 -13.882812 16.539062 -14.15625 15.1875 -14.15625 L 7.53125 -14.15625 Z M 7.53125 -17.4375 L 14.515625 -17.4375 C 16.210938 -17.4375 17.648438 -17.925781 18.828125 -18.90625 C 20.003906 -19.882812 20.59375 -21.195312 20.59375 -22.84375 C 20.59375 -24.207031 20.113281 -25.367188 19.15625 -26.328125 C 18.207031 -27.285156 16.703125 -27.765625 14.640625 -27.765625 L 7.53125 -27.765625 Z M 7.53125 -17.4375 "/></g></g></g><path stroke-linecap="round" transform="matrix(0, 2.247836, -2.247836, 0, 511.24112, 40.14991)" fill="none" stroke-linejoin="miter" d="M 0.499826 0.500006 L 93.226145 0.500006 " stroke="#000000" stroke-width="1" stroke-opacity="1" stroke-miterlimit="4"/></svg>