<svg xmlns="http://www.w3.org/2000/svg" xmlns:xlink="http://www.w3.org/1999/xlink" width="1600" zoomAndPan="magnify" viewBox="0 0 1200 290.999983" height="388" preserveAspectRatio="xMidYMid meet" version="1.0"><defs><g/><clipPath id="a293f8042d"><path d="M 150.042969 66 L 453 66 L 453 215 L 150.042969 215 Z M 150.042969 66 " clip-rule="nonzero"/></clipPath><clipPath id="eab94c17e8"><path d="M 272 40.050781 L 483 40.050781 L 483 250.800781 L 272 250.800781 Z M 272 40.050781 " clip-rule="nonzero"/></clipPath></defs><g clip-path="url(#a293f8042d)"><path fill="#ffffff" d="M 277.621094 196.683594 C 291.066406 190.546875 302.742188 183.785156 312.304688 177.523438 C 330.597656 165.550781 353.976562 143.289062 355.261719 141.507812 L 346.691406 135.785156 L 339.269531 130.824219 L 362.761719 129.90625 L 370.308594 129.609375 L 372.363281 122.339844 L 378.746094 99.714844 L 386.878906 121.773438 L 389.492188 128.859375 L 397.042969 128.566406 L 420.53125 127.648438 L 402.066406 142.199219 L 396.132812 146.871094 L 398.746094 153.957031 L 406.878906 176.015625 L 387.335938 162.953125 L 381.058594 158.753906 L 375.125 163.429688 L 356.660156 177.980469 L 359.832031 166.734375 L 363.042969 155.355469 L 363.441406 153.945312 C 340.964844 170.769531 309.519531 186.980469 290.714844 192.976562 C 286.40625 194.351562 282.039062 195.585938 277.621094 196.683594 Z M 233.414062 213.910156 C 266.734375 212.609375 306.425781 204.140625 345.488281 179.28125 L 337.964844 205.949219 L 381.558594 171.59375 L 427.703125 202.441406 L 408.503906 150.363281 L 452.097656 116.007812 L 396.636719 118.175781 L 377.429688 66.097656 L 362.355469 119.515625 L 306.890625 121.6875 L 339 143.148438 C 317.867188 162.367188 264.855469 203.359375 194.628906 206.105469 C 180.433594 206.664062 165.523438 205.652344 150.042969 202.582031 C 150.042969 202.582031 184.996094 215.808594 233.414062 213.910156 " fill-opacity="1" fill-rule="nonzero"/></g><g clip-path="url(#eab94c17e8)"><path fill="#ffffff" d="M 377.566406 40.242188 C 319.433594 40.242188 272.308594 87.367188 272.308594 145.496094 C 272.308594 156.503906 274 167.113281 277.136719 177.089844 C 281.714844 174.808594 286.089844 172.449219 290.25 170.050781 C 288.058594 162.242188 286.882812 154.003906 286.882812 145.496094 C 286.882812 95.414062 327.484375 54.8125 377.566406 54.8125 C 427.648438 54.8125 468.246094 95.414062 468.246094 145.496094 C 468.246094 195.578125 427.648438 236.179688 377.566406 236.179688 C 350.402344 236.179688 326.035156 224.234375 309.417969 205.3125 C 304.585938 207.195312 299.691406 208.90625 294.738281 210.453125 C 314.007812 234.988281 343.945312 250.75 377.566406 250.75 C 435.699219 250.75 482.820312 203.625 482.820312 145.496094 C 482.820312 87.367188 435.699219 40.242188 377.566406 40.242188 " fill-opacity="1" fill-rule="nonzero"/></g><path fill="#ffffff" d="M 224.019531 131.4375 L 229.828125 149.316406 L 248.625 149.316406 L 233.417969 160.363281 L 239.226562 178.242188 L 224.019531 167.195312 L 208.8125 178.242188 L 214.621094 160.363281 L 199.414062 149.316406 L 218.210938 149.316406 L 224.019531 131.4375 " fill-opacity="1" fill-rule="nonzero"/><path fill="#ffffff" d="M 251.070312 72.511719 L 256.082031 87.945312 L 272.308594 87.945312 L 259.183594 97.480469 L 264.195312 112.914062 L 251.070312 103.375 L 237.941406 112.914062 L 242.957031 97.480469 L 229.828125 87.945312 L 246.054688 87.945312 L 251.070312 72.511719 " fill-opacity="1" fill-rule="nonzero"/><path fill="#ffffff" d="M 168.222656 166.453125 L 171.148438 175.457031 L 180.617188 175.457031 L 172.957031 181.023438 L 175.882812 190.027344 L 168.222656 184.464844 L 160.5625 190.027344 L 163.488281 181.023438 L 155.828125 175.457031 L 165.296875 175.457031 L 168.222656 166.453125 " fill-opacity="1" fill-rule="nonzero"/><g fill="#ffffff" fill-opacity="1"><g transform="translate(537.422909, 171.494034)"><g><path d="M 5.921875 0 L 5.921875 -68.0625 L 20.3125 -68.0625 L 20.3125 -11.859375 L 49.484375 -11.859375 L 49.484375 0 Z M 5.921875 0 "/></g></g></g><g fill="#ffffff" fill-opacity="1"><g transform="translate(597.362902, 171.494034)"><g><path d="M 20.3125 -68.0625 L 20.3125 0 L 5.921875 0 L 5.921875 -68.0625 Z M 20.3125 -68.0625 "/></g></g></g><g fill="#ffffff" fill-opacity="1"><g transform="translate(630.450114, 171.494034)"><g><path d="M 3.328125 -56.203125 L 3.328125 -68.0625 L 59.234375 -68.0625 L 59.234375 -56.203125 L 38.390625 -56.203125 L 38.390625 0 L 24.15625 0 L 24.15625 -56.203125 Z M 3.328125 -56.203125 "/></g></g></g><g fill="#ffffff" fill-opacity="1"><g transform="translate(699.82846, 171.494034)"><g><path d="M 5.921875 0 L 5.921875 -68.0625 L 51.78125 -68.0625 L 51.78125 -56.203125 L 20.3125 -56.203125 L 20.3125 -39.984375 L 49.421875 -39.984375 L 49.421875 -28.125 L 20.3125 -28.125 L 20.3125 -11.859375 L 51.921875 -11.859375 L 51.921875 0 Z M 5.921875 0 "/></g></g></g><g fill="#ffffff" fill-opacity="1"><g transform="translate(763.989125, 171.494034)"><g><path d="M 42.84375 -48.484375 C 42.570312 -51.171875 41.421875 -53.253906 39.390625 -54.734375 C 37.367188 -56.222656 34.640625 -56.96875 31.203125 -56.96875 C 27.679688 -56.96875 24.976562 -56.242188 23.09375 -54.796875 C 21.21875 -53.359375 20.28125 -51.546875 20.28125 -49.359375 C 20.226562 -46.921875 21.269531 -45.070312 23.40625 -43.8125 C 25.550781 -42.5625 28.097656 -41.597656 31.046875 -40.921875 L 37.15625 -39.453125 C 41.101562 -38.566406 44.609375 -37.28125 47.671875 -35.59375 C 50.742188 -33.914062 53.160156 -31.75 54.921875 -29.09375 C 56.679688 -26.445312 57.5625 -23.226562 57.5625 -19.4375 C 57.539062 -13.21875 55.207031 -8.257812 50.5625 -4.5625 C 45.925781 -0.875 39.453125 0.96875 31.140625 0.96875 C 22.878906 0.96875 16.285156 -0.914062 11.359375 -4.6875 C 6.441406 -8.457031 3.894531 -14.019531 3.71875 -21.375 L 17.65625 -21.375 C 17.894531 -17.957031 19.238281 -15.390625 21.6875 -13.671875 C 24.132812 -11.953125 27.226562 -11.09375 30.96875 -11.09375 C 34.625 -11.09375 37.546875 -11.867188 39.734375 -13.421875 C 41.921875 -14.972656 43.023438 -16.992188 43.046875 -19.484375 C 43.023438 -21.785156 42.015625 -23.554688 40.015625 -24.796875 C 38.023438 -26.035156 35.175781 -27.097656 31.46875 -27.984375 L 24.0625 -29.84375 C 18.320312 -31.21875 13.789062 -33.398438 10.46875 -36.390625 C 7.144531 -39.378906 5.492188 -43.378906 5.515625 -48.390625 C 5.492188 -52.515625 6.597656 -56.117188 8.828125 -59.203125 C 11.054688 -62.296875 14.117188 -64.703125 18.015625 -66.421875 C 21.910156 -68.140625 26.34375 -69 31.3125 -69 C 36.363281 -69 40.773438 -68.132812 44.546875 -66.40625 C 48.328125 -64.675781 51.269531 -62.269531 53.375 -59.1875 C 55.476562 -56.113281 56.566406 -52.546875 56.640625 -48.484375 Z M 42.84375 -48.484375 "/></g></g></g><g fill="#ffffff" fill-opacity="1"><g transform="translate(832.104582, 171.494034)"><g><path d="M 3.328125 -56.203125 L 3.328125 -68.0625 L 59.234375 -68.0625 L 59.234375 -56.203125 L 38.390625 -56.203125 L 38.390625 0 L 24.15625 0 L 24.15625 -56.203125 Z M 3.328125 -56.203125 "/></g></g></g><g fill="#ffffff" fill-opacity="1"><g transform="translate(901.482917, 171.494034)"><g><path d="M 17.65625 0 L 2.234375 0 L 25.71875 -68.0625 L 44.265625 -68.0625 L 67.734375 0 L 52.3125 0 L 47.265625 -15.515625 L 22.703125 -15.515625 Z M 26.359375 -26.75 L 43.640625 -26.75 L 35.265625 -52.515625 L 34.734375 -52.515625 Z M 26.359375 -26.75 "/></g></g></g><g fill="#ffffff" fill-opacity="1"><g transform="translate(978.305587, 171.494034)"><g><path d="M 5.921875 0 L 5.921875 -68.0625 L 32.765625 -68.0625 C 40.503906 -68.0625 46.503906 -66.046875 50.765625 -62.015625 C 55.035156 -57.984375 57.171875 -52.585938 57.171875 -45.828125 C 57.171875 -41.179688 56.132812 -37.207031 54.0625 -33.90625 C 51.988281 -30.601562 49.015625 -28.117188 45.140625 -26.453125 L 59.59375 0 L 43.703125 0 L 30.8125 -24.125 L 20.3125 -24.125 L 20.3125 0 Z M 20.3125 -35.703125 L 30.078125 -35.703125 C 38.253906 -35.703125 42.34375 -39.078125 42.34375 -45.828125 C 42.34375 -52.804688 38.234375 -56.296875 30.015625 -56.296875 L 20.3125 -56.296875 Z M 20.3125 -35.703125 "/></g></g></g><g fill="#ffffff" fill-opacity="1"><g transform="translate(542.672909, 234.351353)"><g><path d="M 30.046875 -15.578125 C 30.046875 -12.285156 29.453125 -9.441406 28.265625 -7.046875 C 27.085938 -4.660156 25.460938 -2.816406 23.390625 -1.515625 C 21.316406 -0.222656 18.953125 0.421875 16.296875 0.421875 C 13.640625 0.421875 11.273438 -0.222656 9.203125 -1.515625 C 7.140625 -2.816406 5.515625 -4.660156 4.328125 -7.046875 C 3.148438 -9.441406 2.5625 -12.285156 2.5625 -15.578125 C 2.5625 -18.859375 3.148438 -21.695312 4.328125 -24.09375 C 5.515625 -26.488281 7.140625 -28.332031 9.203125 -29.625 C 11.273438 -30.925781 13.640625 -31.578125 16.296875 -31.578125 C 18.953125 -31.578125 21.316406 -30.925781 23.390625 -29.625 C 25.460938 -28.332031 27.085938 -26.488281 28.265625 -24.09375 C 29.453125 -21.695312 30.046875 -18.859375 30.046875 -15.578125 Z M 26.40625 -15.578125 C 26.40625 -18.273438 25.953125 -20.550781 25.046875 -22.40625 C 24.148438 -24.257812 22.941406 -25.660156 21.421875 -26.609375 C 19.898438 -27.566406 18.191406 -28.046875 16.296875 -28.046875 C 14.410156 -28.046875 12.703125 -27.566406 11.171875 -26.609375 C 9.648438 -25.660156 8.441406 -24.257812 7.546875 -22.40625 C 6.648438 -20.550781 6.203125 -18.273438 6.203125 -15.578125 C 6.203125 -12.878906 6.648438 -10.601562 7.546875 -8.75 C 8.441406 -6.894531 9.648438 -5.488281 11.171875 -4.53125 C 12.703125 -3.582031 14.410156 -3.109375 16.296875 -3.109375 C 18.191406 -3.109375 19.898438 -3.582031 21.421875 -4.53125 C 22.941406 -5.488281 24.148438 -6.894531 25.046875 -8.75 C 25.953125 -10.601562 26.40625 -12.878906 26.40625 -15.578125 Z M 26.40625 -15.578125 "/></g></g></g><g fill="#ffffff" fill-opacity="1"><g transform="translate(585.382659, 234.351353)"><g><path d="M 3.765625 0 L 3.765625 -31.140625 L 14.296875 -31.140625 C 16.734375 -31.140625 18.726562 -30.726562 20.28125 -29.90625 C 21.84375 -29.082031 23 -27.945312 23.75 -26.5 C 24.5 -25.0625 24.875 -23.425781 24.875 -21.59375 C 24.875 -19.53125 24.398438 -17.726562 23.453125 -16.1875 C 22.503906 -14.65625 21.039062 -13.546875 19.0625 -12.859375 L 26.09375 0 L 21.71875 0 L 15.140625 -12.1875 C 14.890625 -12.175781 14.628906 -12.171875 14.359375 -12.171875 L 7.546875 -12.171875 L 7.546875 0 Z M 7.546875 -15.578125 L 14.234375 -15.578125 C 16.734375 -15.578125 18.515625 -16.113281 19.578125 -17.1875 C 20.640625 -18.257812 21.171875 -19.726562 21.171875 -21.59375 C 21.171875 -23.46875 20.632812 -24.96875 19.5625 -26.09375 C 18.5 -27.226562 16.703125 -27.796875 14.171875 -27.796875 L 7.546875 -27.796875 Z M 7.546875 -15.578125 "/></g></g></g><g fill="#ffffff" fill-opacity="1"><g transform="translate(622.861486, 234.351353)"><g><path d="M 25.0625 -21.421875 C 24.40625 -23.460938 23.320312 -25.078125 21.8125 -26.265625 C 20.3125 -27.453125 18.4375 -28.046875 16.1875 -28.046875 C 14.34375 -28.046875 12.660156 -27.566406 11.140625 -26.609375 C 9.628906 -25.660156 8.425781 -24.257812 7.53125 -22.40625 C 6.644531 -20.550781 6.203125 -18.273438 6.203125 -15.578125 C 6.203125 -12.878906 6.648438 -10.601562 7.546875 -8.75 C 8.453125 -6.894531 9.675781 -5.488281 11.21875 -4.53125 C 12.757812 -3.582031 14.492188 -3.109375 16.421875 -3.109375 C 18.179688 -3.109375 19.738281 -3.476562 21.09375 -4.21875 C 22.445312 -4.96875 23.503906 -6.019531 24.265625 -7.375 C 25.035156 -8.738281 25.441406 -10.359375 25.484375 -12.234375 L 17.28125 -12.234375 L 17.28125 -15.578125 L 29.140625 -15.578125 L 29.140625 -12.234375 C 29.140625 -9.660156 28.59375 -7.425781 27.5 -5.53125 C 26.414062 -3.632812 24.914062 -2.164062 23 -1.125 C 21.09375 -0.09375 18.898438 0.421875 16.421875 0.421875 C 13.660156 0.421875 11.238281 -0.222656 9.15625 -1.515625 C 7.070312 -2.816406 5.453125 -4.660156 4.296875 -7.046875 C 3.140625 -9.441406 2.5625 -12.285156 2.5625 -15.578125 C 2.5625 -18.859375 3.140625 -21.695312 4.296875 -24.09375 C 5.453125 -26.488281 7.054688 -28.332031 9.109375 -29.625 C 11.171875 -30.925781 13.53125 -31.578125 16.1875 -31.578125 C 18.375 -31.578125 20.359375 -31.144531 22.140625 -30.28125 C 23.929688 -29.425781 25.414062 -28.234375 26.59375 -26.703125 C 27.78125 -25.179688 28.566406 -23.421875 28.953125 -21.421875 Z M 25.0625 -21.421875 "/></g></g></g><g fill="#ffffff" fill-opacity="1"><g transform="translate(664.780509, 234.351353)"><g/></g></g><g fill="#ffffff" fill-opacity="1"><g transform="translate(686.93153, 234.351353)"><g><path d="M 3.765625 0 L 3.765625 -31.140625 L 14.296875 -31.140625 C 16.742188 -31.140625 18.742188 -30.703125 20.296875 -29.828125 C 21.847656 -28.953125 23 -27.769531 23.75 -26.28125 C 24.5 -24.789062 24.875 -23.128906 24.875 -21.296875 C 24.875 -19.460938 24.5 -17.789062 23.75 -16.28125 C 23.007812 -14.78125 21.863281 -13.585938 20.3125 -12.703125 C 18.769531 -11.816406 16.785156 -11.375 14.359375 -11.375 L 7.546875 -11.375 L 7.546875 0 Z M 7.546875 -14.71875 L 14.234375 -14.71875 C 16.742188 -14.71875 18.523438 -15.347656 19.578125 -16.609375 C 20.640625 -17.867188 21.171875 -19.429688 21.171875 -21.296875 C 21.171875 -23.171875 20.640625 -24.722656 19.578125 -25.953125 C 18.515625 -27.179688 16.710938 -27.796875 14.171875 -27.796875 L 7.546875 -27.796875 Z M 7.546875 -14.71875 "/></g></g></g><g fill="#ffffff" fill-opacity="1"><g transform="translate(724.227879, 234.351353)"><g><path d="M 3.765625 0 L 3.765625 -31.140625 L 14.296875 -31.140625 C 16.734375 -31.140625 18.726562 -30.726562 20.28125 -29.90625 C 21.84375 -29.082031 23 -27.945312 23.75 -26.5 C 24.5 -25.0625 24.875 -23.425781 24.875 -21.59375 C 24.875 -19.53125 24.398438 -17.726562 23.453125 -16.1875 C 22.503906 -14.65625 21.039062 -13.546875 19.0625 -12.859375 L 26.09375 0 L 21.71875 0 L 15.140625 -12.1875 C 14.890625 -12.175781 14.628906 -12.171875 14.359375 -12.171875 L 7.546875 -12.171875 L 7.546875 0 Z M 7.546875 -15.578125 L 14.234375 -15.578125 C 16.734375 -15.578125 18.515625 -16.113281 19.578125 -17.1875 C 20.640625 -18.257812 21.171875 -19.726562 21.171875 -21.59375 C 21.171875 -23.46875 20.632812 -24.96875 19.5625 -26.09375 C 18.5 -27.226562 16.703125 -27.796875 14.171875 -27.796875 L 7.546875 -27.796875 Z M 7.546875 -15.578125 "/></g></g></g><g fill="#ffffff" fill-opacity="1"><g transform="translate(761.706715, 234.351353)"><g><path d="M 30.046875 -15.578125 C 30.046875 -12.285156 29.453125 -9.441406 28.265625 -7.046875 C 27.085938 -4.660156 25.460938 -2.816406 23.390625 -1.515625 C 21.316406 -0.222656 18.953125 0.421875 16.296875 0.421875 C 13.640625 0.421875 11.273438 -0.222656 9.203125 -1.515625 C 7.140625 -2.816406 5.515625 -4.660156 4.328125 -7.046875 C 3.148438 -9.441406 2.5625 -12.285156 2.5625 -15.578125 C 2.5625 -18.859375 3.148438 -21.695312 4.328125 -24.09375 C 5.515625 -26.488281 7.140625 -28.332031 9.203125 -29.625 C 11.273438 -30.925781 13.640625 -31.578125 16.296875 -31.578125 C 18.953125 -31.578125 21.316406 -30.925781 23.390625 -29.625 C 25.460938 -28.332031 27.085938 -26.488281 28.265625 -24.09375 C 29.453125 -21.695312 30.046875 -18.859375 30.046875 -15.578125 Z M 26.40625 -15.578125 C 26.40625 -18.273438 25.953125 -20.550781 25.046875 -22.40625 C 24.148438 -24.257812 22.941406 -25.660156 21.421875 -26.609375 C 19.898438 -27.566406 18.191406 -28.046875 16.296875 -28.046875 C 14.410156 -28.046875 12.703125 -27.566406 11.171875 -26.609375 C 9.648438 -25.660156 8.441406 -24.257812 7.546875 -22.40625 C 6.648438 -20.550781 6.203125 -18.273438 6.203125 -15.578125 C 6.203125 -12.878906 6.648438 -10.601562 7.546875 -8.75 C 8.441406 -6.894531 9.648438 -5.488281 11.171875 -4.53125 C 12.703125 -3.582031 14.410156 -3.109375 16.296875 -3.109375 C 18.191406 -3.109375 19.898438 -3.582031 21.421875 -4.53125 C 22.941406 -5.488281 24.148438 -6.894531 25.046875 -8.75 C 25.953125 -10.601562 26.40625 -12.878906 26.40625 -15.578125 Z M 26.40625 -15.578125 "/></g></g></g><g fill="#ffffff" fill-opacity="1"><g transform="translate(804.416473, 234.351353)"><g><path d="M 15.703125 -31.140625 L 19.46875 -31.140625 L 19.46875 -8.875 C 19.46875 -5.882812 18.660156 -3.585938 17.046875 -1.984375 C 15.441406 -0.378906 13.285156 0.421875 10.578125 0.421875 C 8.878906 0.421875 7.363281 0.113281 6.03125 -0.5 C 4.707031 -1.125 3.664062 -2.015625 2.90625 -3.171875 C 2.144531 -4.328125 1.765625 -5.703125 1.765625 -7.296875 L 5.46875 -7.296875 C 5.46875 -5.984375 5.945312 -4.925781 6.90625 -4.125 C 7.875 -3.320312 9.097656 -2.921875 10.578125 -2.921875 C 12.210938 -2.921875 13.472656 -3.429688 14.359375 -4.453125 C 15.253906 -5.472656 15.703125 -6.945312 15.703125 -8.875 Z M 15.703125 -31.140625 "/></g></g></g><g fill="#ffffff" fill-opacity="1"><g transform="translate(837.75922, 234.351353)"><g><path d="M 3.765625 0 L 3.765625 -31.140625 L 22.5625 -31.140625 L 22.5625 -27.796875 L 7.546875 -27.796875 L 7.546875 -17.28125 L 21.59375 -17.28125 L 21.59375 -13.9375 L 7.546875 -13.9375 L 7.546875 -3.34375 L 22.8125 -3.34375 L 22.8125 0 Z M 3.765625 0 "/></g></g></g><g fill="#ffffff" fill-opacity="1"><g transform="translate(873.474145, 234.351353)"><g><path d="M 28.84375 -21.421875 L 25.0625 -21.421875 C 24.757812 -22.859375 24.175781 -24.066406 23.3125 -25.046875 C 22.445312 -26.035156 21.40625 -26.78125 20.1875 -27.28125 C 18.976562 -27.789062 17.679688 -28.046875 16.296875 -28.046875 C 14.410156 -28.046875 12.703125 -27.566406 11.171875 -26.609375 C 9.648438 -25.660156 8.441406 -24.257812 7.546875 -22.40625 C 6.648438 -20.550781 6.203125 -18.273438 6.203125 -15.578125 C 6.203125 -12.878906 6.648438 -10.601562 7.546875 -8.75 C 8.441406 -6.894531 9.648438 -5.488281 11.171875 -4.53125 C 12.703125 -3.582031 14.410156 -3.109375 16.296875 -3.109375 C 17.679688 -3.109375 18.976562 -3.359375 20.1875 -3.859375 C 21.40625 -4.367188 22.445312 -5.113281 23.3125 -6.09375 C 24.175781 -7.082031 24.757812 -8.296875 25.0625 -9.734375 L 28.84375 -9.734375 C 28.457031 -7.609375 27.671875 -5.785156 26.484375 -4.265625 C 25.296875 -2.753906 23.820312 -1.59375 22.0625 -0.78125 C 20.3125 0.0195312 18.390625 0.421875 16.296875 0.421875 C 13.640625 0.421875 11.273438 -0.222656 9.203125 -1.515625 C 7.140625 -2.816406 5.515625 -4.660156 4.328125 -7.046875 C 3.148438 -9.441406 2.5625 -12.285156 2.5625 -15.578125 C 2.5625 -18.859375 3.148438 -21.695312 4.328125 -24.09375 C 5.515625 -26.488281 7.140625 -28.332031 9.203125 -29.625 C 11.273438 -30.925781 13.640625 -31.578125 16.296875 -31.578125 C 18.390625 -31.578125 20.3125 -31.171875 22.0625 -30.359375 C 23.820312 -29.554688 25.296875 -28.394531 26.484375 -26.875 C 27.671875 -25.363281 28.457031 -23.546875 28.84375 -21.421875 Z M 28.84375 -21.421875 "/></g></g></g><g fill="#ffffff" fill-opacity="1"><g transform="translate(914.724095, 234.351353)"><g><path d="M 2.0625 -27.796875 L 2.0625 -31.140625 L 25.421875 -31.140625 L 25.421875 -27.796875 L 15.640625 -27.796875 L 15.640625 0 L 11.859375 0 L 11.859375 -27.796875 Z M 2.0625 -27.796875 "/></g></g></g><path stroke-linecap="round" transform="matrix(0, 0.75, -0.75, 0, 511.169216, 40.05441)" fill="none" stroke-linejoin="miter" d="M 1.50037 1.501663 L 279.65144 1.501663 " stroke="#edb641" stroke-width="3" stroke-opacity="1" stroke-miterlimit="4"/><g fill="#ffffff" fill-opacity="1"><g transform="translate(542.672909, 85.898624)"><g><path d="M 5.046875 0 L 1.09375 0 L 12.53125 -31.140625 L 16.421875 -31.140625 L 27.859375 0 L 23.90625 0 L 20.78125 -8.828125 L 8.1875 -8.828125 Z M 9.375 -12.171875 L 19.59375 -12.171875 L 14.59375 -26.21875 L 14.359375 -26.21875 Z M 9.375 -12.171875 "/></g></g></g><g fill="#ffffff" fill-opacity="1"><g transform="translate(581.733173, 85.898624)"><g><path d="M 28.46875 -31.140625 L 28.46875 0 L 24.828125 0 L 7.84375 -24.453125 L 7.546875 -24.453125 L 7.546875 0 L 3.765625 0 L 3.765625 -31.140625 L 7.421875 -31.140625 L 24.453125 -6.625 L 24.765625 -6.625 L 24.765625 -31.140625 Z M 28.46875 -31.140625 "/></g></g></g><g fill="#ffffff" fill-opacity="1"><g transform="translate(624.07797, 85.898624)"><g/></g></g><g fill="#ffffff" fill-opacity="1"><g transform="translate(646.228998, 85.898624)"><g><path d="M 30.046875 -15.578125 C 30.046875 -12.285156 29.453125 -9.441406 28.265625 -7.046875 C 27.085938 -4.660156 25.460938 -2.816406 23.390625 -1.515625 C 21.316406 -0.222656 18.953125 0.421875 16.296875 0.421875 C 13.640625 0.421875 11.273438 -0.222656 9.203125 -1.515625 C 7.140625 -2.816406 5.515625 -4.660156 4.328125 -7.046875 C 3.148438 -9.441406 2.5625 -12.285156 2.5625 -15.578125 C 2.5625 -18.859375 3.148438 -21.695312 4.328125 -24.09375 C 5.515625 -26.488281 7.140625 -28.332031 9.203125 -29.625 C 11.273438 -30.925781 13.640625 -31.578125 16.296875 -31.578125 C 18.953125 -31.578125 21.316406 -30.925781 23.390625 -29.625 C 25.460938 -28.332031 27.085938 -26.488281 28.265625 -24.09375 C 29.453125 -21.695312 30.046875 -18.859375 30.046875 -15.578125 Z M 26.40625 -15.578125 C 26.40625 -18.273438 25.953125 -20.550781 25.046875 -22.40625 C 24.148438 -24.257812 22.941406 -25.660156 21.421875 -26.609375 C 19.898438 -27.566406 18.191406 -28.046875 16.296875 -28.046875 C 14.410156 -28.046875 12.703125 -27.566406 11.171875 -26.609375 C 9.648438 -25.660156 8.441406 -24.257812 7.546875 -22.40625 C 6.648438 -20.550781 6.203125 -18.273438 6.203125 -15.578125 C 6.203125 -12.878906 6.648438 -10.601562 7.546875 -8.75 C 8.441406 -6.894531 9.648438 -5.488281 11.171875 -4.53125 C 12.703125 -3.582031 14.410156 -3.109375 16.296875 -3.109375 C 18.191406 -3.109375 19.898438 -3.582031 21.421875 -4.53125 C 22.941406 -5.488281 24.148438 -6.894531 25.046875 -8.75 C 25.953125 -10.601562 26.40625 -12.878906 26.40625 -15.578125 Z M 26.40625 -15.578125 "/></g></g></g><g fill="#ffffff" fill-opacity="1"><g transform="translate(688.938745, 85.898624)"><g><path d="M 3.765625 0 L 3.765625 -31.140625 L 22.453125 -31.140625 L 22.453125 -27.796875 L 7.546875 -27.796875 L 7.546875 -17.28125 L 21.046875 -17.28125 L 21.046875 -13.9375 L 7.546875 -13.9375 L 7.546875 0 Z M 3.765625 0 "/></g></g></g><g fill="#ffffff" fill-opacity="1"><g transform="translate(724.167055, 85.898624)"><g><path d="M 3.765625 0 L 3.765625 -31.140625 L 22.453125 -31.140625 L 22.453125 -27.796875 L 7.546875 -27.796875 L 7.546875 -17.28125 L 21.046875 -17.28125 L 21.046875 -13.9375 L 7.546875 -13.9375 L 7.546875 0 Z M 3.765625 0 "/></g></g></g><g fill="#ffffff" fill-opacity="1"><g transform="translate(759.395376, 85.898624)"><g><path d="M 7.546875 -31.140625 L 7.546875 0 L 3.765625 0 L 3.765625 -31.140625 Z M 7.546875 -31.140625 "/></g></g></g><g fill="#ffffff" fill-opacity="1"><g transform="translate(780.816494, 85.898624)"><g><path d="M 28.84375 -21.421875 L 25.0625 -21.421875 C 24.757812 -22.859375 24.175781 -24.066406 23.3125 -25.046875 C 22.445312 -26.035156 21.40625 -26.78125 20.1875 -27.28125 C 18.976562 -27.789062 17.679688 -28.046875 16.296875 -28.046875 C 14.410156 -28.046875 12.703125 -27.566406 11.171875 -26.609375 C 9.648438 -25.660156 8.441406 -24.257812 7.546875 -22.40625 C 6.648438 -20.550781 6.203125 -18.273438 6.203125 -15.578125 C 6.203125 -12.878906 6.648438 -10.601562 7.546875 -8.75 C 8.441406 -6.894531 9.648438 -5.488281 11.171875 -4.53125 C 12.703125 -3.582031 14.410156 -3.109375 16.296875 -3.109375 C 17.679688 -3.109375 18.976562 -3.359375 20.1875 -3.859375 C 21.40625 -4.367188 22.445312 -5.113281 23.3125 -6.09375 C 24.175781 -7.082031 24.757812 -8.296875 25.0625 -9.734375 L 28.84375 -9.734375 C 28.457031 -7.609375 27.671875 -5.785156 26.484375 -4.265625 C 25.296875 -2.753906 23.820312 -1.59375 22.0625 -0.78125 C 20.3125 0.0195312 18.390625 0.421875 16.296875 0.421875 C 13.640625 0.421875 11.273438 -0.222656 9.203125 -1.515625 C 7.140625 -2.816406 5.515625 -4.660156 4.328125 -7.046875 C 3.148438 -9.441406 2.5625 -12.285156 2.5625 -15.578125 C 2.5625 -18.859375 3.148438 -21.695312 4.328125 -24.09375 C 5.515625 -26.488281 7.140625 -28.332031 9.203125 -29.625 C 11.273438 -30.925781 13.640625 -31.578125 16.296875 -31.578125 C 18.390625 -31.578125 20.3125 -31.171875 22.0625 -30.359375 C 23.820312 -29.554688 25.296875 -28.394531 26.484375 -26.875 C 27.671875 -25.363281 28.457031 -23.546875 28.84375 -21.421875 Z M 28.84375 -21.421875 "/></g></g></g><g fill="#ffffff" fill-opacity="1"><g transform="translate(822.066444, 85.898624)"><g><path d="M 7.546875 -31.140625 L 7.546875 0 L 3.765625 0 L 3.765625 -31.140625 Z M 7.546875 -31.140625 "/></g></g></g><g fill="#ffffff" fill-opacity="1"><g transform="translate(843.487562, 85.898624)"><g><path d="M 5.046875 0 L 1.09375 0 L 12.53125 -31.140625 L 16.421875 -31.140625 L 27.859375 0 L 23.90625 0 L 20.78125 -8.828125 L 8.1875 -8.828125 Z M 9.375 -12.171875 L 19.59375 -12.171875 L 14.59375 -26.21875 L 14.359375 -26.21875 Z M 9.375 -12.171875 "/></g></g></g><g fill="#ffffff" fill-opacity="1"><g transform="translate(882.547822, 85.898624)"><g><path d="M 3.765625 0 L 3.765625 -31.140625 L 7.546875 -31.140625 L 7.546875 -3.34375 L 22.015625 -3.34375 L 22.015625 0 Z M 3.765625 0 "/></g></g></g></svg>