<svg xmlns="http://www.w3.org/2000/svg" xmlns:xlink="http://www.w3.org/1999/xlink" width="1600" zoomAndPan="magnify" viewBox="0 0 1200 290.999983" height="388" preserveAspectRatio="xMidYMid meet" version="1.0"><defs><g/><clipPath id="a36cbabbb0"><path d="M 150.433594 66 L 453 66 L 453 215 L 150.433594 215 Z M 150.433594 66 " clip-rule="nonzero"/></clipPath><clipPath id="ede51ff9aa"><path d="M 272 40.140625 L 482.683594 40.140625 L 482.683594 250.890625 L 272 250.890625 Z M 272 40.140625 " clip-rule="nonzero"/></clipPath></defs><g clip-path="url(#a36cbabbb0)"><path fill="#edb641" d="M 277.898438 196.644531 C 291.328125 190.511719 302.996094 183.753906 312.550781 177.5 C 330.824219 165.539062 354.183594 143.292969 355.46875 141.515625 L 346.90625 135.796875 L 339.492188 130.839844 L 362.960938 129.921875 L 370.503906 129.628906 L 372.554688 122.363281 L 378.933594 99.757812 L 387.058594 121.796875 L 389.671875 128.878906 L 397.210938 128.582031 L 420.683594 127.664062 L 402.234375 142.203125 L 396.304688 146.875 L 398.917969 153.953125 L 407.042969 175.992188 L 387.515625 162.941406 L 381.242188 158.746094 L 375.3125 163.417969 L 356.867188 177.953125 L 360.035156 166.71875 L 363.242188 155.351562 L 363.640625 153.941406 C 341.183594 170.75 309.765625 186.949219 290.980469 192.9375 C 286.671875 194.3125 282.3125 195.542969 277.898438 196.644531 Z M 233.730469 213.855469 C 267.019531 212.554688 306.675781 204.09375 345.703125 179.253906 L 338.1875 205.898438 L 381.742188 171.574219 L 427.847656 202.394531 L 408.664062 150.359375 L 452.21875 116.035156 L 396.804688 118.203125 L 377.621094 66.171875 L 362.554688 119.542969 L 307.140625 121.710938 L 339.222656 143.152344 C 318.109375 162.355469 265.144531 203.308594 194.976562 206.058594 C 180.792969 206.613281 165.898438 205.601562 150.433594 202.535156 C 150.433594 202.535156 185.351562 215.75 233.730469 213.855469 " fill-opacity="1" fill-rule="nonzero"/></g><g clip-path="url(#ede51ff9aa)"><path fill="#edb641" d="M 377.753906 40.335938 C 319.671875 40.335938 272.589844 87.417969 272.589844 145.5 C 272.589844 156.496094 274.28125 167.097656 277.414062 177.066406 C 281.988281 174.785156 286.355469 172.425781 290.515625 170.03125 C 288.324219 162.230469 287.152344 154 287.152344 145.5 C 287.152344 95.460938 327.714844 54.898438 377.753906 54.898438 C 427.792969 54.898438 468.355469 95.460938 468.355469 145.5 C 468.355469 195.535156 427.792969 236.101562 377.753906 236.101562 C 350.617188 236.101562 326.269531 224.167969 309.664062 205.265625 C 304.835938 207.144531 299.949219 208.855469 295 210.398438 C 314.253906 234.914062 344.164062 250.660156 377.753906 250.660156 C 435.835938 250.660156 482.917969 203.578125 482.917969 145.5 C 482.917969 87.417969 435.835938 40.335938 377.753906 40.335938 " fill-opacity="1" fill-rule="nonzero"/></g><path fill="#edb641" d="M 224.34375 131.453125 L 230.148438 149.316406 L 248.929688 149.316406 L 233.730469 160.355469 L 239.535156 178.21875 L 224.34375 167.175781 L 209.148438 178.21875 L 214.953125 160.355469 L 199.757812 149.316406 L 218.539062 149.316406 L 224.34375 131.453125 " fill-opacity="1" fill-rule="nonzero"/><path fill="#edb641" d="M 251.367188 72.578125 L 256.375 88 L 272.589844 88 L 259.476562 97.527344 L 264.484375 112.945312 L 251.367188 103.417969 L 238.25 112.945312 L 243.261719 97.527344 L 230.148438 88 L 246.359375 88 L 251.367188 72.578125 " fill-opacity="1" fill-rule="nonzero"/><path fill="#edb641" d="M 168.59375 166.4375 L 171.519531 175.4375 L 180.976562 175.4375 L 173.324219 180.996094 L 176.25 189.992188 L 168.59375 184.433594 L 160.941406 189.992188 L 163.863281 180.996094 L 156.210938 175.4375 L 165.671875 175.4375 L 168.59375 166.4375 " fill-opacity="1" fill-rule="nonzero"/><g fill="#202235" fill-opacity="1"><g transform="translate(537.500477, 171.524738)"><g><path d="M 5.90625 0 L 5.90625 -68.015625 L 20.296875 -68.015625 L 20.296875 -11.859375 L 49.453125 -11.859375 L 49.453125 0 Z M 5.90625 0 "/></g></g></g><g fill="#202235" fill-opacity="1"><g transform="translate(597.387976, 171.524738)"><g><path d="M 20.296875 -68.015625 L 20.296875 0 L 5.90625 0 L 5.90625 -68.015625 Z M 20.296875 -68.015625 "/></g></g></g><g fill="#202235" fill-opacity="1"><g transform="translate(630.446246, 171.524738)"><g><path d="M 3.328125 -56.15625 L 3.328125 -68.015625 L 59.171875 -68.015625 L 59.171875 -56.15625 L 38.359375 -56.15625 L 38.359375 0 L 24.140625 0 L 24.140625 -56.15625 Z M 3.328125 -56.15625 "/></g></g></g><g fill="#202235" fill-opacity="1"><g transform="translate(699.763824, 171.524738)"><g><path d="M 5.90625 0 L 5.90625 -68.015625 L 51.734375 -68.015625 L 51.734375 -56.15625 L 20.296875 -56.15625 L 20.296875 -39.953125 L 49.375 -39.953125 L 49.375 -28.09375 L 20.296875 -28.09375 L 20.296875 -11.859375 L 51.875 -11.859375 L 51.875 0 Z M 5.90625 0 "/></g></g></g><g fill="#202235" fill-opacity="1"><g transform="translate(763.868299, 171.524738)"><g><path d="M 42.8125 -48.453125 C 42.539062 -51.128906 41.390625 -53.207031 39.359375 -54.6875 C 37.335938 -56.175781 34.613281 -56.921875 31.1875 -56.921875 C 27.664062 -56.921875 24.960938 -56.203125 23.078125 -54.765625 C 21.191406 -53.328125 20.25 -51.507812 20.25 -49.3125 C 20.207031 -46.875 21.253906 -45.03125 23.390625 -43.78125 C 25.523438 -42.53125 28.066406 -41.5625 31.015625 -40.875 L 37.125 -39.421875 C 41.0625 -38.535156 44.5625 -37.25 47.625 -35.5625 C 50.695312 -33.882812 53.113281 -31.722656 54.875 -29.078125 C 56.632812 -26.429688 57.515625 -23.210938 57.515625 -19.421875 C 57.492188 -13.203125 55.160156 -8.25 50.515625 -4.5625 C 45.878906 -0.875 39.410156 0.96875 31.109375 0.96875 C 22.859375 0.96875 16.273438 -0.910156 11.359375 -4.671875 C 6.441406 -8.441406 3.894531 -14.003906 3.71875 -21.359375 L 17.640625 -21.359375 C 17.878906 -17.941406 19.222656 -15.375 21.671875 -13.65625 C 24.117188 -11.945312 27.210938 -11.09375 30.953125 -11.09375 C 34.609375 -11.09375 37.523438 -11.863281 39.703125 -13.40625 C 41.878906 -14.957031 42.976562 -16.972656 43 -19.453125 C 42.976562 -21.753906 41.972656 -23.523438 39.984375 -24.765625 C 37.992188 -26.015625 35.148438 -27.082031 31.453125 -27.96875 L 24.046875 -29.828125 C 18.304688 -31.191406 13.773438 -33.367188 10.453125 -36.359375 C 7.140625 -39.347656 5.492188 -43.347656 5.515625 -48.359375 C 5.492188 -52.472656 6.59375 -56.070312 8.8125 -59.15625 C 11.039062 -62.25 14.101562 -64.648438 18 -66.359375 C 21.894531 -68.078125 26.320312 -68.9375 31.28125 -68.9375 C 36.332031 -68.9375 40.742188 -68.070312 44.515625 -66.34375 C 48.285156 -64.625 51.222656 -62.222656 53.328125 -59.140625 C 55.429688 -56.066406 56.519531 -52.503906 56.59375 -48.453125 Z M 42.8125 -48.453125 "/></g></g></g><g fill="#202235" fill-opacity="1"><g transform="translate(831.924109, 171.524738)"><g><path d="M 3.328125 -56.15625 L 3.328125 -68.015625 L 59.171875 -68.015625 L 59.171875 -56.15625 L 38.359375 -56.15625 L 38.359375 0 L 24.140625 0 L 24.140625 -56.15625 Z M 3.328125 -56.15625 "/></g></g></g><g fill="#202235" fill-opacity="1"><g transform="translate(901.241698, 171.524738)"><g><path d="M 17.640625 0 L 2.21875 0 L 25.703125 -68.015625 L 44.234375 -68.015625 L 67.671875 0 L 52.265625 0 L 47.21875 -15.515625 L 22.6875 -15.515625 Z M 26.328125 -26.734375 L 43.609375 -26.734375 L 35.234375 -52.46875 L 34.703125 -52.46875 Z M 26.328125 -26.734375 "/></g></g></g><g fill="#202235" fill-opacity="1"><g transform="translate(977.997077, 171.524738)"><g><path d="M 5.90625 0 L 5.90625 -68.015625 L 32.75 -68.015625 C 40.46875 -68.015625 46.457031 -66 50.71875 -61.96875 C 54.988281 -57.9375 57.125 -52.546875 57.125 -45.796875 C 57.125 -41.148438 56.085938 -37.175781 54.015625 -33.875 C 51.941406 -30.570312 48.96875 -28.09375 45.09375 -26.4375 L 59.546875 0 L 43.671875 0 L 30.78125 -24.109375 L 20.296875 -24.109375 L 20.296875 0 Z M 20.296875 -35.671875 L 30.046875 -35.671875 C 38.222656 -35.671875 42.3125 -39.046875 42.3125 -45.796875 C 42.3125 -52.765625 38.203125 -56.25 29.984375 -56.25 L 20.296875 -56.25 Z M 20.296875 -35.671875 "/></g></g></g><g fill="#737373" fill-opacity="1"><g transform="translate(542.000477, 234.39379)"><g><path d="M 30.015625 -15.5625 C 30.015625 -12.28125 29.421875 -9.441406 28.234375 -7.046875 C 27.054688 -4.660156 25.429688 -2.816406 23.359375 -1.515625 C 21.296875 -0.222656 18.9375 0.421875 16.28125 0.421875 C 13.632812 0.421875 11.273438 -0.222656 9.203125 -1.515625 C 7.140625 -2.816406 5.515625 -4.660156 4.328125 -7.046875 C 3.140625 -9.441406 2.546875 -12.28125 2.546875 -15.5625 C 2.546875 -18.84375 3.140625 -21.675781 4.328125 -24.0625 C 5.515625 -26.457031 7.140625 -28.300781 9.203125 -29.59375 C 11.273438 -30.894531 13.632812 -31.546875 16.28125 -31.546875 C 18.9375 -31.546875 21.296875 -30.894531 23.359375 -29.59375 C 25.429688 -28.300781 27.054688 -26.457031 28.234375 -24.0625 C 29.421875 -21.675781 30.015625 -18.84375 30.015625 -15.5625 Z M 26.375 -15.5625 C 26.375 -18.25 25.925781 -20.519531 25.03125 -22.375 C 24.132812 -24.226562 22.921875 -25.628906 21.390625 -26.578125 C 19.867188 -27.535156 18.164062 -28.015625 16.28125 -28.015625 C 14.394531 -28.015625 12.691406 -27.535156 11.171875 -26.578125 C 9.648438 -25.628906 8.441406 -24.226562 7.546875 -22.375 C 6.648438 -20.519531 6.203125 -18.25 6.203125 -15.5625 C 6.203125 -12.863281 6.648438 -10.585938 7.546875 -8.734375 C 8.441406 -6.878906 9.648438 -5.472656 11.171875 -4.515625 C 12.691406 -3.566406 14.394531 -3.09375 16.28125 -3.09375 C 18.164062 -3.09375 19.867188 -3.566406 21.390625 -4.515625 C 22.921875 -5.472656 24.132812 -6.878906 25.03125 -8.734375 C 25.925781 -10.585938 26.375 -12.863281 26.375 -15.5625 Z M 26.375 -15.5625 "/></g></g></g><g fill="#737373" fill-opacity="1"><g transform="translate(584.674681, 234.39379)"><g><path d="M 3.765625 0 L 3.765625 -31.109375 L 14.28125 -31.109375 C 16.707031 -31.109375 18.703125 -30.695312 20.265625 -29.875 C 21.828125 -29.050781 22.984375 -27.921875 23.734375 -26.484375 C 24.484375 -25.046875 24.859375 -23.410156 24.859375 -21.578125 C 24.859375 -19.503906 24.382812 -17.703125 23.4375 -16.171875 C 22.488281 -14.640625 21.019531 -13.535156 19.03125 -12.859375 L 26.0625 0 L 21.6875 0 L 15.125 -12.171875 C 14.875 -12.160156 14.613281 -12.15625 14.34375 -12.15625 L 7.53125 -12.15625 L 7.53125 0 Z M 7.53125 -15.5625 L 14.21875 -15.5625 C 16.707031 -15.5625 18.484375 -16.097656 19.546875 -17.171875 C 20.609375 -18.242188 21.140625 -19.710938 21.140625 -21.578125 C 21.140625 -23.453125 20.601562 -24.953125 19.53125 -26.078125 C 18.46875 -27.203125 16.675781 -27.765625 14.15625 -27.765625 L 7.53125 -27.765625 Z M 7.53125 -15.5625 "/></g></g></g><g fill="#737373" fill-opacity="1"><g transform="translate(622.122267, 234.39379)"><g><path d="M 25.03125 -21.390625 C 24.375 -23.429688 23.289062 -25.046875 21.78125 -26.234375 C 20.28125 -27.421875 18.410156 -28.015625 16.171875 -28.015625 C 14.328125 -28.015625 12.648438 -27.535156 11.140625 -26.578125 C 9.628906 -25.628906 8.425781 -24.226562 7.53125 -22.375 C 6.644531 -20.519531 6.203125 -18.25 6.203125 -15.5625 C 6.203125 -12.863281 6.648438 -10.585938 7.546875 -8.734375 C 8.453125 -6.878906 9.671875 -5.472656 11.203125 -4.515625 C 12.742188 -3.566406 14.476562 -3.09375 16.40625 -3.09375 C 18.15625 -3.09375 19.707031 -3.460938 21.0625 -4.203125 C 22.414062 -4.953125 23.476562 -6.007812 24.25 -7.375 C 25.019531 -8.738281 25.425781 -10.351562 25.46875 -12.21875 L 17.265625 -12.21875 L 17.265625 -15.5625 L 29.109375 -15.5625 L 29.109375 -12.21875 C 29.109375 -9.65625 28.5625 -7.425781 27.46875 -5.53125 C 26.382812 -3.632812 24.882812 -2.164062 22.96875 -1.125 C 21.0625 -0.09375 18.875 0.421875 16.40625 0.421875 C 13.65625 0.421875 11.238281 -0.222656 9.15625 -1.515625 C 7.070312 -2.816406 5.445312 -4.660156 4.28125 -7.046875 C 3.125 -9.441406 2.546875 -12.28125 2.546875 -15.5625 C 2.546875 -18.84375 3.125 -21.675781 4.28125 -24.0625 C 5.445312 -26.457031 7.054688 -28.300781 9.109375 -29.59375 C 11.160156 -30.894531 13.515625 -31.546875 16.171875 -31.546875 C 18.359375 -31.546875 20.34375 -31.113281 22.125 -30.25 C 23.90625 -29.394531 25.382812 -28.207031 26.5625 -26.6875 C 27.75 -25.164062 28.535156 -23.398438 28.921875 -21.390625 Z M 25.03125 -21.390625 "/></g></g></g><g fill="#737373" fill-opacity="1"><g transform="translate(664.006397, 234.39379)"><g/></g></g><g fill="#737373" fill-opacity="1"><g transform="translate(686.138787, 234.39379)"><g><path d="M 3.765625 0 L 3.765625 -31.109375 L 14.28125 -31.109375 C 16.71875 -31.109375 18.710938 -30.671875 20.265625 -29.796875 C 21.828125 -28.921875 22.984375 -27.738281 23.734375 -26.25 C 24.484375 -24.757812 24.859375 -23.097656 24.859375 -21.265625 C 24.859375 -19.429688 24.484375 -17.765625 23.734375 -16.265625 C 22.992188 -14.765625 21.847656 -13.570312 20.296875 -12.6875 C 18.742188 -11.800781 16.757812 -11.359375 14.34375 -11.359375 L 7.53125 -11.359375 L 7.53125 0 Z M 7.53125 -14.703125 L 14.21875 -14.703125 C 16.71875 -14.703125 18.492188 -15.328125 19.546875 -16.578125 C 20.609375 -17.835938 21.140625 -19.398438 21.140625 -21.265625 C 21.140625 -23.140625 20.609375 -24.691406 19.546875 -25.921875 C 18.484375 -27.148438 16.6875 -27.765625 14.15625 -27.765625 L 7.53125 -27.765625 Z M 7.53125 -14.703125 "/></g></g></g><g fill="#737373" fill-opacity="1"><g transform="translate(723.404042, 234.39379)"><g><path d="M 3.765625 0 L 3.765625 -31.109375 L 14.28125 -31.109375 C 16.707031 -31.109375 18.703125 -30.695312 20.265625 -29.875 C 21.828125 -29.050781 22.984375 -27.921875 23.734375 -26.484375 C 24.484375 -25.046875 24.859375 -23.410156 24.859375 -21.578125 C 24.859375 -19.503906 24.382812 -17.703125 23.4375 -16.171875 C 22.488281 -14.640625 21.019531 -13.535156 19.03125 -12.859375 L 26.0625 0 L 21.6875 0 L 15.125 -12.171875 C 14.875 -12.160156 14.613281 -12.15625 14.34375 -12.15625 L 7.53125 -12.15625 L 7.53125 0 Z M 7.53125 -15.5625 L 14.21875 -15.5625 C 16.707031 -15.5625 18.484375 -16.097656 19.546875 -17.171875 C 20.609375 -18.242188 21.140625 -19.710938 21.140625 -21.578125 C 21.140625 -23.453125 20.601562 -24.953125 19.53125 -26.078125 C 18.46875 -27.203125 16.675781 -27.765625 14.15625 -27.765625 L 7.53125 -27.765625 Z M 7.53125 -15.5625 "/></g></g></g><g fill="#737373" fill-opacity="1"><g transform="translate(760.851636, 234.39379)"><g><path d="M 30.015625 -15.5625 C 30.015625 -12.28125 29.421875 -9.441406 28.234375 -7.046875 C 27.054688 -4.660156 25.429688 -2.816406 23.359375 -1.515625 C 21.296875 -0.222656 18.9375 0.421875 16.28125 0.421875 C 13.632812 0.421875 11.273438 -0.222656 9.203125 -1.515625 C 7.140625 -2.816406 5.515625 -4.660156 4.328125 -7.046875 C 3.140625 -9.441406 2.546875 -12.28125 2.546875 -15.5625 C 2.546875 -18.84375 3.140625 -21.675781 4.328125 -24.0625 C 5.515625 -26.457031 7.140625 -28.300781 9.203125 -29.59375 C 11.273438 -30.894531 13.632812 -31.546875 16.28125 -31.546875 C 18.9375 -31.546875 21.296875 -30.894531 23.359375 -29.59375 C 25.429688 -28.300781 27.054688 -26.457031 28.234375 -24.0625 C 29.421875 -21.675781 30.015625 -18.84375 30.015625 -15.5625 Z M 26.375 -15.5625 C 26.375 -18.25 25.925781 -20.519531 25.03125 -22.375 C 24.132812 -24.226562 22.921875 -25.628906 21.390625 -26.578125 C 19.867188 -27.535156 18.164062 -28.015625 16.28125 -28.015625 C 14.394531 -28.015625 12.691406 -27.535156 11.171875 -26.578125 C 9.648438 -25.628906 8.441406 -24.226562 7.546875 -22.375 C 6.648438 -20.519531 6.203125 -18.25 6.203125 -15.5625 C 6.203125 -12.863281 6.648438 -10.585938 7.546875 -8.734375 C 8.441406 -6.878906 9.648438 -5.472656 11.171875 -4.515625 C 12.691406 -3.566406 14.394531 -3.09375 16.28125 -3.09375 C 18.164062 -3.09375 19.867188 -3.566406 21.390625 -4.515625 C 22.921875 -5.472656 24.132812 -6.878906 25.03125 -8.734375 C 25.925781 -10.585938 26.375 -12.863281 26.375 -15.5625 Z M 26.375 -15.5625 "/></g></g></g><g fill="#737373" fill-opacity="1"><g transform="translate(803.525849, 234.39379)"><g><path d="M 15.671875 -31.109375 L 19.453125 -31.109375 L 19.453125 -8.875 C 19.453125 -5.882812 18.644531 -3.585938 17.03125 -1.984375 C 15.425781 -0.378906 13.273438 0.421875 10.578125 0.421875 C 8.867188 0.421875 7.351562 0.113281 6.03125 -0.5 C 4.707031 -1.125 3.664062 -2.015625 2.90625 -3.171875 C 2.144531 -4.328125 1.765625 -5.703125 1.765625 -7.296875 L 5.46875 -7.296875 C 5.46875 -5.972656 5.945312 -4.910156 6.90625 -4.109375 C 7.875 -3.316406 9.097656 -2.921875 10.578125 -2.921875 C 12.203125 -2.921875 13.457031 -3.425781 14.34375 -4.4375 C 15.226562 -5.457031 15.671875 -6.9375 15.671875 -8.875 Z M 15.671875 -31.109375 "/></g></g></g><g fill="#737373" fill-opacity="1"><g transform="translate(836.840764, 234.39379)"><g><path d="M 3.765625 0 L 3.765625 -31.109375 L 22.546875 -31.109375 L 22.546875 -27.765625 L 7.53125 -27.765625 L 7.53125 -17.265625 L 21.578125 -17.265625 L 21.578125 -13.921875 L 7.53125 -13.921875 L 7.53125 -3.34375 L 22.78125 -3.34375 L 22.78125 0 Z M 3.765625 0 "/></g></g></g><g fill="#737373" fill-opacity="1"><g transform="translate(872.525888, 234.39379)"><g><path d="M 28.796875 -21.390625 L 25.03125 -21.390625 C 24.726562 -22.828125 24.144531 -24.035156 23.28125 -25.015625 C 22.425781 -26.003906 21.390625 -26.75 20.171875 -27.25 C 18.960938 -27.757812 17.664062 -28.015625 16.28125 -28.015625 C 14.394531 -28.015625 12.691406 -27.535156 11.171875 -26.578125 C 9.648438 -25.628906 8.441406 -24.226562 7.546875 -22.375 C 6.648438 -20.519531 6.203125 -18.25 6.203125 -15.5625 C 6.203125 -12.863281 6.648438 -10.585938 7.546875 -8.734375 C 8.441406 -6.878906 9.648438 -5.472656 11.171875 -4.515625 C 12.691406 -3.566406 14.394531 -3.09375 16.28125 -3.09375 C 17.664062 -3.09375 18.960938 -3.347656 20.171875 -3.859375 C 21.390625 -4.367188 22.425781 -5.113281 23.28125 -6.09375 C 24.144531 -7.070312 24.726562 -8.28125 25.03125 -9.71875 L 28.796875 -9.71875 C 28.421875 -7.59375 27.640625 -5.769531 26.453125 -4.25 C 25.265625 -2.738281 23.796875 -1.582031 22.046875 -0.78125 C 20.296875 0.0195312 18.375 0.421875 16.28125 0.421875 C 13.632812 0.421875 11.273438 -0.222656 9.203125 -1.515625 C 7.140625 -2.816406 5.515625 -4.660156 4.328125 -7.046875 C 3.140625 -9.441406 2.546875 -12.28125 2.546875 -15.5625 C 2.546875 -18.84375 3.140625 -21.675781 4.328125 -24.0625 C 5.515625 -26.457031 7.140625 -28.300781 9.203125 -29.59375 C 11.273438 -30.894531 13.632812 -31.546875 16.28125 -31.546875 C 18.375 -31.546875 20.296875 -31.140625 22.046875 -30.328125 C 23.796875 -29.523438 25.265625 -28.363281 26.453125 -26.84375 C 27.640625 -25.332031 28.421875 -23.515625 28.796875 -21.390625 Z M 28.796875 -21.390625 "/></g></g></g><g fill="#737373" fill-opacity="1"><g transform="translate(913.741506, 234.39379)"><g><path d="M 2.0625 -27.765625 L 2.0625 -31.109375 L 25.40625 -31.109375 L 25.40625 -27.765625 L 15.625 -27.765625 L 15.625 0 L 11.84375 0 L 11.84375 -27.765625 Z M 2.0625 -27.765625 "/></g></g></g><path stroke-linecap="round" transform="matrix(0, 0.75, -0.75, 0, 511.249784, 40.14229)" fill="none" stroke-linejoin="miter" d="M 1.497781 1.499712 L 279.409267 1.499712 " stroke="#000000" stroke-width="3" stroke-opacity="1" stroke-miterlimit="4"/><g fill="#737373" fill-opacity="1"><g transform="translate(542.000477, 85.856146)"><g><path d="M 5.046875 0 L 1.09375 0 L 12.515625 -31.109375 L 16.40625 -31.109375 L 27.828125 0 L 23.875 0 L 20.75 -8.8125 L 8.171875 -8.8125 Z M 9.359375 -12.15625 L 19.5625 -12.15625 L 14.578125 -26.1875 L 14.34375 -26.1875 Z M 9.359375 -12.15625 "/></g></g></g><g fill="#737373" fill-opacity="1"><g transform="translate(581.028205, 85.856146)"><g><path d="M 28.4375 -31.109375 L 28.4375 0 L 24.796875 0 L 7.84375 -24.421875 L 7.53125 -24.421875 L 7.53125 0 L 3.765625 0 L 3.765625 -31.109375 L 7.40625 -31.109375 L 24.421875 -6.625 L 24.734375 -6.625 L 24.734375 -31.109375 Z M 28.4375 -31.109375 "/></g></g></g><g fill="#737373" fill-opacity="1"><g transform="translate(623.337755, 85.856146)"><g/></g></g><g fill="#737373" fill-opacity="1"><g transform="translate(645.470151, 85.856146)"><g><path d="M 30.015625 -15.5625 C 30.015625 -12.28125 29.421875 -9.441406 28.234375 -7.046875 C 27.054688 -4.660156 25.429688 -2.816406 23.359375 -1.515625 C 21.296875 -0.222656 18.9375 0.421875 16.28125 0.421875 C 13.632812 0.421875 11.273438 -0.222656 9.203125 -1.515625 C 7.140625 -2.816406 5.515625 -4.660156 4.328125 -7.046875 C 3.140625 -9.441406 2.546875 -12.28125 2.546875 -15.5625 C 2.546875 -18.84375 3.140625 -21.675781 4.328125 -24.0625 C 5.515625 -26.457031 7.140625 -28.300781 9.203125 -29.59375 C 11.273438 -30.894531 13.632812 -31.546875 16.28125 -31.546875 C 18.9375 -31.546875 21.296875 -30.894531 23.359375 -29.59375 C 25.429688 -28.300781 27.054688 -26.457031 28.234375 -24.0625 C 29.421875 -21.675781 30.015625 -18.84375 30.015625 -15.5625 Z M 26.375 -15.5625 C 26.375 -18.25 25.925781 -20.519531 25.03125 -22.375 C 24.132812 -24.226562 22.921875 -25.628906 21.390625 -26.578125 C 19.867188 -27.535156 18.164062 -28.015625 16.28125 -28.015625 C 14.394531 -28.015625 12.691406 -27.535156 11.171875 -26.578125 C 9.648438 -25.628906 8.441406 -24.226562 7.546875 -22.375 C 6.648438 -20.519531 6.203125 -18.25 6.203125 -15.5625 C 6.203125 -12.863281 6.648438 -10.585938 7.546875 -8.734375 C 8.441406 -6.878906 9.648438 -5.472656 11.171875 -4.515625 C 12.691406 -3.566406 14.394531 -3.09375 16.28125 -3.09375 C 18.164062 -3.09375 19.867188 -3.566406 21.390625 -4.515625 C 22.921875 -5.472656 24.132812 -6.878906 25.03125 -8.734375 C 25.925781 -10.585938 26.375 -12.863281 26.375 -15.5625 Z M 26.375 -15.5625 "/></g></g></g><g fill="#737373" fill-opacity="1"><g transform="translate(688.144353, 85.856146)"><g><path d="M 3.765625 0 L 3.765625 -31.109375 L 22.421875 -31.109375 L 22.421875 -27.765625 L 7.53125 -27.765625 L 7.53125 -17.265625 L 21.03125 -17.265625 L 21.03125 -13.921875 L 7.53125 -13.921875 L 7.53125 0 Z M 3.765625 0 "/></g></g></g><g fill="#737373" fill-opacity="1"><g transform="translate(723.343274, 85.856146)"><g><path d="M 3.765625 0 L 3.765625 -31.109375 L 22.421875 -31.109375 L 22.421875 -27.765625 L 7.53125 -27.765625 L 7.53125 -17.265625 L 21.03125 -17.265625 L 21.03125 -13.921875 L 7.53125 -13.921875 L 7.53125 0 Z M 3.765625 0 "/></g></g></g><g fill="#737373" fill-opacity="1"><g transform="translate(758.542196, 85.856146)"><g><path d="M 7.53125 -31.109375 L 7.53125 0 L 3.765625 0 L 3.765625 -31.109375 Z M 7.53125 -31.109375 "/></g></g></g><g fill="#737373" fill-opacity="1"><g transform="translate(779.945301, 85.856146)"><g><path d="M 28.796875 -21.390625 L 25.03125 -21.390625 C 24.726562 -22.828125 24.144531 -24.035156 23.28125 -25.015625 C 22.425781 -26.003906 21.390625 -26.75 20.171875 -27.25 C 18.960938 -27.757812 17.664062 -28.015625 16.28125 -28.015625 C 14.394531 -28.015625 12.691406 -27.535156 11.171875 -26.578125 C 9.648438 -25.628906 8.441406 -24.226562 7.546875 -22.375 C 6.648438 -20.519531 6.203125 -18.25 6.203125 -15.5625 C 6.203125 -12.863281 6.648438 -10.585938 7.546875 -8.734375 C 8.441406 -6.878906 9.648438 -5.472656 11.171875 -4.515625 C 12.691406 -3.566406 14.394531 -3.09375 16.28125 -3.09375 C 17.664062 -3.09375 18.960938 -3.347656 20.171875 -3.859375 C 21.390625 -4.367188 22.425781 -5.113281 23.28125 -6.09375 C 24.144531 -7.070312 24.726562 -8.28125 25.03125 -9.71875 L 28.796875 -9.71875 C 28.421875 -7.59375 27.640625 -5.769531 26.453125 -4.25 C 25.265625 -2.738281 23.796875 -1.582031 22.046875 -0.78125 C 20.296875 0.0195312 18.375 0.421875 16.28125 0.421875 C 13.632812 0.421875 11.273438 -0.222656 9.203125 -1.515625 C 7.140625 -2.816406 5.515625 -4.660156 4.328125 -7.046875 C 3.140625 -9.441406 2.546875 -12.28125 2.546875 -15.5625 C 2.546875 -18.84375 3.140625 -21.675781 4.328125 -24.0625 C 5.515625 -26.457031 7.140625 -28.300781 9.203125 -29.59375 C 11.273438 -30.894531 13.632812 -31.546875 16.28125 -31.546875 C 18.375 -31.546875 20.296875 -31.140625 22.046875 -30.328125 C 23.796875 -29.523438 25.265625 -28.363281 26.453125 -26.84375 C 27.640625 -25.332031 28.421875 -23.515625 28.796875 -21.390625 Z M 28.796875 -21.390625 "/></g></g></g><g fill="#737373" fill-opacity="1"><g transform="translate(821.160919, 85.856146)"><g><path d="M 7.53125 -31.109375 L 7.53125 0 L 3.765625 0 L 3.765625 -31.109375 Z M 7.53125 -31.109375 "/></g></g></g><g fill="#737373" fill-opacity="1"><g transform="translate(842.564024, 85.856146)"><g><path d="M 5.046875 0 L 1.09375 0 L 12.515625 -31.109375 L 16.40625 -31.109375 L 27.828125 0 L 23.875 0 L 20.75 -8.8125 L 8.171875 -8.8125 Z M 9.359375 -12.15625 L 19.5625 -12.15625 L 14.578125 -26.1875 L 14.34375 -26.1875 Z M 9.359375 -12.15625 "/></g></g></g><g fill="#737373" fill-opacity="1"><g transform="translate(881.59176, 85.856146)"><g><path d="M 3.765625 0 L 3.765625 -31.109375 L 7.53125 -31.109375 L 7.53125 -3.34375 L 22 -3.34375 L 22 0 Z M 3.765625 0 "/></g></g></g></svg>