<svg xmlns="http://www.w3.org/2000/svg" xmlns:xlink="http://www.w3.org/1999/xlink" width="500" zoomAndPan="magnify" viewBox="0 0 375 374.999991" height="500" preserveAspectRatio="xMidYMid meet" version="1.0"><defs><g/><clipPath id="8bba821ab7"><path d="M 37.5 161 L 139 161 L 139 211 L 37.5 211 Z M 37.5 161 " clip-rule="nonzero"/></clipPath><clipPath id="45e082e109"><path d="M 78 152.347656 L 148.5 152.347656 L 148.5 222.847656 L 78 222.847656 Z M 78 152.347656 " clip-rule="nonzero"/></clipPath></defs><g clip-path="url(#8bba821ab7)"><path fill="#edb641" d="M 80.027344 204.5625 C 84.507812 202.515625 88.402344 200.261719 91.589844 198.175781 C 97.6875 194.183594 105.480469 186.761719 105.90625 186.167969 L 103.050781 184.261719 L 100.578125 182.605469 L 108.40625 182.300781 L 110.925781 182.203125 L 111.609375 179.777344 L 113.738281 172.234375 L 116.449219 179.589844 L 117.320312 181.953125 L 119.835938 181.851562 L 127.664062 181.546875 L 121.511719 186.398438 L 119.53125 187.957031 L 120.402344 190.316406 L 123.113281 197.671875 L 116.601562 193.316406 L 114.507812 191.917969 L 112.527344 193.476562 L 106.375 198.324219 L 107.429688 194.578125 L 108.503906 190.785156 L 108.632812 190.3125 C 101.140625 195.921875 90.660156 201.328125 84.390625 203.324219 C 82.957031 203.78125 81.5 204.195312 80.027344 204.5625 Z M 65.292969 210.304688 C 76.398438 209.867188 89.628906 207.046875 102.652344 198.757812 L 100.140625 207.648438 L 114.675781 196.195312 L 130.054688 206.480469 L 123.65625 189.121094 L 138.1875 177.667969 L 119.699219 178.390625 L 113.296875 161.03125 L 108.273438 178.835938 L 89.785156 179.558594 L 100.488281 186.714844 C 93.441406 193.121094 75.773438 206.785156 52.363281 207.703125 C 47.628906 207.886719 42.660156 207.550781 37.5 206.527344 C 37.5 206.527344 49.152344 210.933594 65.292969 210.304688 " fill-opacity="1" fill-rule="nonzero"/></g><g clip-path="url(#45e082e109)"><path fill="#edb641" d="M 113.34375 152.410156 C 93.964844 152.410156 78.257812 168.121094 78.257812 187.496094 C 78.257812 191.167969 78.820312 194.703125 79.867188 198.027344 C 81.390625 197.269531 82.847656 196.480469 84.238281 195.683594 C 83.503906 193.078125 83.113281 190.332031 83.113281 187.496094 C 83.113281 170.800781 96.648438 157.269531 113.34375 157.269531 C 130.039062 157.269531 143.570312 170.800781 143.570312 187.496094 C 143.570312 204.191406 130.039062 217.726562 113.34375 217.726562 C 104.289062 217.726562 96.164062 213.742188 90.625 207.4375 C 89.015625 208.0625 87.382812 208.636719 85.734375 209.152344 C 92.15625 217.328125 102.136719 222.582031 113.34375 222.582031 C 132.722656 222.582031 148.429688 206.875 148.429688 187.496094 C 148.429688 168.121094 132.722656 152.410156 113.34375 152.410156 " fill-opacity="1" fill-rule="nonzero"/></g><path fill="#edb641" d="M 62.160156 182.8125 L 64.097656 188.769531 L 70.363281 188.769531 L 65.292969 192.453125 L 67.226562 198.414062 L 62.160156 194.730469 L 57.089844 198.414062 L 59.027344 192.453125 L 53.957031 188.769531 L 60.222656 188.769531 L 62.160156 182.8125 " fill-opacity="1" fill-rule="nonzero"/><path fill="#edb641" d="M 71.175781 163.167969 L 72.847656 168.3125 L 78.257812 168.3125 L 73.878906 171.492188 L 75.550781 176.636719 L 71.175781 173.457031 L 66.800781 176.636719 L 68.472656 171.492188 L 64.097656 168.3125 L 69.503906 168.3125 L 71.175781 163.167969 " fill-opacity="1" fill-rule="nonzero"/><path fill="#edb641" d="M 43.558594 194.484375 L 44.535156 197.484375 L 47.691406 197.484375 L 45.136719 199.339844 L 46.113281 202.34375 L 43.558594 200.488281 L 41.007812 202.34375 L 41.980469 199.339844 L 39.429688 197.484375 L 42.585938 197.484375 L 43.558594 194.484375 " fill-opacity="1" fill-rule="nonzero"/><g fill="#202235" fill-opacity="1"><g transform="translate(167.31824, 198.525733)"><g><path d="M 1.96875 0 L 1.96875 -22.6875 L 6.765625 -22.6875 L 6.765625 -3.953125 L 16.5 -3.953125 L 16.5 0 Z M 1.96875 0 "/></g></g></g><g fill="#202235" fill-opacity="1"><g transform="translate(187.298457, 198.525733)"><g><path d="M 6.765625 -22.6875 L 6.765625 0 L 1.96875 0 L 1.96875 -22.6875 Z M 6.765625 -22.6875 "/></g></g></g><g fill="#202235" fill-opacity="1"><g transform="translate(198.327747, 198.525733)"><g><path d="M 1.109375 -18.734375 L 1.109375 -22.6875 L 19.75 -22.6875 L 19.75 -18.734375 L 12.796875 -18.734375 L 12.796875 0 L 8.0625 0 L 8.0625 -18.734375 Z M 1.109375 -18.734375 "/></g></g></g><g fill="#202235" fill-opacity="1"><g transform="translate(221.454083, 198.525733)"><g><path d="M 1.96875 0 L 1.96875 -22.6875 L 17.265625 -22.6875 L 17.265625 -18.734375 L 6.765625 -18.734375 L 6.765625 -13.328125 L 16.484375 -13.328125 L 16.484375 -9.375 L 6.765625 -9.375 L 6.765625 -3.953125 L 17.3125 -3.953125 L 17.3125 0 Z M 1.96875 0 "/></g></g></g><g fill="#202235" fill-opacity="1"><g transform="translate(242.84119, 198.525733)"><g><path d="M 14.28125 -16.171875 C 14.195312 -17.054688 13.816406 -17.75 13.140625 -18.25 C 12.460938 -18.75 11.550781 -19 10.40625 -19 C 9.226562 -19 8.328125 -18.753906 7.703125 -18.265625 C 7.078125 -17.785156 6.765625 -17.179688 6.765625 -16.453125 C 6.742188 -15.640625 7.085938 -15.023438 7.796875 -14.609375 C 8.515625 -14.191406 9.363281 -13.867188 10.34375 -13.640625 L 12.390625 -13.15625 C 13.703125 -12.851562 14.867188 -12.421875 15.890625 -11.859375 C 16.921875 -11.304688 17.726562 -10.585938 18.3125 -9.703125 C 18.894531 -8.816406 19.1875 -7.742188 19.1875 -6.484375 C 19.1875 -4.410156 18.410156 -2.753906 16.859375 -1.515625 C 15.304688 -0.285156 13.144531 0.328125 10.375 0.328125 C 7.625 0.328125 5.425781 -0.300781 3.78125 -1.5625 C 2.144531 -2.820312 1.296875 -4.675781 1.234375 -7.125 L 5.890625 -7.125 C 5.960938 -5.988281 6.40625 -5.132812 7.21875 -4.5625 C 8.039062 -3.988281 9.078125 -3.703125 10.328125 -3.703125 C 11.546875 -3.703125 12.519531 -3.957031 13.25 -4.46875 C 13.976562 -4.988281 14.34375 -5.664062 14.34375 -6.5 C 14.34375 -7.257812 14.007812 -7.847656 13.34375 -8.265625 C 12.675781 -8.679688 11.726562 -9.035156 10.5 -9.328125 L 8.015625 -9.953125 C 6.109375 -10.410156 4.597656 -11.132812 3.484375 -12.125 C 2.378906 -13.125 1.832031 -14.460938 1.84375 -16.140625 C 1.832031 -17.503906 2.195312 -18.703125 2.9375 -19.734375 C 3.6875 -20.765625 4.707031 -21.566406 6 -22.140625 C 7.300781 -22.710938 8.78125 -23 10.4375 -23 C 12.125 -23 13.597656 -22.710938 14.859375 -22.140625 C 16.117188 -21.566406 17.097656 -20.765625 17.796875 -19.734375 C 18.492188 -18.703125 18.851562 -17.515625 18.875 -16.171875 Z M 14.28125 -16.171875 "/></g></g></g><g fill="#202235" fill-opacity="1"><g transform="translate(265.54657, 198.525733)"><g><path d="M 1.109375 -18.734375 L 1.109375 -22.6875 L 19.75 -22.6875 L 19.75 -18.734375 L 12.796875 -18.734375 L 12.796875 0 L 8.0625 0 L 8.0625 -18.734375 Z M 1.109375 -18.734375 "/></g></g></g><g fill="#202235" fill-opacity="1"><g transform="translate(288.672904, 198.525733)"><g><path d="M 5.890625 0 L 0.75 0 L 8.578125 -22.6875 L 14.765625 -22.6875 L 22.578125 0 L 17.4375 0 L 15.75 -5.171875 L 7.5625 -5.171875 Z M 8.78125 -8.921875 L 14.546875 -8.921875 L 11.75 -17.5 L 11.578125 -17.5 Z M 8.78125 -8.921875 "/></g></g></g><g fill="#202235" fill-opacity="1"><g transform="translate(314.280682, 198.525733)"><g><path d="M 1.96875 0 L 1.96875 -22.6875 L 10.921875 -22.6875 C 13.503906 -22.6875 15.503906 -22.015625 16.921875 -20.671875 C 18.347656 -19.328125 19.0625 -17.53125 19.0625 -15.28125 C 19.0625 -13.726562 18.710938 -12.398438 18.015625 -11.296875 C 17.328125 -10.203125 16.335938 -9.375 15.046875 -8.8125 L 19.875 0 L 14.578125 0 L 10.265625 -8.046875 L 6.765625 -8.046875 L 6.765625 0 Z M 6.765625 -11.90625 L 10.03125 -11.90625 C 12.75 -11.90625 14.109375 -13.03125 14.109375 -15.28125 C 14.109375 -17.601562 12.738281 -18.765625 10 -18.765625 L 6.765625 -18.765625 Z M 6.765625 -11.90625 "/></g></g></g><g fill="#737373" fill-opacity="1"><g transform="translate(167.31824, 218.326039)"><g><path d="M 1.25 0 L 1.25 -10.375 L 4.765625 -10.375 C 5.578125 -10.375 6.238281 -10.226562 6.75 -9.9375 C 7.269531 -9.644531 7.65625 -9.25 7.90625 -8.75 C 8.15625 -8.257812 8.28125 -7.707031 8.28125 -7.09375 C 8.28125 -6.476562 8.15625 -5.921875 7.90625 -5.421875 C 7.664062 -4.921875 7.285156 -4.523438 6.765625 -4.234375 C 6.253906 -3.941406 5.59375 -3.796875 4.78125 -3.796875 L 2.515625 -3.796875 L 2.515625 0 Z M 2.515625 -4.90625 L 4.734375 -4.90625 C 5.578125 -4.90625 6.171875 -5.113281 6.515625 -5.53125 C 6.867188 -5.945312 7.046875 -6.46875 7.046875 -7.09375 C 7.046875 -7.71875 6.867188 -8.234375 6.515625 -8.640625 C 6.160156 -9.054688 5.5625 -9.265625 4.71875 -9.265625 L 2.515625 -9.265625 Z M 2.515625 -4.90625 "/></g></g></g><g fill="#737373" fill-opacity="1"><g transform="translate(179.743235, 218.326039)"><g><path d="M 1.25 0 L 1.25 -10.375 L 4.765625 -10.375 C 5.578125 -10.375 6.238281 -10.234375 6.75 -9.953125 C 7.269531 -9.679688 7.65625 -9.304688 7.90625 -8.828125 C 8.15625 -8.347656 8.28125 -7.800781 8.28125 -7.1875 C 8.28125 -6.5 8.125 -5.898438 7.8125 -5.390625 C 7.5 -4.878906 7.007812 -4.507812 6.34375 -4.28125 L 8.6875 0 L 7.234375 0 L 5.046875 -4.0625 C 4.960938 -4.050781 4.875 -4.046875 4.78125 -4.046875 L 2.515625 -4.046875 L 2.515625 0 Z M 2.515625 -5.1875 L 4.734375 -5.1875 C 5.566406 -5.1875 6.160156 -5.363281 6.515625 -5.71875 C 6.867188 -6.082031 7.046875 -6.570312 7.046875 -7.1875 C 7.046875 -7.8125 6.867188 -8.3125 6.515625 -8.6875 C 6.160156 -9.070312 5.5625 -9.265625 4.71875 -9.265625 L 2.515625 -9.265625 Z M 2.515625 -5.1875 "/></g></g></g><g fill="#737373" fill-opacity="1"><g transform="translate(192.228999, 218.326039)"><g><path d="M 10.015625 -5.1875 C 10.015625 -4.09375 9.816406 -3.144531 9.421875 -2.34375 C 9.023438 -1.550781 8.484375 -0.9375 7.796875 -0.5 C 7.109375 -0.0703125 6.320312 0.140625 5.4375 0.140625 C 4.550781 0.140625 3.757812 -0.0703125 3.0625 -0.5 C 2.375 -0.9375 1.832031 -1.550781 1.4375 -2.34375 C 1.039062 -3.144531 0.84375 -4.09375 0.84375 -5.1875 C 0.84375 -6.28125 1.039062 -7.222656 1.4375 -8.015625 C 1.832031 -8.816406 2.375 -9.429688 3.0625 -9.859375 C 3.757812 -10.296875 4.550781 -10.515625 5.4375 -10.515625 C 6.320312 -10.515625 7.109375 -10.296875 7.796875 -9.859375 C 8.484375 -9.429688 9.023438 -8.816406 9.421875 -8.015625 C 9.816406 -7.222656 10.015625 -6.28125 10.015625 -5.1875 Z M 8.796875 -5.1875 C 8.796875 -6.082031 8.644531 -6.835938 8.34375 -7.453125 C 8.039062 -8.078125 7.632812 -8.546875 7.125 -8.859375 C 6.625 -9.179688 6.0625 -9.34375 5.4375 -9.34375 C 4.800781 -9.34375 4.226562 -9.179688 3.71875 -8.859375 C 3.21875 -8.546875 2.816406 -8.078125 2.515625 -7.453125 C 2.210938 -6.835938 2.0625 -6.082031 2.0625 -5.1875 C 2.0625 -4.289062 2.210938 -3.53125 2.515625 -2.90625 C 2.816406 -2.289062 3.21875 -1.820312 3.71875 -1.5 C 4.226562 -1.1875 4.800781 -1.03125 5.4375 -1.03125 C 6.0625 -1.03125 6.625 -1.1875 7.125 -1.5 C 7.632812 -1.820312 8.039062 -2.289062 8.34375 -2.90625 C 8.644531 -3.53125 8.796875 -4.289062 8.796875 -5.1875 Z M 8.796875 -5.1875 "/></g></g></g><g fill="#737373" fill-opacity="1"><g transform="translate(206.456977, 218.326039)"><g><path d="M 5.234375 -10.375 L 6.484375 -10.375 L 6.484375 -2.953125 C 6.484375 -1.960938 6.210938 -1.195312 5.671875 -0.65625 C 5.140625 -0.125 4.425781 0.140625 3.53125 0.140625 C 2.957031 0.140625 2.445312 0.0351562 2 -0.171875 C 1.5625 -0.378906 1.21875 -0.675781 0.96875 -1.0625 C 0.71875 -1.445312 0.59375 -1.90625 0.59375 -2.4375 L 1.828125 -2.4375 C 1.828125 -1.988281 1.984375 -1.628906 2.296875 -1.359375 C 2.617188 -1.097656 3.03125 -0.96875 3.53125 -0.96875 C 4.070312 -0.96875 4.488281 -1.132812 4.78125 -1.46875 C 5.082031 -1.8125 5.234375 -2.304688 5.234375 -2.953125 Z M 5.234375 -10.375 "/></g></g></g><g fill="#737373" fill-opacity="1"><g transform="translate(217.565192, 218.326039)"><g><path d="M 1.25 0 L 1.25 -10.375 L 7.515625 -10.375 L 7.515625 -9.265625 L 2.515625 -9.265625 L 2.515625 -5.75 L 7.1875 -5.75 L 7.1875 -4.640625 L 2.515625 -4.640625 L 2.515625 -1.109375 L 7.59375 -1.109375 L 7.59375 0 Z M 1.25 0 "/></g></g></g><g fill="#737373" fill-opacity="1"><g transform="translate(229.463476, 218.326039)"><g><path d="M 9.609375 -7.140625 L 8.34375 -7.140625 C 8.25 -7.617188 8.054688 -8.019531 7.765625 -8.34375 C 7.472656 -8.664062 7.125 -8.910156 6.71875 -9.078125 C 6.320312 -9.253906 5.894531 -9.34375 5.4375 -9.34375 C 4.800781 -9.34375 4.226562 -9.179688 3.71875 -8.859375 C 3.21875 -8.546875 2.816406 -8.078125 2.515625 -7.453125 C 2.210938 -6.835938 2.0625 -6.082031 2.0625 -5.1875 C 2.0625 -4.289062 2.210938 -3.53125 2.515625 -2.90625 C 2.816406 -2.289062 3.21875 -1.820312 3.71875 -1.5 C 4.226562 -1.1875 4.800781 -1.03125 5.4375 -1.03125 C 5.894531 -1.03125 6.320312 -1.113281 6.71875 -1.28125 C 7.125 -1.457031 7.472656 -1.707031 7.765625 -2.03125 C 8.054688 -2.351562 8.25 -2.757812 8.34375 -3.25 L 9.609375 -3.25 C 9.472656 -2.53125 9.207031 -1.914062 8.8125 -1.40625 C 8.425781 -0.90625 7.9375 -0.519531 7.34375 -0.25 C 6.757812 0.0078125 6.125 0.140625 5.4375 0.140625 C 4.550781 0.140625 3.757812 -0.0703125 3.0625 -0.5 C 2.375 -0.9375 1.832031 -1.550781 1.4375 -2.34375 C 1.039062 -3.144531 0.84375 -4.09375 0.84375 -5.1875 C 0.84375 -6.28125 1.039062 -7.222656 1.4375 -8.015625 C 1.832031 -8.816406 2.375 -9.429688 3.0625 -9.859375 C 3.757812 -10.296875 4.550781 -10.515625 5.4375 -10.515625 C 6.125 -10.515625 6.757812 -10.378906 7.34375 -10.109375 C 7.9375 -9.847656 8.425781 -9.460938 8.8125 -8.953125 C 9.207031 -8.453125 9.472656 -7.847656 9.609375 -7.140625 Z M 9.609375 -7.140625 "/></g></g></g><g fill="#737373" fill-opacity="1"><g transform="translate(243.205254, 218.326039)"><g><path d="M 0.6875 -9.265625 L 0.6875 -10.375 L 8.46875 -10.375 L 8.46875 -9.265625 L 5.203125 -9.265625 L 5.203125 0 L 3.953125 0 L 3.953125 -9.265625 Z M 0.6875 -9.265625 "/></g></g></g><path stroke-linecap="round" transform="matrix(0, 0.75, -0.75, 0, 157.885233, 152.349511)" fill="none" stroke-linejoin="miter" d="M 0.497527 0.498018 L 93.2267 0.498018 " stroke="#000000" stroke-width="1" stroke-opacity="1" stroke-miterlimit="4"/><g fill="#737373" fill-opacity="1"><g transform="translate(167.31824, 164.823755)"><g><path d="M 1.6875 0 L 0.359375 0 L 4.171875 -10.375 L 5.46875 -10.375 L 9.28125 0 L 7.96875 0 L 6.921875 -2.9375 L 2.71875 -2.9375 Z M 3.125 -4.046875 L 6.53125 -4.046875 L 4.859375 -8.734375 L 4.78125 -8.734375 Z M 3.125 -4.046875 "/></g></g></g><g fill="#737373" fill-opacity="1"><g transform="translate(180.330718, 164.823755)"><g><path d="M 9.484375 -10.375 L 9.484375 0 L 8.265625 0 L 2.609375 -8.140625 L 2.515625 -8.140625 L 2.515625 0 L 1.25 0 L 1.25 -10.375 L 2.46875 -10.375 L 8.140625 -2.203125 L 8.25 -2.203125 L 8.25 -10.375 Z M 9.484375 -10.375 "/></g></g></g><g fill="#737373" fill-opacity="1"><g transform="translate(194.437136, 164.823755)"><g/></g></g><g fill="#737373" fill-opacity="1"><g transform="translate(201.81784, 164.823755)"><g><path d="M 10.015625 -5.1875 C 10.015625 -4.09375 9.816406 -3.144531 9.421875 -2.34375 C 9.023438 -1.550781 8.484375 -0.9375 7.796875 -0.5 C 7.109375 -0.0703125 6.320312 0.140625 5.4375 0.140625 C 4.550781 0.140625 3.757812 -0.0703125 3.0625 -0.5 C 2.375 -0.9375 1.832031 -1.550781 1.4375 -2.34375 C 1.039062 -3.144531 0.84375 -4.09375 0.84375 -5.1875 C 0.84375 -6.28125 1.039062 -7.222656 1.4375 -8.015625 C 1.832031 -8.816406 2.375 -9.429688 3.0625 -9.859375 C 3.757812 -10.296875 4.550781 -10.515625 5.4375 -10.515625 C 6.320312 -10.515625 7.109375 -10.296875 7.796875 -9.859375 C 8.484375 -9.429688 9.023438 -8.816406 9.421875 -8.015625 C 9.816406 -7.222656 10.015625 -6.28125 10.015625 -5.1875 Z M 8.796875 -5.1875 C 8.796875 -6.082031 8.644531 -6.835938 8.34375 -7.453125 C 8.039062 -8.078125 7.632812 -8.546875 7.125 -8.859375 C 6.625 -9.179688 6.0625 -9.34375 5.4375 -9.34375 C 4.800781 -9.34375 4.226562 -9.179688 3.71875 -8.859375 C 3.21875 -8.546875 2.816406 -8.078125 2.515625 -7.453125 C 2.210938 -6.835938 2.0625 -6.082031 2.0625 -5.1875 C 2.0625 -4.289062 2.210938 -3.53125 2.515625 -2.90625 C 2.816406 -2.289062 3.21875 -1.820312 3.71875 -1.5 C 4.226562 -1.1875 4.800781 -1.03125 5.4375 -1.03125 C 6.0625 -1.03125 6.625 -1.1875 7.125 -1.5 C 7.632812 -1.820312 8.039062 -2.289062 8.34375 -2.90625 C 8.644531 -3.53125 8.796875 -4.289062 8.796875 -5.1875 Z M 8.796875 -5.1875 "/></g></g></g><g fill="#737373" fill-opacity="1"><g transform="translate(216.045817, 164.823755)"><g><path d="M 1.25 0 L 1.25 -10.375 L 7.484375 -10.375 L 7.484375 -9.265625 L 2.515625 -9.265625 L 2.515625 -5.75 L 7.015625 -5.75 L 7.015625 -4.640625 L 2.515625 -4.640625 L 2.515625 0 Z M 1.25 0 "/></g></g></g><g fill="#737373" fill-opacity="1"><g transform="translate(227.78203, 164.823755)"><g><path d="M 1.25 0 L 1.25 -10.375 L 7.484375 -10.375 L 7.484375 -9.265625 L 2.515625 -9.265625 L 2.515625 -5.75 L 7.015625 -5.75 L 7.015625 -4.640625 L 2.515625 -4.640625 L 2.515625 0 Z M 1.25 0 "/></g></g></g><g fill="#737373" fill-opacity="1"><g transform="translate(239.518243, 164.823755)"><g><path d="M 2.515625 -10.375 L 2.515625 0 L 1.25 0 L 1.25 -10.375 Z M 2.515625 -10.375 "/></g></g></g><g fill="#737373" fill-opacity="1"><g transform="translate(246.655854, 164.823755)"><g><path d="M 9.609375 -7.140625 L 8.34375 -7.140625 C 8.25 -7.617188 8.054688 -8.019531 7.765625 -8.34375 C 7.472656 -8.664062 7.125 -8.910156 6.71875 -9.078125 C 6.320312 -9.253906 5.894531 -9.34375 5.4375 -9.34375 C 4.800781 -9.34375 4.226562 -9.179688 3.71875 -8.859375 C 3.21875 -8.546875 2.816406 -8.078125 2.515625 -7.453125 C 2.210938 -6.835938 2.0625 -6.082031 2.0625 -5.1875 C 2.0625 -4.289062 2.210938 -3.53125 2.515625 -2.90625 C 2.816406 -2.289062 3.21875 -1.820312 3.71875 -1.5 C 4.226562 -1.1875 4.800781 -1.03125 5.4375 -1.03125 C 5.894531 -1.03125 6.320312 -1.113281 6.71875 -1.28125 C 7.125 -1.457031 7.472656 -1.707031 7.765625 -2.03125 C 8.054688 -2.351562 8.25 -2.757812 8.34375 -3.25 L 9.609375 -3.25 C 9.472656 -2.53125 9.207031 -1.914062 8.8125 -1.40625 C 8.425781 -0.90625 7.9375 -0.519531 7.34375 -0.25 C 6.757812 0.0078125 6.125 0.140625 5.4375 0.140625 C 4.550781 0.140625 3.757812 -0.0703125 3.0625 -0.5 C 2.375 -0.9375 1.832031 -1.550781 1.4375 -2.34375 C 1.039062 -3.144531 0.84375 -4.09375 0.84375 -5.1875 C 0.84375 -6.28125 1.039062 -7.222656 1.4375 -8.015625 C 1.832031 -8.816406 2.375 -9.429688 3.0625 -9.859375 C 3.757812 -10.296875 4.550781 -10.515625 5.4375 -10.515625 C 6.125 -10.515625 6.757812 -10.378906 7.34375 -10.109375 C 7.9375 -9.847656 8.425781 -9.460938 8.8125 -8.953125 C 9.207031 -8.453125 9.472656 -7.847656 9.609375 -7.140625 Z M 9.609375 -7.140625 "/></g></g></g><g fill="#737373" fill-opacity="1"><g transform="translate(260.397632, 164.823755)"><g><path d="M 2.515625 -10.375 L 2.515625 0 L 1.25 0 L 1.25 -10.375 Z M 2.515625 -10.375 "/></g></g></g><g fill="#737373" fill-opacity="1"><g transform="translate(267.535243, 164.823755)"><g><path d="M 1.6875 0 L 0.359375 0 L 4.171875 -10.375 L 5.46875 -10.375 L 9.28125 0 L 7.96875 0 L 6.921875 -2.9375 L 2.71875 -2.9375 Z M 3.125 -4.046875 L 6.53125 -4.046875 L 4.859375 -8.734375 L 4.78125 -8.734375 Z M 3.125 -4.046875 "/></g></g></g><g fill="#737373" fill-opacity="1"><g transform="translate(280.547724, 164.823755)"><g><path d="M 1.25 0 L 1.25 -10.375 L 2.515625 -10.375 L 2.515625 -1.109375 L 7.328125 -1.109375 L 7.328125 0 Z M 1.25 0 "/></g></g></g></svg>