<svg xmlns="http://www.w3.org/2000/svg" xmlns:xlink="http://www.w3.org/1999/xlink" width="500" zoomAndPan="magnify" viewBox="0 0 375 374.999991" height="500" preserveAspectRatio="xMidYMid meet" version="1.0"><rect x="-37.5" width="450" fill="#ffffff" y="-37.499999" height="449.999989" fill-opacity="1"/><rect x="-37.5" width="450" fill="#18639d" y="-37.499999" height="449.999989" fill-opacity="1"/><path fill="#ffffff" d="M 46.898438 180.785156 L 41.363281 180.785156 L 41.363281 198.539062 L 36.21875 198.539062 L 36.21875 180.785156 L 30.621094 180.785156 L 30.621094 176.398438 L 46.898438 176.398438 Z M 46.898438 180.785156 " fill-opacity="1" fill-rule="nonzero"/><path fill="#ffffff" d="M 54.710938 180.691406 L 54.710938 185.175781 L 63.074219 185.175781 L 63.074219 189.339844 L 54.710938 189.339844 L 54.710938 194.246094 L 65.328125 194.246094 L 65.328125 198.539062 L 49.566406 198.539062 L 49.566406 176.398438 L 65.328125 176.398438 L 65.328125 180.691406 Z M 54.710938 180.691406 " fill-opacity="1" fill-rule="nonzero"/><path fill="#ffffff" d="M 82.054688 194.148438 L 82.054688 198.539062 L 68.027344 198.539062 L 68.027344 176.398438 L 73.175781 176.398438 L 73.175781 194.148438 Z M 82.054688 194.148438 " fill-opacity="1" fill-rule="nonzero"/><path fill="#ffffff" d="M 89.894531 180.691406 L 89.894531 185.175781 L 98.257812 185.175781 L 98.257812 189.339844 L 89.894531 189.339844 L 89.894531 194.246094 L 100.507812 194.246094 L 100.507812 198.539062 L 84.746094 198.539062 L 84.746094 176.398438 L 100.507812 176.398438 L 100.507812 180.691406 Z M 89.894531 180.691406 " fill-opacity="1" fill-rule="nonzero"/><path fill="#ffffff" d="M 116.433594 198.539062 L 112.894531 198.539062 L 107.523438 180.496094 L 107.460938 180.496094 L 107.460938 198.539062 L 103.117188 198.539062 L 103.117188 176.398438 L 111.191406 176.398438 L 115.050781 189.664062 L 119.105469 176.398438 L 127.179688 176.398438 L 127.179688 198.539062 L 122.03125 198.539062 L 122.03125 180.496094 L 121.902344 180.496094 Z M 116.433594 198.539062 " fill-opacity="1" fill-rule="nonzero"/><path fill="#ffffff" d="M 135.015625 180.691406 L 135.015625 185.175781 L 143.378906 185.175781 L 143.378906 189.339844 L 135.015625 189.339844 L 135.015625 194.246094 L 145.632812 194.246094 L 145.632812 198.539062 L 129.871094 198.539062 L 129.871094 176.398438 L 145.632812 176.398438 L 145.632812 180.691406 Z M 135.015625 180.691406 " fill-opacity="1" fill-rule="nonzero"/><path fill="#ffffff" d="M 164.617188 180.785156 L 159.085938 180.785156 L 159.085938 198.539062 L 153.9375 198.539062 L 153.9375 180.785156 L 148.34375 180.785156 L 148.34375 176.398438 L 164.617188 176.398438 Z M 164.617188 180.785156 " fill-opacity="1" fill-rule="nonzero"/><path fill="#ffffff" d="M 172.4375 198.539062 L 167.289062 198.539062 L 167.289062 176.398438 L 176.585938 176.398438 C 178.546875 176.398438 180.542969 176.429688 182.246094 177.527344 C 184.046875 178.722656 185.046875 180.882812 185.046875 183.046875 C 185.046875 185.5625 183.597656 187.886719 181.21875 188.757812 L 185.300781 198.539062 L 179.578125 198.539062 L 176.199219 189.792969 L 172.4375 189.792969 Z M 172.4375 185.984375 L 175.265625 185.984375 C 176.328125 185.984375 177.484375 186.082031 178.417969 185.53125 C 179.253906 185.015625 179.707031 183.984375 179.707031 183.015625 C 179.707031 182.144531 179.191406 181.207031 178.449219 180.753906 C 177.582031 180.207031 176.101562 180.335938 175.136719 180.335938 L 172.4375 180.335938 Z M 172.4375 185.984375 " fill-opacity="1" fill-rule="nonzero"/><path fill="#ffffff" d="M 198.132812 189.210938 L 198.132812 198.539062 L 192.988281 198.539062 L 192.988281 189.210938 L 186.007812 176.398438 L 191.992188 176.398438 L 196.234375 184.820312 L 200.417969 176.398438 L 205.050781 176.398438 Z M 198.132812 189.210938 " fill-opacity="1" fill-rule="nonzero"/><path fill="#ffffff" d="M 226.789062 192.019531 C 227.691406 195.085938 230.234375 196.507812 233.320312 196.507812 C 234.640625 196.507812 236.246094 196.214844 237.277344 195.410156 C 238.113281 194.761719 238.628906 193.632812 238.628906 192.566406 C 238.628906 190.339844 236.792969 189.4375 234.863281 188.953125 L 231.199219 188.050781 C 229.71875 187.695312 228.367188 187.339844 227.207031 186.273438 C 226.050781 185.242188 225.40625 183.722656 225.40625 182.175781 C 225.40625 177.914062 229.074219 176.074219 232.902344 176.074219 C 236.601562 176.074219 239.5625 177.914062 240.75 181.496094 L 238.242188 182.175781 C 237.761719 179.753906 235.1875 178.269531 232.839844 178.269531 C 230.746094 178.269531 228.109375 179.367188 228.109375 181.789062 C 228.109375 184.273438 230.039062 184.820312 232.097656 185.304688 L 235.410156 186.113281 C 236.859375 186.433594 238.304688 186.855469 239.433594 187.824219 C 240.816406 188.953125 241.492188 190.46875 241.492188 192.210938 C 241.492188 194.214844 240.621094 196.023438 239.015625 197.25 C 237.40625 198.476562 235.25 198.863281 233.257812 198.863281 C 228.753906 198.863281 225.792969 196.859375 224.3125 192.566406 Z M 226.789062 192.019531 " fill-opacity="1" fill-rule="nonzero"/><path fill="#ffffff" d="M 245.179688 198.539062 L 245.179688 176.398438 L 252.578125 176.398438 C 254.476562 176.398438 256.375 176.625 257.886719 177.882812 C 259.332031 179.109375 260.136719 181.175781 260.136719 183.046875 C 260.136719 184.757812 259.429688 186.53125 258.207031 187.726562 C 256.726562 189.179688 254.894531 189.535156 252.898438 189.535156 L 247.945312 189.535156 L 247.945312 198.539062 Z M 252.609375 187.242188 C 253.929688 187.242188 255.085938 187.113281 256.117188 186.113281 C 256.921875 185.304688 257.339844 184.175781 257.339844 183.046875 C 257.339844 181.722656 256.855469 180.398438 255.796875 179.558594 C 254.863281 178.816406 253.929688 178.722656 252.804688 178.722656 L 247.945312 178.722656 L 247.945312 187.242188 Z M 252.609375 187.242188 " fill-opacity="1" fill-rule="nonzero"/><path fill="#ffffff" d="M 263.78125 187.628906 C 263.78125 182.109375 266.484375 176.074219 272.851562 176.074219 C 279.058594 176.074219 281.921875 181.753906 281.921875 187.210938 C 281.921875 192.632812 279.15625 198.863281 272.882812 198.863281 C 266.546875 198.863281 263.78125 193.179688 263.78125 187.628906 Z M 279.027344 187.371094 C 279.027344 185.402344 278.707031 183.109375 277.710938 181.335938 C 276.710938 179.59375 275.007812 178.367188 272.949219 178.367188 C 268.027344 178.367188 266.675781 183.691406 266.675781 187.660156 C 266.675781 191.46875 268.21875 196.601562 272.882812 196.601562 C 277.613281 196.601562 279.027344 191.179688 279.027344 187.371094 Z M 279.027344 187.371094 " fill-opacity="1" fill-rule="nonzero"/><path fill="#ffffff" d="M 298.617188 198.539062 L 294.53125 188.953125 L 288.421875 188.953125 L 288.421875 198.539062 L 285.652344 198.539062 L 285.652344 176.398438 L 293.921875 176.398438 C 295.722656 176.398438 297.460938 176.625 298.941406 177.753906 C 300.417969 178.882812 301.289062 180.722656 301.289062 182.59375 C 301.289062 185.210938 299.742188 187.566406 297.171875 188.273438 L 301.511719 198.539062 Z M 293.601562 186.695312 C 295.078125 186.695312 296.300781 186.597656 297.394531 185.46875 C 298.167969 184.691406 298.523438 183.628906 298.523438 182.5625 C 298.523438 181.269531 298.039062 180.207031 296.976562 179.496094 C 296.011719 178.816406 295.078125 178.785156 293.921875 178.785156 L 288.421875 178.785156 L 288.421875 186.695312 Z M 293.601562 186.695312 " fill-opacity="1" fill-rule="nonzero"/><path fill="#ffffff" d="M 314.183594 198.539062 L 311.417969 198.539062 L 311.417969 178.816406 L 305.144531 178.816406 L 305.144531 176.398438 L 320.457031 176.398438 L 320.457031 178.816406 L 314.183594 178.816406 Z M 314.183594 198.539062 " fill-opacity="1" fill-rule="nonzero"/><path fill="#ffffff" d="M 326.660156 192.019531 C 327.558594 195.085938 330.101562 196.507812 333.191406 196.507812 C 334.507812 196.507812 336.117188 196.214844 337.148438 195.410156 C 337.984375 194.761719 338.496094 193.632812 338.496094 192.566406 C 338.496094 190.339844 336.664062 189.4375 334.734375 188.953125 L 331.066406 188.050781 C 329.585938 187.695312 328.234375 187.339844 327.078125 186.273438 C 325.921875 185.242188 325.277344 183.722656 325.277344 182.175781 C 325.277344 177.914062 328.945312 176.074219 332.769531 176.074219 C 336.472656 176.074219 339.429688 177.914062 340.621094 181.496094 L 338.109375 182.175781 C 337.628906 179.753906 335.054688 178.269531 332.707031 178.269531 C 330.617188 178.269531 327.980469 179.367188 327.980469 181.789062 C 327.980469 184.273438 329.910156 184.820312 331.96875 185.304688 L 335.28125 186.113281 C 336.726562 186.433594 338.175781 186.855469 339.300781 187.824219 C 340.683594 188.953125 341.359375 190.46875 341.359375 192.210938 C 341.359375 194.214844 340.492188 196.023438 338.882812 197.25 C 337.273438 198.476562 335.121094 198.863281 333.125 198.863281 C 328.621094 198.863281 325.664062 196.859375 324.183594 192.566406 Z M 326.660156 192.019531 " fill-opacity="1" fill-rule="nonzero"/><path fill="#ffffff" d="M 214.207031 173.34375 L 215.140625 173.34375 L 215.140625 201.5625 L 214.207031 201.5625 Z M 214.207031 173.34375 " fill-opacity="1" fill-rule="nonzero"/><path fill="#ffffff" d="M 342.253906 176.527344 L 341.703125 176.527344 L 341.703125 178.300781 L 341.1875 178.300781 L 341.1875 176.527344 L 340.628906 176.527344 L 340.628906 176.089844 L 342.253906 176.089844 Z M 342.253906 176.527344 " fill-opacity="1" fill-rule="nonzero"/><path fill="#ffffff" d="M 344.015625 178.300781 L 343.664062 178.300781 L 343.125 176.496094 L 343.121094 176.496094 L 343.121094 178.300781 L 342.6875 178.300781 L 342.6875 176.089844 L 343.492188 176.089844 L 343.878906 177.414062 L 344.28125 176.089844 L 345.089844 176.089844 L 345.089844 178.300781 L 344.574219 178.300781 L 344.574219 176.496094 L 344.5625 176.496094 Z M 344.015625 178.300781 " fill-opacity="1" fill-rule="nonzero"/></svg>