
<?xml version="1.0" encoding="UTF-8"?>
<svg id="Layer_1"
  xmlns="http://www.w3.org/2000/svg" viewBox="0 0 1080 138.24379">
  <defs>
    <style>.cls-1{fill:#fff;}</style>
  </defs>
  <path class="cls-1" d="M66.56409,46.31454h-18.60571v59.49436H30.65097V46.31454H11.8295v-14.71083h54.73458v14.71083Z"/>
  <path class="cls-1" d="M92.84322,45.98997v15.03541h28.12338v13.95475h-28.12338v16.44251h35.69549v14.38626h-53.0029V31.6037h53.0029v14.38626h-35.69549Z"/>
  <path class="cls-1" d="M184.78638,91.09806v14.71083h-47.16247V31.6037h17.30742v59.49436h29.85506Z"/>
  <path class="cls-1" d="M211.14817,45.98997v15.03541h28.12338v13.95475h-28.12338v16.44251h35.69549v14.38626h-53.0029V31.6037h53.0029v14.38626h-35.69549Z"/>
  <path class="cls-1" d="M300.39902,105.8089h-11.8985l-18.06538-60.46807h-.21576v60.46807h-14.60389V31.6037h27.15154l12.98103,44.45895,13.6283-44.45895h27.15154V105.8089h-17.30742V45.34082h-.43151l-18.38995,60.46807Z"/>
  <path class="cls-1" d="M362.88737,45.98997v15.03541h28.12338v13.95475h-28.12338v16.44251h35.69549v14.38626h-53.0029V31.6037h53.0029v14.38626h-35.69549Z"/>
  <path class="cls-1" d="M462.43204,46.31454h-18.60571v59.49436h-17.30742V46.31454h-18.82146v-14.71083h54.73458v14.71083Z"/>
  <path class="cls-1" d="M488.71819,105.8089h-17.30742V31.6037h31.26029c6.59839,0,13.3056,.10694,19.03909,3.78606,6.05806,4.00181,9.41073,11.24935,9.41073,18.49689,0,8.43701-4.86859,16.22488-12.87221,19.14603l13.73712,32.77621h-19.25485l-11.35817-29.31473h-12.65458v29.31473Zm0-42.07813h9.51767c3.5703,0,7.46517,.32457,10.60208-1.51405,2.81234-1.73168,4.32638-5.19316,4.32638-8.43889,0-2.91928-1.73168-6.05619-4.21944-7.57211-2.91928-1.83862-7.89668-1.40523-11.14053-1.40523h-9.08616v18.93028Z"/>
  <path class="cls-1" d="M575.13568,74.54673v31.26216h-17.30742v-31.26216l-23.47242-42.94303h20.11975l14.27744,28.23219,14.06356-28.23219h15.57574l-23.25666,42.94303Z"/>
  <path class="cls-1" d="M671.50046,83.95746c3.02809,10.27751,11.57392,15.03728,21.95837,15.03728,4.4352,0,9.84412-.97372,13.3056-3.67912,2.81234-2.16319,4.54214-5.94925,4.54214-9.51767,0-7.46517-6.165-10.49327-12.65646-12.11613l-12.33001-3.02809c-4.97741-1.18947-9.51955-2.38082-13.41442-5.94925-3.893-3.46148-6.05619-8.54583-6.05619-13.73899,0-14.27744,12.33001-20.44433,25.20222-20.44433,12.4407,0,22.39176,6.16688,26.39545,18.17419l-8.43889,2.27013c-1.62099-8.11244-10.27563-13.08797-18.17232-13.08797-7.03178,0-15.90031,3.67724-15.90031,11.78968,0,8.33007,6.48958,10.16869,13.41254,11.79156l11.14241,2.70352c4.86671,1.08253,9.7353,2.48777,13.52136,5.73349,4.65096,3.78606,6.92297,8.8704,6.92297,14.71083,0,6.70721-2.92115,12.76527-8.33007,16.8759-5.40892,4.11063-12.65646,5.40892-19.36179,5.40892-15.14422,0-25.09716-6.70721-30.07269-21.09347l8.33007-1.8405Z"/>
  <path class="cls-1" d="M733.33882,105.8089V31.6037h24.87953c6.38264,0,12.7634,.75609,17.84774,4.97553,4.86859,4.11063,7.57211,11.03359,7.57211,17.30742,0,5.73349-2.37895,11.68274-6.48958,15.68455-4.97553,4.86859-11.14241,6.05806-17.84774,6.05806h-16.66015v30.17963h-9.30191Zm24.98834-37.86056c4.43332,0,8.3282-.43151,11.78968-3.78606,2.7054-2.70352,4.11063-6.48958,4.11063-10.27563,0-4.4352-1.62286-8.8704-5.19129-11.68274-3.13691-2.48777-6.2757-2.81234-10.05988-2.81234h-16.33557v28.55677h15.68643Z"/>
  <path class="cls-1" d="M795.8889,69.24663c0-18.49689,9.08616-38.72546,30.5042-38.72546,20.87584,0,30.5042,19.03909,30.5042,37.32023,0,18.17232-9.30379,39.05003-30.39726,39.05003-21.30923,0-30.61114-19.03909-30.61114-37.6448Zm51.2731-.8649c0-6.59839-1.08253-14.27932-4.4352-20.22857-3.35454-5.84043-9.08616-9.95106-16.00912-9.95106-16.55133,0-21.09347,17.84774-21.09347,31.15335,0,12.7634,5.19129,29.96387,20.87584,29.96387,15.90218,0,20.66196-18.17419,20.66196-30.93759Z"/>
  <path class="cls-1" d="M913.03814,105.8089l-13.73899-32.12707h-20.55127v32.12707h-9.30379V31.6037h27.80068c6.05806,0,11.8985,.75609,16.87403,4.54214,4.97553,3.78606,7.89668,9.95294,7.89668,16.22676,0,8.76159-5.19129,16.65827-13.84593,19.03722l14.60389,34.39907h-9.7353Zm-16.8759-39.69918c4.97553,0,9.08616-.32457,12.76527-4.11063,2.59471-2.59658,3.78606-6.165,3.78606-9.7353,0-4.32638-1.62286-7.89668-5.19316-10.27563-3.24573-2.27201-6.38264-2.38082-10.27563-2.38082h-18.49689v26.50239h17.41436Z"/>
  <path class="cls-1" d="M965.38168,105.8089h-9.30191V39.71614h-21.09347v-8.11244h51.48886v8.11244h-21.09347V105.8089Z"/>
  <path class="cls-1" d="M1007.33612,83.95746c3.02809,10.27751,11.57392,15.03728,21.95837,15.03728,4.4352,0,9.84412-.97372,13.3056-3.67912,2.81234-2.16319,4.54214-5.94925,4.54214-9.51767,0-7.46517-6.165-10.49327-12.65646-12.11613l-12.33001-3.02809c-4.97741-1.18947-9.51955-2.38082-13.41442-5.94925-3.893-3.46148-6.05619-8.54583-6.05619-13.73899,0-14.27744,12.33001-20.44433,25.20222-20.44433,12.4407,0,22.39176,6.16688,26.39545,18.17419l-8.43889,2.27013c-1.62099-8.11244-10.27563-13.08797-18.17232-13.08797-7.03178,0-15.90031,3.67724-15.90031,11.78968,0,8.33007,6.48958,10.16869,13.41254,11.79156l11.14241,2.70352c4.86671,1.08253,9.7353,2.48777,13.52136,5.73349,4.65096,3.78606,6.92297,8.8704,6.92297,14.71083,0,6.70721-2.92115,12.76527-8.33007,16.8759-5.40892,4.11063-12.65646,5.40892-19.36179,5.40892-15.14422,0-25.09716-6.70721-30.07269-21.09347l8.33007-1.8405Z"/>
  <rect id="bar" class="cls-1" x="629.17925" y="21.36581" width="3.13952" height="94.58128"/>
  <g>
    <path class="cls-1" d="M1059.77493,32.03585h-1.85844v5.94314h-1.72997v-5.94314h-1.87956v-1.4695h5.46797v1.4695Z"/>
    <path class="cls-1" d="M1065.70047,37.97898h-1.18792l-1.80564-6.04169h-.02112v6.04169h-1.45895v-7.41264h2.71198l1.29704,4.44019,1.36215-4.44019h2.71198v7.41264h-1.72821v-6.04169h-.044l-1.83732,6.04169Z"/>
  </g>
</svg>