<svg xmlns="http://www.w3.org/2000/svg" xmlns:xlink="http://www.w3.org/1999/xlink" width="500" zoomAndPan="magnify" viewBox="0 0 375 374.999991" height="500" preserveAspectRatio="xMidYMid meet" version="1.0"><defs><g/><clipPath id="bc61185b16"><path d="M 50.691406 61 L 300 61 L 300 184 L 50.691406 184 Z M 50.691406 61 " clip-rule="nonzero"/></clipPath><clipPath id="de53b00872"><path d="M 151 40.328125 L 324.441406 40.328125 L 324.441406 213.578125 L 151 213.578125 Z M 151 40.328125 " clip-rule="nonzero"/></clipPath></defs><rect x="-37.5" width="450" fill="#ffffff" y="-37.499999" height="449.999989" fill-opacity="1"/><rect x="-37.5" width="450" fill="#202020" y="-37.499999" height="449.999989" fill-opacity="1"/><g clip-path="url(#bc61185b16)"><path fill="#ffffff" d="M 155.640625 169.003906 C 166.699219 163.960938 176.304688 158.40625 184.171875 153.261719 C 199.21875 143.429688 218.449219 125.140625 219.507812 123.675781 L 212.457031 118.972656 L 206.355469 114.898438 L 225.679688 114.144531 L 231.886719 113.902344 L 233.574219 107.929688 L 238.828125 89.34375 L 245.519531 107.464844 L 247.667969 113.285156 L 253.878906 113.042969 L 273.199219 112.289062 L 258.011719 124.242188 L 253.128906 128.082031 L 255.28125 133.902344 L 261.96875 152.023438 L 245.894531 141.292969 L 240.730469 137.84375 L 235.847656 141.683594 L 220.660156 153.636719 L 223.265625 144.398438 L 225.910156 135.050781 L 226.238281 133.894531 C 207.746094 147.710938 181.878906 161.03125 166.410156 165.957031 C 162.867188 167.085938 159.273438 168.101562 155.640625 169.003906 Z M 119.273438 183.152344 C 146.683594 182.085938 179.335938 175.128906 211.46875 154.703125 L 205.277344 176.613281 L 241.140625 148.390625 L 279.101562 173.730469 L 263.304688 130.949219 L 299.167969 102.726562 L 253.542969 104.507812 L 237.746094 61.730469 L 225.34375 105.609375 L 179.71875 107.390625 L 206.132812 125.023438 C 188.746094 140.8125 145.140625 174.484375 87.367188 176.742188 C 75.691406 177.199219 63.425781 176.367188 50.691406 173.847656 C 50.691406 173.847656 79.445312 184.710938 119.273438 183.152344 " fill-opacity="1" fill-rule="nonzero"/></g><g clip-path="url(#de53b00872)"><path fill="#ffffff" d="M 237.855469 40.488281 C 190.035156 40.488281 151.269531 79.199219 151.269531 126.953125 C 151.269531 135.996094 152.664062 144.710938 155.242188 152.90625 C 159.007812 151.03125 162.605469 149.09375 166.027344 147.125 C 164.222656 140.707031 163.261719 133.941406 163.261719 126.953125 C 163.261719 85.8125 196.65625 52.457031 237.855469 52.457031 C 279.054688 52.457031 312.453125 85.8125 312.453125 126.953125 C 312.453125 168.09375 279.054688 201.445312 237.855469 201.445312 C 215.511719 201.445312 195.46875 191.632812 181.796875 176.089844 C 177.820312 177.636719 173.796875 179.042969 169.71875 180.3125 C 185.574219 200.46875 210.199219 213.417969 237.855469 213.417969 C 285.675781 213.417969 324.441406 174.703125 324.441406 126.953125 C 324.441406 79.199219 285.675781 40.488281 237.855469 40.488281 " fill-opacity="1" fill-rule="nonzero"/></g><path fill="#ffffff" d="M 111.546875 115.402344 L 116.324219 130.089844 L 131.789062 130.089844 L 119.277344 139.164062 L 124.054688 153.851562 L 111.546875 144.777344 L 99.035156 153.851562 L 103.8125 139.164062 L 91.304688 130.089844 L 106.769531 130.089844 L 111.546875 115.402344 " fill-opacity="1" fill-rule="nonzero"/><path fill="#ffffff" d="M 133.796875 66.996094 L 137.921875 79.675781 L 151.269531 79.675781 L 140.472656 87.507812 L 144.59375 100.1875 L 133.796875 92.351562 L 122.996094 100.1875 L 127.121094 87.507812 L 116.324219 79.675781 L 129.671875 79.675781 L 133.796875 66.996094 " fill-opacity="1" fill-rule="nonzero"/><path fill="#ffffff" d="M 65.644531 144.167969 L 68.054688 151.566406 L 75.839844 151.566406 L 69.542969 156.136719 L 71.949219 163.535156 L 65.644531 158.964844 L 59.34375 163.535156 L 61.75 156.136719 L 55.449219 151.566406 L 63.238281 151.566406 L 65.644531 144.167969 " fill-opacity="1" fill-rule="nonzero"/><g fill="#ffffff" fill-opacity="1"><g transform="translate(25.85677, 290.77681)"><g><path d="M 3.8125 0 L 3.8125 -43.8125 L 13.078125 -43.8125 L 13.078125 -7.640625 L 31.859375 -7.640625 L 31.859375 0 Z M 3.8125 0 "/></g></g></g><g fill="#ffffff" fill-opacity="1"><g transform="translate(64.436965, 290.77681)"><g><path d="M 13.078125 -43.8125 L 13.078125 0 L 3.8125 0 L 3.8125 -43.8125 Z M 13.078125 -43.8125 "/></g></g></g><g fill="#ffffff" fill-opacity="1"><g transform="translate(85.734223, 290.77681)"><g><path d="M 2.140625 -36.1875 L 2.140625 -43.8125 L 38.125 -43.8125 L 38.125 -36.1875 L 24.71875 -36.1875 L 24.71875 0 L 15.546875 0 L 15.546875 -36.1875 Z M 2.140625 -36.1875 "/></g></g></g><g fill="#ffffff" fill-opacity="1"><g transform="translate(130.389129, 290.77681)"><g><path d="M 3.8125 0 L 3.8125 -43.8125 L 33.328125 -43.8125 L 33.328125 -36.1875 L 13.078125 -36.1875 L 13.078125 -25.734375 L 31.8125 -25.734375 L 31.8125 -18.09375 L 13.078125 -18.09375 L 13.078125 -7.640625 L 33.421875 -7.640625 L 33.421875 0 Z M 3.8125 0 "/></g></g></g><g fill="#ffffff" fill-opacity="1"><g transform="translate(171.685845, 290.77681)"><g><path d="M 27.578125 -31.21875 C 27.410156 -32.945312 26.671875 -34.285156 25.359375 -35.234375 C 24.054688 -36.191406 22.300781 -36.671875 20.09375 -36.671875 C 17.820312 -36.671875 16.078125 -36.207031 14.859375 -35.28125 C 13.648438 -34.351562 13.046875 -33.179688 13.046875 -31.765625 C 13.023438 -30.203125 13.703125 -29.015625 15.078125 -28.203125 C 16.453125 -27.398438 18.085938 -26.78125 19.984375 -26.34375 L 23.921875 -25.390625 C 26.460938 -24.828125 28.71875 -24 30.6875 -22.90625 C 32.664062 -21.820312 34.222656 -20.425781 35.359375 -18.71875 C 36.492188 -17.019531 37.0625 -14.953125 37.0625 -12.515625 C 37.039062 -8.503906 35.535156 -5.3125 32.546875 -2.9375 C 29.566406 -0.5625 25.398438 0.625 20.046875 0.625 C 14.722656 0.625 10.476562 -0.585938 7.3125 -3.015625 C 4.144531 -5.441406 2.503906 -9.019531 2.390625 -13.75 L 11.359375 -13.75 C 11.515625 -11.5625 12.378906 -9.910156 13.953125 -8.796875 C 15.535156 -7.691406 17.53125 -7.140625 19.9375 -7.140625 C 22.289062 -7.140625 24.171875 -7.640625 25.578125 -8.640625 C 26.984375 -9.640625 27.691406 -10.9375 27.703125 -12.53125 C 27.691406 -14.019531 27.039062 -15.160156 25.75 -15.953125 C 24.46875 -16.753906 22.640625 -17.441406 20.265625 -18.015625 L 15.484375 -19.21875 C 11.796875 -20.101562 8.878906 -21.503906 6.734375 -23.421875 C 4.597656 -25.347656 3.535156 -27.925781 3.546875 -31.15625 C 3.535156 -33.800781 4.242188 -36.117188 5.671875 -38.109375 C 7.109375 -40.097656 9.082031 -41.644531 11.59375 -42.75 C 14.101562 -43.863281 16.957031 -44.421875 20.15625 -44.421875 C 23.40625 -44.421875 26.242188 -43.863281 28.671875 -42.75 C 31.109375 -41.632812 33.003906 -40.082031 34.359375 -38.09375 C 35.710938 -36.113281 36.410156 -33.820312 36.453125 -31.21875 Z M 27.578125 -31.21875 "/></g></g></g><g fill="#ffffff" fill-opacity="1"><g transform="translate(215.527929, 290.77681)"><g><path d="M 2.140625 -36.1875 L 2.140625 -43.8125 L 38.125 -43.8125 L 38.125 -36.1875 L 24.71875 -36.1875 L 24.71875 0 L 15.546875 0 L 15.546875 -36.1875 Z M 2.140625 -36.1875 "/></g></g></g><g fill="#ffffff" fill-opacity="1"><g transform="translate(260.182828, 290.77681)"><g><path d="M 11.359375 0 L 1.4375 0 L 16.5625 -43.8125 L 28.5 -43.8125 L 43.609375 0 L 33.671875 0 L 30.421875 -9.984375 L 14.609375 -9.984375 Z M 16.96875 -17.21875 L 28.09375 -17.21875 L 22.703125 -33.8125 L 22.359375 -33.8125 Z M 16.96875 -17.21875 "/></g></g></g><g fill="#ffffff" fill-opacity="1"><g transform="translate(309.629054, 290.77681)"><g><path d="M 3.8125 0 L 3.8125 -43.8125 L 21.09375 -43.8125 C 26.070312 -43.8125 29.929688 -42.515625 32.671875 -39.921875 C 35.421875 -37.328125 36.796875 -33.851562 36.796875 -29.5 C 36.796875 -26.507812 36.128906 -23.953125 34.796875 -21.828125 C 33.460938 -19.703125 31.550781 -18.101562 29.0625 -17.03125 L 38.359375 0 L 28.140625 0 L 19.828125 -15.53125 L 13.078125 -15.53125 L 13.078125 0 Z M 13.078125 -22.984375 L 19.359375 -22.984375 C 24.628906 -22.984375 27.265625 -25.15625 27.265625 -29.5 C 27.265625 -34 24.613281 -36.25 19.3125 -36.25 L 13.078125 -36.25 Z M 13.078125 -22.984375 "/></g></g></g><g fill="#737373" fill-opacity="1"><g transform="translate(73.144915, 328.237762)"><g><path d="M 2.421875 0 L 2.421875 -20.046875 L 14.453125 -20.046875 L 14.453125 -17.890625 L 4.859375 -17.890625 L 4.859375 -11.125 L 13.546875 -11.125 L 13.546875 -8.96875 L 4.859375 -8.96875 L 4.859375 0 Z M 2.421875 0 "/></g></g></g><g fill="#737373" fill-opacity="1"><g transform="translate(95.812074, 328.237762)"><g><path d="M 2.421875 0 L 2.421875 -20.046875 L 9.203125 -20.046875 C 10.765625 -20.046875 12.046875 -19.78125 13.046875 -19.25 C 14.054688 -18.71875 14.800781 -17.988281 15.28125 -17.0625 C 15.769531 -16.132812 16.015625 -15.082031 16.015625 -13.90625 C 16.015625 -12.570312 15.707031 -11.410156 15.09375 -10.421875 C 14.488281 -9.429688 13.546875 -8.71875 12.265625 -8.28125 L 16.796875 0 L 13.984375 0 L 9.75 -7.84375 C 9.582031 -7.832031 9.410156 -7.828125 9.234375 -7.828125 L 4.859375 -7.828125 L 4.859375 0 Z M 4.859375 -10.015625 L 9.15625 -10.015625 C 10.757812 -10.015625 11.90625 -10.359375 12.59375 -11.046875 C 13.28125 -11.742188 13.625 -12.695312 13.625 -13.90625 C 13.625 -15.101562 13.28125 -16.066406 12.59375 -16.796875 C 11.90625 -17.523438 10.75 -17.890625 9.125 -17.890625 L 4.859375 -17.890625 Z M 4.859375 -10.015625 "/></g></g></g><g fill="#737373" fill-opacity="1"><g transform="translate(119.926902, 328.237762)"><g><path d="M 3.25 0 L 0.703125 0 L 8.0625 -20.046875 L 10.578125 -20.046875 L 17.9375 0 L 15.390625 0 L 13.375 -5.671875 L 5.265625 -5.671875 Z M 6.03125 -7.828125 L 12.609375 -7.828125 L 9.390625 -16.875 L 9.234375 -16.875 Z M 6.03125 -7.828125 "/></g></g></g><g fill="#737373" fill-opacity="1"><g transform="translate(145.059013, 328.237762)"><g><path d="M 2.421875 -20.046875 L 5.328125 -20.046875 L 12.140625 -3.40625 L 12.375 -3.40625 L 19.1875 -20.046875 L 22.078125 -20.046875 L 22.078125 0 L 19.8125 0 L 19.8125 -15.234375 L 19.609375 -15.234375 L 13.34375 0 L 11.15625 0 L 4.890625 -15.234375 L 4.703125 -15.234375 L 4.703125 0 L 2.421875 0 Z M 2.421875 -20.046875 "/></g></g></g><g fill="#737373" fill-opacity="1"><g transform="translate(176.686055, 328.237762)"><g><path d="M 2.421875 0 L 2.421875 -20.046875 L 14.53125 -20.046875 L 14.53125 -17.890625 L 4.859375 -17.890625 L 4.859375 -11.125 L 13.90625 -11.125 L 13.90625 -8.96875 L 4.859375 -8.96875 L 4.859375 -2.15625 L 14.6875 -2.15625 L 14.6875 0 Z M 2.421875 0 "/></g></g></g><g fill="#737373" fill-opacity="1"><g transform="translate(199.666238, 328.237762)"><g><path d="M 6.0625 0 L 0.59375 -20.046875 L 3.046875 -20.046875 L 7.25 -3.71875 L 7.4375 -3.71875 L 11.703125 -20.046875 L 14.453125 -20.046875 L 18.71875 -3.71875 L 18.90625 -3.71875 L 23.09375 -20.046875 L 25.5625 -20.046875 L 20.078125 0 L 17.578125 0 L 13.15625 -15.96875 L 13 -15.96875 L 8.578125 0 Z M 6.0625 0 "/></g></g></g><g fill="#737373" fill-opacity="1"><g transform="translate(232.310563, 328.237762)"><g><path d="M 19.34375 -10.015625 C 19.34375 -7.898438 18.957031 -6.070312 18.1875 -4.53125 C 17.425781 -3 16.378906 -1.8125 15.046875 -0.96875 C 13.722656 -0.132812 12.207031 0.28125 10.5 0.28125 C 8.78125 0.28125 7.253906 -0.132812 5.921875 -0.96875 C 4.597656 -1.8125 3.550781 -3 2.78125 -4.53125 C 2.019531 -6.070312 1.640625 -7.898438 1.640625 -10.015625 C 1.640625 -12.128906 2.019531 -13.957031 2.78125 -15.5 C 3.550781 -17.039062 4.597656 -18.226562 5.921875 -19.0625 C 7.253906 -19.894531 8.78125 -20.3125 10.5 -20.3125 C 12.207031 -20.3125 13.722656 -19.894531 15.046875 -19.0625 C 16.378906 -18.226562 17.425781 -17.039062 18.1875 -15.5 C 18.957031 -13.957031 19.34375 -12.128906 19.34375 -10.015625 Z M 16.984375 -10.015625 C 16.984375 -11.753906 16.695312 -13.21875 16.125 -14.40625 C 15.550781 -15.601562 14.769531 -16.507812 13.78125 -17.125 C 12.800781 -17.738281 11.707031 -18.046875 10.5 -18.046875 C 9.28125 -18.046875 8.175781 -17.738281 7.1875 -17.125 C 6.207031 -16.507812 5.429688 -15.601562 4.859375 -14.40625 C 4.285156 -13.21875 4 -11.753906 4 -10.015625 C 4 -8.285156 4.285156 -6.820312 4.859375 -5.625 C 5.429688 -4.4375 6.207031 -3.535156 7.1875 -2.921875 C 8.175781 -2.304688 9.28125 -2 10.5 -2 C 11.707031 -2 12.800781 -2.304688 13.78125 -2.921875 C 14.769531 -3.535156 15.550781 -4.4375 16.125 -5.625 C 16.695312 -6.820312 16.984375 -8.285156 16.984375 -10.015625 Z M 16.984375 -10.015625 "/></g></g></g><g fill="#737373" fill-opacity="1"><g transform="translate(259.790262, 328.237762)"><g><path d="M 2.421875 0 L 2.421875 -20.046875 L 9.203125 -20.046875 C 10.765625 -20.046875 12.046875 -19.78125 13.046875 -19.25 C 14.054688 -18.71875 14.800781 -17.988281 15.28125 -17.0625 C 15.769531 -16.132812 16.015625 -15.082031 16.015625 -13.90625 C 16.015625 -12.570312 15.707031 -11.410156 15.09375 -10.421875 C 14.488281 -9.429688 13.546875 -8.71875 12.265625 -8.28125 L 16.796875 0 L 13.984375 0 L 9.75 -7.84375 C 9.582031 -7.832031 9.410156 -7.828125 9.234375 -7.828125 L 4.859375 -7.828125 L 4.859375 0 Z M 4.859375 -10.015625 L 9.15625 -10.015625 C 10.757812 -10.015625 11.90625 -10.359375 12.59375 -11.046875 C 13.28125 -11.742188 13.625 -12.695312 13.625 -13.90625 C 13.625 -15.101562 13.28125 -16.066406 12.59375 -16.796875 C 11.90625 -17.523438 10.75 -17.890625 9.125 -17.890625 L 4.859375 -17.890625 Z M 4.859375 -10.015625 "/></g></g></g><g fill="#737373" fill-opacity="1"><g transform="translate(283.90509, 328.237762)"><g><path d="M 2.421875 0 L 2.421875 -20.046875 L 4.859375 -20.046875 L 4.859375 -10.09375 L 5.09375 -10.09375 L 14.09375 -20.046875 L 17.265625 -20.046875 L 8.84375 -11 L 17.265625 0 L 14.328125 0 L 7.359375 -9.3125 L 4.859375 -6.5 L 4.859375 0 Z M 2.421875 0 "/></g></g></g></svg>