<svg xmlns="http://www.w3.org/2000/svg" xmlns:xlink="http://www.w3.org/1999/xlink" width="500" zoomAndPan="magnify" viewBox="0 0 375 374.999991" height="500" preserveAspectRatio="xMidYMid meet" version="1.0"><defs><g/><clipPath id="4d164ac3de"><path d="M 50.664062 61 L 300 61 L 300 184 L 50.664062 184 Z M 50.664062 61 " clip-rule="nonzero"/></clipPath><clipPath id="7b8f814dcd"><path d="M 151 40.296875 L 324.414062 40.296875 L 324.414062 213.546875 L 151 213.546875 Z M 151 40.296875 " clip-rule="nonzero"/></clipPath></defs><rect x="-37.5" width="450" fill="#ffffff" y="-37.499999" height="449.999989" fill-opacity="1"/><rect x="-37.5" width="450" fill="#202020" y="-37.499999" height="449.999989" fill-opacity="1"/><g clip-path="url(#4d164ac3de)"><path fill="#edb641" d="M 155.609375 168.972656 C 166.671875 163.929688 176.277344 158.375 184.140625 153.230469 C 199.1875 143.394531 218.421875 125.105469 219.476562 123.644531 L 212.429688 118.941406 L 206.324219 114.867188 L 225.648438 114.113281 L 231.855469 113.871094 L 233.546875 107.898438 L 238.800781 89.3125 L 245.488281 107.429688 L 247.640625 113.253906 L 253.847656 113.011719 L 273.171875 112.257812 L 257.980469 124.210938 L 253.101562 128.050781 L 255.25 133.871094 L 261.941406 151.992188 L 245.863281 141.261719 L 240.699219 137.8125 L 235.816406 141.652344 L 220.628906 153.605469 L 223.238281 144.367188 L 225.878906 135.019531 L 226.207031 133.859375 C 207.71875 147.679688 181.851562 161 166.382812 165.921875 C 162.835938 167.054688 159.246094 168.066406 155.609375 168.972656 Z M 119.246094 183.121094 C 146.652344 182.050781 179.304688 175.097656 211.441406 154.671875 L 205.25 176.582031 L 241.113281 148.359375 L 279.070312 173.699219 L 263.277344 130.917969 L 299.136719 102.695312 L 253.511719 104.476562 L 237.714844 61.695312 L 225.3125 105.578125 L 179.6875 107.359375 L 206.101562 124.992188 C 188.71875 140.78125 145.109375 174.453125 87.339844 176.710938 C 75.660156 177.167969 63.398438 176.335938 50.664062 173.816406 C 50.664062 173.816406 79.414062 184.679688 119.246094 183.121094 " fill-opacity="1" fill-rule="nonzero"/></g><g clip-path="url(#7b8f814dcd)"><path fill="#edb641" d="M 237.828125 40.453125 C 190.007812 40.453125 151.242188 79.167969 151.242188 126.921875 C 151.242188 135.964844 152.632812 144.679688 155.210938 152.875 C 158.976562 151 162.574219 149.058594 166 147.089844 C 164.195312 140.675781 163.230469 133.910156 163.230469 126.921875 C 163.230469 85.777344 196.628906 52.425781 237.828125 52.425781 C 279.027344 52.425781 312.421875 85.777344 312.421875 126.921875 C 312.421875 168.0625 279.027344 201.414062 237.828125 201.414062 C 215.484375 201.414062 195.4375 191.601562 181.765625 176.058594 C 177.792969 177.605469 173.765625 179.011719 169.691406 180.28125 C 185.542969 200.4375 210.167969 213.386719 237.828125 213.386719 C 285.648438 213.386719 324.414062 174.671875 324.414062 126.921875 C 324.414062 79.167969 285.648438 40.453125 237.828125 40.453125 " fill-opacity="1" fill-rule="nonzero"/></g><path fill="#edb641" d="M 111.515625 115.371094 L 116.296875 130.058594 L 131.757812 130.058594 L 119.246094 139.132812 L 124.027344 153.820312 L 111.515625 144.746094 L 99.003906 153.820312 L 103.785156 139.132812 L 91.273438 130.058594 L 106.738281 130.058594 L 111.515625 115.371094 " fill-opacity="1" fill-rule="nonzero"/><path fill="#edb641" d="M 133.769531 66.964844 L 137.890625 79.644531 L 151.242188 79.644531 L 140.441406 87.476562 L 144.566406 100.15625 L 133.769531 92.320312 L 122.96875 100.15625 L 127.09375 87.476562 L 116.296875 79.644531 L 129.640625 79.644531 L 133.769531 66.964844 " fill-opacity="1" fill-rule="nonzero"/><path fill="#edb641" d="M 65.617188 144.136719 L 68.023438 151.535156 L 75.8125 151.535156 L 69.511719 156.105469 L 71.917969 163.503906 L 65.617188 158.929688 L 59.316406 163.503906 L 61.722656 156.105469 L 55.421875 151.535156 L 63.210938 151.535156 L 65.617188 144.136719 " fill-opacity="1" fill-rule="nonzero"/><g fill="#ffffff" fill-opacity="1"><g transform="translate(25.821937, 290.798916)"><g><path d="M 3.8125 0 L 3.8125 -43.828125 L 13.078125 -43.828125 L 13.078125 -7.640625 L 31.859375 -7.640625 L 31.859375 0 Z M 3.8125 0 "/></g></g></g><g fill="#ffffff" fill-opacity="1"><g transform="translate(64.410445, 290.798916)"><g><path d="M 13.078125 -43.828125 L 13.078125 0 L 3.8125 0 L 3.8125 -43.828125 Z M 13.078125 -43.828125 "/></g></g></g><g fill="#ffffff" fill-opacity="1"><g transform="translate(85.712291, 290.798916)"><g><path d="M 2.140625 -36.1875 L 2.140625 -43.828125 L 38.140625 -43.828125 L 38.140625 -36.1875 L 24.71875 -36.1875 L 24.71875 0 L 15.5625 0 L 15.5625 -36.1875 Z M 2.140625 -36.1875 "/></g></g></g><g fill="#ffffff" fill-opacity="1"><g transform="translate(130.37682, 290.798916)"><g><path d="M 3.8125 0 L 3.8125 -43.828125 L 33.34375 -43.828125 L 33.34375 -36.1875 L 13.078125 -36.1875 L 13.078125 -25.75 L 31.828125 -25.75 L 31.828125 -18.109375 L 13.078125 -18.109375 L 13.078125 -7.640625 L 33.421875 -7.640625 L 33.421875 0 Z M 3.8125 0 "/></g></g></g><g fill="#ffffff" fill-opacity="1"><g transform="translate(171.682435, 290.798916)"><g><path d="M 27.59375 -31.21875 C 27.414062 -32.945312 26.671875 -34.289062 25.359375 -35.25 C 24.054688 -36.207031 22.300781 -36.6875 20.09375 -36.6875 C 17.820312 -36.6875 16.082031 -36.222656 14.875 -35.296875 C 13.664062 -34.367188 13.0625 -33.195312 13.0625 -31.78125 C 13.03125 -30.207031 13.703125 -29.019531 15.078125 -28.21875 C 16.453125 -27.414062 18.085938 -26.789062 19.984375 -26.34375 L 23.921875 -25.40625 C 26.460938 -24.832031 28.71875 -24.003906 30.6875 -22.921875 C 32.664062 -21.835938 34.222656 -20.441406 35.359375 -18.734375 C 36.492188 -17.023438 37.0625 -14.953125 37.0625 -12.515625 C 37.050781 -8.503906 35.550781 -5.3125 32.5625 -2.9375 C 29.570312 -0.5625 25.398438 0.625 20.046875 0.625 C 14.722656 0.625 10.476562 -0.585938 7.3125 -3.015625 C 4.144531 -5.441406 2.503906 -9.023438 2.390625 -13.765625 L 11.359375 -13.765625 C 11.515625 -11.566406 12.378906 -9.910156 13.953125 -8.796875 C 15.535156 -7.691406 17.535156 -7.140625 19.953125 -7.140625 C 22.304688 -7.140625 24.179688 -7.640625 25.578125 -8.640625 C 26.984375 -9.640625 27.695312 -10.941406 27.71875 -12.546875 C 27.695312 -14.023438 27.046875 -15.160156 25.765625 -15.953125 C 24.484375 -16.753906 22.648438 -17.441406 20.265625 -18.015625 L 15.5 -19.21875 C 11.800781 -20.101562 8.878906 -21.507812 6.734375 -23.4375 C 4.597656 -25.363281 3.535156 -27.9375 3.546875 -31.15625 C 3.535156 -33.8125 4.242188 -36.132812 5.671875 -38.125 C 7.109375 -40.113281 9.082031 -41.660156 11.59375 -42.765625 C 14.101562 -43.867188 16.957031 -44.421875 20.15625 -44.421875 C 23.414062 -44.421875 26.257812 -43.863281 28.6875 -42.75 C 31.125 -41.644531 33.019531 -40.097656 34.375 -38.109375 C 35.726562 -36.128906 36.425781 -33.832031 36.46875 -31.21875 Z M 27.59375 -31.21875 "/></g></g></g><g fill="#ffffff" fill-opacity="1"><g transform="translate(215.533966, 290.798916)"><g><path d="M 2.140625 -36.1875 L 2.140625 -43.828125 L 38.140625 -43.828125 L 38.140625 -36.1875 L 24.71875 -36.1875 L 24.71875 0 L 15.5625 0 L 15.5625 -36.1875 Z M 2.140625 -36.1875 "/></g></g></g><g fill="#ffffff" fill-opacity="1"><g transform="translate(260.198487, 290.798916)"><g><path d="M 11.359375 0 L 1.4375 0 L 16.5625 -43.828125 L 28.5 -43.828125 L 43.609375 0 L 33.6875 0 L 30.4375 -10 L 14.609375 -10 Z M 16.96875 -17.234375 L 28.09375 -17.234375 L 22.703125 -33.8125 L 22.359375 -33.8125 Z M 16.96875 -17.234375 "/></g></g></g><g fill="#ffffff" fill-opacity="1"><g transform="translate(309.655367, 290.798916)"><g><path d="M 3.8125 0 L 3.8125 -43.828125 L 21.09375 -43.828125 C 26.082031 -43.828125 29.945312 -42.53125 32.6875 -39.9375 C 35.4375 -37.34375 36.8125 -33.867188 36.8125 -29.515625 C 36.8125 -26.515625 36.144531 -23.953125 34.8125 -21.828125 C 33.476562 -19.703125 31.5625 -18.101562 29.0625 -17.03125 L 38.375 0 L 28.140625 0 L 19.84375 -15.53125 L 13.078125 -15.53125 L 13.078125 0 Z M 13.078125 -22.984375 L 19.375 -22.984375 C 24.632812 -22.984375 27.265625 -25.160156 27.265625 -29.515625 C 27.265625 -34.003906 24.617188 -36.25 19.328125 -36.25 L 13.078125 -36.25 Z M 13.078125 -22.984375 "/></g></g></g><g fill="#737373" fill-opacity="1"><g transform="translate(73.120275, 328.267717)"><g><path d="M 2.421875 0 L 2.421875 -20.046875 L 14.453125 -20.046875 L 14.453125 -17.890625 L 4.859375 -17.890625 L 4.859375 -11.125 L 13.546875 -11.125 L 13.546875 -8.96875 L 4.859375 -8.96875 L 4.859375 0 Z M 2.421875 0 "/></g></g></g><g fill="#737373" fill-opacity="1"><g transform="translate(95.792319, 328.267717)"><g><path d="M 2.421875 0 L 2.421875 -20.046875 L 9.203125 -20.046875 C 10.765625 -20.046875 12.046875 -19.78125 13.046875 -19.25 C 14.054688 -18.71875 14.800781 -17.988281 15.28125 -17.0625 C 15.769531 -16.132812 16.015625 -15.082031 16.015625 -13.90625 C 16.015625 -12.570312 15.707031 -11.410156 15.09375 -10.421875 C 14.488281 -9.429688 13.546875 -8.71875 12.265625 -8.28125 L 16.796875 0 L 13.984375 0 L 9.75 -7.84375 C 9.582031 -7.832031 9.410156 -7.828125 9.234375 -7.828125 L 4.859375 -7.828125 L 4.859375 0 Z M 4.859375 -10.015625 L 9.15625 -10.015625 C 10.757812 -10.015625 11.90625 -10.359375 12.59375 -11.046875 C 13.28125 -11.742188 13.625 -12.695312 13.625 -13.90625 C 13.625 -15.101562 13.28125 -16.066406 12.59375 -16.796875 C 11.90625 -17.523438 10.75 -17.890625 9.125 -17.890625 L 4.859375 -17.890625 Z M 4.859375 -10.015625 "/></g></g></g><g fill="#737373" fill-opacity="1"><g transform="translate(119.912343, 328.267717)"><g><path d="M 3.25 0 L 0.703125 0 L 8.0625 -20.046875 L 10.578125 -20.046875 L 17.9375 0 L 15.390625 0 L 13.375 -5.671875 L 5.265625 -5.671875 Z M 6.03125 -7.828125 L 12.609375 -7.828125 L 9.390625 -16.875 L 9.234375 -16.875 Z M 6.03125 -7.828125 "/></g></g></g><g fill="#737373" fill-opacity="1"><g transform="translate(145.04987, 328.267717)"><g><path d="M 2.421875 -20.046875 L 5.328125 -20.046875 L 12.140625 -3.40625 L 12.375 -3.40625 L 19.1875 -20.046875 L 22.078125 -20.046875 L 22.078125 0 L 19.8125 0 L 19.8125 -15.234375 L 19.609375 -15.234375 L 13.34375 0 L 11.15625 0 L 4.890625 -15.234375 L 4.703125 -15.234375 L 4.703125 0 L 2.421875 0 Z M 2.421875 -20.046875 "/></g></g></g><g fill="#737373" fill-opacity="1"><g transform="translate(176.683727, 328.267717)"><g><path d="M 2.421875 0 L 2.421875 -20.046875 L 14.53125 -20.046875 L 14.53125 -17.890625 L 4.859375 -17.890625 L 4.859375 -11.125 L 13.90625 -11.125 L 13.90625 -8.96875 L 4.859375 -8.96875 L 4.859375 -2.15625 L 14.6875 -2.15625 L 14.6875 0 Z M 2.421875 0 "/></g></g></g><g fill="#737373" fill-opacity="1"><g transform="translate(199.668861, 328.267717)"><g><path d="M 6.0625 0 L 0.59375 -20.046875 L 3.046875 -20.046875 L 7.25 -3.71875 L 7.4375 -3.71875 L 11.703125 -20.046875 L 14.453125 -20.046875 L 18.71875 -3.71875 L 18.90625 -3.71875 L 23.09375 -20.046875 L 25.5625 -20.046875 L 20.078125 0 L 17.578125 0 L 13.15625 -15.96875 L 13 -15.96875 L 8.578125 0 Z M 6.0625 0 "/></g></g></g><g fill="#737373" fill-opacity="1"><g transform="translate(232.32022, 328.267717)"><g><path d="M 19.34375 -10.015625 C 19.34375 -7.898438 18.957031 -6.070312 18.1875 -4.53125 C 17.425781 -3 16.378906 -1.8125 15.046875 -0.96875 C 13.722656 -0.132812 12.207031 0.28125 10.5 0.28125 C 8.78125 0.28125 7.253906 -0.132812 5.921875 -0.96875 C 4.597656 -1.8125 3.550781 -3 2.78125 -4.53125 C 2.019531 -6.070312 1.640625 -7.898438 1.640625 -10.015625 C 1.640625 -12.128906 2.019531 -13.957031 2.78125 -15.5 C 3.550781 -17.039062 4.597656 -18.226562 5.921875 -19.0625 C 7.253906 -19.894531 8.78125 -20.3125 10.5 -20.3125 C 12.207031 -20.3125 13.722656 -19.894531 15.046875 -19.0625 C 16.378906 -18.226562 17.425781 -17.039062 18.1875 -15.5 C 18.957031 -13.957031 19.34375 -12.128906 19.34375 -10.015625 Z M 16.984375 -10.015625 C 16.984375 -11.753906 16.695312 -13.21875 16.125 -14.40625 C 15.550781 -15.601562 14.769531 -16.507812 13.78125 -17.125 C 12.800781 -17.738281 11.707031 -18.046875 10.5 -18.046875 C 9.28125 -18.046875 8.175781 -17.738281 7.1875 -17.125 C 6.207031 -16.507812 5.429688 -15.601562 4.859375 -14.40625 C 4.285156 -13.21875 4 -11.753906 4 -10.015625 C 4 -8.285156 4.285156 -6.820312 4.859375 -5.625 C 5.429688 -4.4375 6.207031 -3.535156 7.1875 -2.921875 C 8.175781 -2.304688 9.28125 -2 10.5 -2 C 11.707031 -2 12.800781 -2.304688 13.78125 -2.921875 C 14.769531 -3.535156 15.550781 -4.4375 16.125 -5.625 C 16.695312 -6.820312 16.984375 -8.285156 16.984375 -10.015625 Z M 16.984375 -10.015625 "/></g></g></g><g fill="#737373" fill-opacity="1"><g transform="translate(259.80584, 328.267717)"><g><path d="M 2.421875 0 L 2.421875 -20.046875 L 9.203125 -20.046875 C 10.765625 -20.046875 12.046875 -19.78125 13.046875 -19.25 C 14.054688 -18.71875 14.800781 -17.988281 15.28125 -17.0625 C 15.769531 -16.132812 16.015625 -15.082031 16.015625 -13.90625 C 16.015625 -12.570312 15.707031 -11.410156 15.09375 -10.421875 C 14.488281 -9.429688 13.546875 -8.71875 12.265625 -8.28125 L 16.796875 0 L 13.984375 0 L 9.75 -7.84375 C 9.582031 -7.832031 9.410156 -7.828125 9.234375 -7.828125 L 4.859375 -7.828125 L 4.859375 0 Z M 4.859375 -10.015625 L 9.15625 -10.015625 C 10.757812 -10.015625 11.90625 -10.359375 12.59375 -11.046875 C 13.28125 -11.742188 13.625 -12.695312 13.625 -13.90625 C 13.625 -15.101562 13.28125 -16.066406 12.59375 -16.796875 C 11.90625 -17.523438 10.75 -17.890625 9.125 -17.890625 L 4.859375 -17.890625 Z M 4.859375 -10.015625 "/></g></g></g><g fill="#737373" fill-opacity="1"><g transform="translate(283.925865, 328.267717)"><g><path d="M 2.421875 0 L 2.421875 -20.046875 L 4.859375 -20.046875 L 4.859375 -10.09375 L 5.09375 -10.09375 L 14.09375 -20.046875 L 17.265625 -20.046875 L 8.84375 -11 L 17.265625 0 L 14.328125 0 L 7.359375 -9.3125 L 4.859375 -6.5 L 4.859375 0 Z M 2.421875 0 "/></g></g></g></svg>