<svg width="516px" height="380px" viewBox="0 0 516 380" xmlns="http://www.w3.org/2000/svg"><g transform="translate(-124.6 -403)" fill="none" fill-rule="evenodd"><rect fill="#E3C67A" fill-rule="nonzero" y="389.4" width="710.985646" height="406"/><path d="M93 592.4h593m-593.3-.2 523.6 278.4M92 592.3l502.8 314.2M91.6 592.1l479.9 348.6M92.8 592.2l305.4 508.4M92.5 592.9l592.2 31m-592-31.5 589.8 62M92.7 592.9l585.6 93m-585.8-93 580 123M92 592.7l572.8 153.4M92.5 592.9l564 183M92.7 593.1l553.6 212.6M92.6 592.8 634.5 834M92.7 592.9l447.6 389M92.5 593.1l412 426.6M93 592.7 458 1060M92.6 592.5l231.9 545.8M92.8 592.7l143.4 575.4M92.8 593.6l41.4 591.6m-41.8-593 592.2-31m-592 31.5 589.8-62M92.7 592.1l585.6-92.7m-585.8 93 580-123.3M92 592.5l572.8-153.6M92.5 592.4l564-183.3M92.7 592l553.6-212.5M92.6 592.3l541.9-241.2M92.7 592.9l523.6-278.4M92 592.9l502.8-314.3M91.6 593l479.9-348.5M92.7 592.3l447.6-389M92.5 591.9l412-426.5M93 592.4l365-467.3M92.8 592.9 398.2 84.6m-305.6 508L324.5 46.9M92.8 592.4 236.2 17M92.8 591.5 134.2 0" stroke="#000" opacity="0.4" stroke-linecap="square"/><circle stroke="#000" opacity="0.4" cx="652.871778" cy="979.278955" r="329.166437"/><circle stroke="#000" opacity="0.4" cx="639.886908" cy="966.294085" r="329.166437"/><circle stroke="#000" opacity="0.4" cx="626.902039" cy="953.309216" r="329.166437"/><circle stroke="#000" opacity="0.4" cx="613.91717" cy="940.324347" r="329.166437"/><circle stroke="#000" opacity="0.4" cx="600.9323" cy="927.339477" r="329.166437"/><circle stroke="#000" opacity="0.4" cx="587.947431" cy="914.354608" r="329.166437"/><circle stroke="#000" opacity="0.4" cx="574.962562" cy="901.369739" r="329.166437"/><circle stroke="#000" opacity="0.4" cx="561.977692" cy="888.384869" r="329.166437"/><circle stroke="#000" opacity="0.4" cx="548.992823" cy="875.4" r="329.166437"/><circle stroke="#000" opacity="0.4" cx="536.007954" cy="862.415131" r="329.166437"/><circle stroke="#000" opacity="0.4" cx="523.023084" cy="849.430261" r="329.166437"/><circle stroke="#000" opacity="0.4" cx="510.038215" cy="836.445392" r="329.166437"/><circle stroke="#000" opacity="0.4" cx="497.053346" cy="823.460523" r="329.166437"/><circle stroke="#000" opacity="0.4" cx="484.068476" cy="810.475653" r="329.166437"/><circle stroke="#000" opacity="0.4" cx="471.083607" cy="797.490784" r="329.166437"/><circle stroke="#000" opacity="0.4" cx="458.098738" cy="784.505915" r="329.166437"/><circle stroke="#000" opacity="0.4" cx="445.113868" cy="771.521045" r="329.166437"/><circle stroke="#000" opacity="0.4" cx="432.128999" cy="758.536176" r="329.166437"/><circle stroke="#000" opacity="0.4" cx="419.14413" cy="745.551307" r="329.166437"/><circle stroke="#000" opacity="0.4" cx="406.15926" cy="732.566437" r="329.166437"/><circle stroke="#000" opacity="0.4" cx="665.856647" cy="992.263824" r="329.166437"/><circle stroke="#000" opacity="0.4" cx="678.841516" cy="1005.24869" r="329.166437"/><circle stroke="#000" opacity="0.4" cx="691.826386" cy="1018.23356" r="329.166437"/><g fill="#000" transform="translate(196.6 529)"><path d="M65.9 0c1.2 0 2.3 1 2.3 2.3v25.2L85.9 9.6c1-.8 2.3-.8 3.2 0l13.4 13.5c.9 1 .9 2.3 0 3.2L84.8 44.3h25c1.3 0 2.3 1 2.3 2.3v19c0 1.3-1 2.3-2.3 2.3h-25l17.7 17.8c.9 1 .9 2.3 0 3.2l-13.4 13.5c-.8 1-2.2 1-3.1 0L68.1 84.5v25.2c0 1.3-1 2.3-2.2 2.3H47c-1.2 0-2.2-1-2.2-2.3V96.5a16 16 0 0 1 4.6-11.2l24.2-24.5c2.7-2.6 2.7-7 0-9.6L49.4 26.9c-3-3-4.6-7-4.6-11.3V2.3c0-1.3 1-2.3 2.3-2.3h18.8ZM26 10l41.3 41.3c2.6 2.7 2.6 7 0 9.6l-41.1 41.4c-.9 1-2.3 1-3.2 0L9.6 89.2c-.8-.8-.9-2.2 0-3.1l17.8-18.1H2.3c-1.3 0-2.3-1-2.3-2.3v-19c0-1.3 1-2.3 2.3-2.3h25.1L9.7 26.6c-1-1-1-2.3 0-3.2L22.8 10c.9-.9 2.3-.9 3.1 0Z"/><path d="M169.8 41.5a8.4 8.4 0 0 0-3.4-6.2c-2-1.5-4.8-2.2-8.2-2.2-2.4 0-4.3.3-6 1a8.3 8.3 0 0 0-3.7 2.7 6.4 6.4 0 0 0-1.2 3.9c0 1.2.2 2.3.7 3.2.6.9 1.4 1.6 2.4 2.3 1 .7 2.1 1.2 3.4 1.7 1.3.5 2.7.9 4.2 1.2l6.1 1.5a43 43 0 0 1 8.2 2.6c2.5 1.1 4.6 2.5 6.4 4a17.1 17.1 0 0 1 5.8 13.3c0 4.2-1.1 7.8-3.2 10.8-2 3-5 5.4-9 7-4 1.7-8.7 2.6-14.2 2.6s-10.2-.9-14.3-2.6c-4-1.6-7.2-4.1-9.5-7.4a22.1 22.1 0 0 1-3.5-12.3h13.9c.1 2.3.8 4.2 2 5.7 1 1.5 2.6 2.6 4.6 3.4 2 .7 4.2 1.1 6.6 1.1 2.5 0 4.6-.3 6.4-1a9.7 9.7 0 0 0 4.2-3c1-1.2 1.5-2.7 1.5-4.3 0-1.5-.5-2.8-1.4-3.9-.8-1-2.2-1.9-3.9-2.6-1.7-.7-3.8-1.4-6.3-2l-7.3-1.9a31 31 0 0 1-13.6-6.5c-3.3-3-5-7-5-12 0-4 1.1-7.7 3.3-10.7a22 22 0 0 1 9.2-7.2c4-1.7 8.3-2.6 13.3-2.6s9.4.9 13.2 2.6c3.8 1.7 6.7 4.1 8.8 7.2a19 19 0 0 1 3.3 10.6h-13.8ZM211.2 90.9a26 26 0 0 1-13.5-3.3 22.2 22.2 0 0 1-8.6-9.3c-2-4-3-8.5-3-13.7 0-5.2 1-9.7 3-13.7s5-7 8.7-9.2c3.7-2.3 8.2-3.4 13.3-3.4 4.5 0 8.3.8 11.7 2.4 3.3 1.7 6 4 8 6.8 1.9 3 3 6.4 3.1 10.3h-13.3c-.4-2.5-1.4-4.6-3-6.1a8.6 8.6 0 0 0-6.3-2.4c-2.1 0-4 .6-5.7 1.8a11.5 11.5 0 0 0-3.8 5.2 22 22 0 0 0-1.3 8.1c0 3.3.4 6 1.3 8.3.9 2.3 2.2 4 3.8 5.2a9.5 9.5 0 0 0 5.7 1.8c1.7 0 3.1-.3 4.4-1a8.5 8.5 0 0 0 3.2-2.9 11 11 0 0 0 1.7-4.6h13.3a19.3 19.3 0 0 1-11 17.2 26 26 0 0 1-11.7 2.5ZM251.9 90.9a21 21 0 0 1-8.7-1.7 13.7 13.7 0 0 1-6-5.1 15 15 0 0 1-2.3-8.4c0-2.8.6-5.2 1.6-7.1 1-2 2.5-3.5 4.3-4.7 1.7-1.2 3.8-2 6-2.6 2.4-.6 4.8-1 7.3-1.3l7.1-.9a10 10 0 0 0 4-1.2c.8-.6 1.2-1.4 1.2-2.5v-.2c0-2-.6-3.7-2-4.8a8.2 8.2 0 0 0-5.5-1.8 10 10 0 0 0-6.1 1.7 7.9 7.9 0 0 0-3 4.2l-13-1a17.9 17.9 0 0 1 11.4-13.3 32.8 32.8 0 0 1 18.9-.8c2.6.6 4.9 1.6 6.9 3a15 15 0 0 1 6.5 13.2v34.3h-13.3v-7h-.4a14.2 14.2 0 0 1-8.3 7c-1.9.6-4.1 1-6.6 1Zm4-9.8c2 0 4-.4 5.5-1.2 1.6-.9 2.9-2 3.8-3.4.9-1.4 1.3-3 1.3-4.8v-5.4c-.4.3-1 .5-1.8.8a26.6 26.6 0 0 1-5.4 1.1l-2.6.4c-1.7.2-3.1.6-4.3 1.1a7 7 0 0 0-3 2.2c-.6.9-1 2-1 3.3a5 5 0 0 0 2.2 4.4 9 9 0 0 0 5.3 1.5Z" fill-rule="nonzero"/><polygon fill-rule="nonzero" points="299.977267 22.0213636 299.977267 89.9001515 285.848562 89.9001515 285.848562 22.0213636"/><path d="M320.1 90.9a21 21 0 0 1-8.7-1.7 13.7 13.7 0 0 1-6-5.1 15 15 0 0 1-2.2-8.4c0-2.8.5-5.2 1.5-7.1 1-2 2.5-3.5 4.3-4.7 1.8-1.2 3.8-2 6.1-2.6 2.3-.6 4.7-1 7.2-1.3l7.2-.9a10 10 0 0 0 4-1.2c.8-.6 1.2-1.4 1.2-2.5v-.2c0-2-.7-3.7-2-4.8a8.2 8.2 0 0 0-5.6-1.8 10 10 0 0 0-6 1.7 7.9 7.9 0 0 0-3 4.2l-13.1-1a17.9 17.9 0 0 1 11.4-13.3 32.8 32.8 0 0 1 18.9-.8c2.6.6 5 1.6 7 3a15 15 0 0 1 6.5 13.2v34.3h-13.4v-7h-.4a14.2 14.2 0 0 1-8.2 7c-2 .6-4.2 1-6.7 1Zm4-9.8c2.1 0 4-.4 5.6-1.2 1.5-.9 2.8-2 3.7-3.4 1-1.4 1.4-3 1.4-4.8v-5.4l-1.8.8a26.6 26.6 0 0 1-5.5 1.1l-2.6.4c-1.6.2-3 .6-4.3 1.1a7 7 0 0 0-2.9 2.2c-.7.9-1 2-1 3.3a5 5 0 0 0 2 4.4 9 9 0 0 0 5.4 1.5ZM354 89.9v-51h13.8v9h.5c1-3.2 2.5-5.6 4.7-7.2 2.2-1.6 4.7-2.4 7.6-2.4a21.4 21.4 0 0 1 4.4.5v12.5a24.7 24.7 0 0 0-6-.8c-2 0-3.9.5-5.5 1.4a10 10 0 0 0-3.9 3.7c-1 1.6-1.4 3.4-1.4 5.5v28.8h-14.1Z" fill-rule="nonzero"/></g></g></svg>