<svg xmlns="http://www.w3.org/2000/svg" xmlns:xlink="http://www.w3.org/1999/xlink" width="500" zoomAndPan="magnify" viewBox="0 0 375 374.999991" height="500" preserveAspectRatio="xMidYMid meet" version="1.0"><defs><g/><clipPath id="84761b25f0"><path d="M 50.765625 61 L 300 61 L 300 184 L 50.765625 184 Z M 50.765625 61 " clip-rule="nonzero"/></clipPath><clipPath id="2cfd5df020"><path d="M 151 40.40625 L 324.515625 40.40625 L 324.515625 213.65625 L 151 213.65625 Z M 151 40.40625 " clip-rule="nonzero"/></clipPath></defs><g clip-path="url(#84761b25f0)"><path fill="#edb641" d="M 155.714844 169.082031 C 166.773438 164.042969 176.378906 158.488281 184.246094 153.34375 C 199.292969 143.507812 218.523438 125.21875 219.582031 123.757812 L 212.53125 119.054688 L 206.429688 114.980469 L 225.753906 114.226562 L 231.960938 113.984375 L 233.648438 108.011719 L 238.902344 89.425781 L 245.59375 107.542969 L 247.742188 113.367188 L 253.953125 113.125 L 273.273438 112.371094 L 258.085938 124.324219 L 253.207031 128.164062 L 255.355469 133.984375 L 262.046875 152.105469 L 245.96875 141.371094 L 240.804688 137.925781 L 235.921875 141.765625 L 220.734375 153.71875 L 223.34375 144.480469 L 225.984375 135.132812 L 226.3125 133.972656 C 207.820312 147.792969 181.953125 161.113281 166.488281 166.035156 C 162.941406 167.164062 159.347656 168.179688 155.714844 169.082031 Z M 119.347656 183.234375 C 146.757812 182.164062 179.410156 175.207031 211.542969 154.785156 L 205.351562 176.691406 L 241.214844 148.472656 L 279.175781 173.808594 L 263.378906 131.03125 L 299.242188 102.808594 L 253.617188 104.589844 L 237.820312 61.808594 L 225.417969 105.691406 L 179.792969 107.472656 L 206.207031 125.105469 C 188.824219 140.890625 145.214844 174.5625 87.441406 176.824219 C 75.765625 177.277344 63.5 176.449219 50.765625 173.929688 C 50.765625 173.929688 79.519531 184.792969 119.347656 183.234375 " fill-opacity="1" fill-rule="nonzero"/></g><g clip-path="url(#2cfd5df020)"><path fill="#edb641" d="M 237.929688 40.570312 C 190.109375 40.570312 151.34375 79.28125 151.34375 127.03125 C 151.34375 136.074219 152.738281 144.792969 155.316406 152.984375 C 159.082031 151.113281 162.679688 149.171875 166.101562 147.203125 C 164.300781 140.789062 163.335938 134.023438 163.335938 127.03125 C 163.335938 85.890625 196.730469 52.539062 237.929688 52.539062 C 279.128906 52.539062 312.527344 85.890625 312.527344 127.03125 C 312.527344 168.171875 279.128906 201.523438 237.929688 201.523438 C 215.585938 201.523438 195.542969 191.710938 181.871094 176.171875 C 177.894531 177.714844 173.871094 179.121094 169.792969 180.394531 C 185.648438 200.546875 210.273438 213.496094 237.929688 213.496094 C 285.75 213.496094 324.515625 174.785156 324.515625 127.03125 C 324.515625 79.28125 285.75 40.570312 237.929688 40.570312 " fill-opacity="1" fill-rule="nonzero"/></g><path fill="#edb641" d="M 111.621094 115.484375 L 116.398438 130.171875 L 131.863281 130.171875 L 119.351562 139.246094 L 124.128906 153.933594 L 111.621094 144.855469 L 99.109375 153.933594 L 103.886719 139.246094 L 91.378906 130.171875 L 106.84375 130.171875 L 111.621094 115.484375 " fill-opacity="1" fill-rule="nonzero"/><path fill="#edb641" d="M 133.871094 67.078125 L 137.996094 79.757812 L 151.34375 79.757812 L 140.546875 87.589844 L 144.667969 100.269531 L 133.871094 92.433594 L 123.070312 100.269531 L 127.199219 87.589844 L 116.398438 79.757812 L 129.746094 79.757812 L 133.871094 67.078125 " fill-opacity="1" fill-rule="nonzero"/><path fill="#edb641" d="M 65.71875 144.25 L 68.128906 151.644531 L 75.917969 151.644531 L 69.617188 156.21875 L 72.023438 163.613281 L 65.71875 159.042969 L 59.417969 163.613281 L 61.824219 156.21875 L 55.523438 151.644531 L 63.3125 151.644531 L 65.71875 144.25 " fill-opacity="1" fill-rule="nonzero"/><g fill="#ffffff" fill-opacity="1"><g transform="translate(25.944773, 290.721005)"><g><path d="M 3.8125 0 L 3.8125 -43.796875 L 13.0625 -43.796875 L 13.0625 -7.640625 L 31.84375 -7.640625 L 31.84375 0 Z M 3.8125 0 "/></g></g></g><g fill="#ffffff" fill-opacity="1"><g transform="translate(64.503963, 290.721005)"><g><path d="M 13.0625 -43.796875 L 13.0625 0 L 3.8125 0 L 3.8125 -43.796875 Z M 13.0625 -43.796875 "/></g></g></g><g fill="#ffffff" fill-opacity="1"><g transform="translate(85.789626, 290.721005)"><g><path d="M 2.140625 -36.15625 L 2.140625 -43.796875 L 38.109375 -43.796875 L 38.109375 -36.15625 L 24.703125 -36.15625 L 24.703125 0 L 15.546875 0 L 15.546875 -36.15625 Z M 2.140625 -36.15625 "/></g></g></g><g fill="#ffffff" fill-opacity="1"><g transform="translate(130.42022, 290.721005)"><g><path d="M 3.8125 0 L 3.8125 -43.796875 L 33.3125 -43.796875 L 33.3125 -36.15625 L 13.0625 -36.15625 L 13.0625 -25.71875 L 31.796875 -25.71875 L 31.796875 -18.09375 L 13.0625 -18.09375 L 13.0625 -7.640625 L 33.40625 -7.640625 L 33.40625 0 Z M 3.8125 0 "/></g></g></g><g fill="#ffffff" fill-opacity="1"><g transform="translate(171.694454, 290.721005)"><g><path d="M 27.5625 -31.203125 C 27.394531 -32.921875 26.65625 -34.257812 25.34375 -35.21875 C 24.039062 -36.175781 22.285156 -36.65625 20.078125 -36.65625 C 17.816406 -36.65625 16.078125 -36.191406 14.859375 -35.265625 C 13.648438 -34.335938 13.046875 -33.164062 13.046875 -31.75 C 13.015625 -30.1875 13.6875 -29 15.0625 -28.1875 C 16.4375 -27.382812 18.070312 -26.765625 19.96875 -26.328125 L 23.90625 -25.390625 C 26.445312 -24.816406 28.703125 -23.988281 30.671875 -22.90625 C 32.648438 -21.820312 34.203125 -20.425781 35.328125 -18.71875 C 36.460938 -17.019531 37.03125 -14.953125 37.03125 -12.515625 C 37.019531 -8.503906 35.519531 -5.3125 32.53125 -2.9375 C 29.550781 -0.5625 25.382812 0.625 20.03125 0.625 C 14.71875 0.625 10.476562 -0.585938 7.3125 -3.015625 C 4.144531 -5.441406 2.503906 -9.019531 2.390625 -13.75 L 11.359375 -13.75 C 11.515625 -11.550781 12.378906 -9.898438 13.953125 -8.796875 C 15.523438 -7.691406 17.519531 -7.140625 19.9375 -7.140625 C 22.28125 -7.140625 24.15625 -7.640625 25.5625 -8.640625 C 26.96875 -9.640625 27.675781 -10.9375 27.6875 -12.53125 C 27.675781 -14.007812 27.03125 -15.148438 25.75 -15.953125 C 24.46875 -16.753906 22.632812 -17.4375 20.25 -18 L 15.484375 -19.203125 C 11.785156 -20.085938 8.867188 -21.488281 6.734375 -23.40625 C 4.597656 -25.332031 3.535156 -27.910156 3.546875 -31.140625 C 3.535156 -33.785156 4.242188 -36.101562 5.671875 -38.09375 C 7.109375 -40.082031 9.082031 -41.628906 11.59375 -42.734375 C 14.101562 -43.835938 16.953125 -44.390625 20.140625 -44.390625 C 23.390625 -44.390625 26.226562 -43.832031 28.65625 -42.71875 C 31.09375 -41.613281 32.988281 -40.066406 34.34375 -38.078125 C 35.695312 -36.097656 36.394531 -33.804688 36.4375 -31.203125 Z M 27.5625 -31.203125 "/></g></g></g><g fill="#ffffff" fill-opacity="1"><g transform="translate(215.512669, 290.721005)"><g><path d="M 2.140625 -36.15625 L 2.140625 -43.796875 L 38.109375 -43.796875 L 38.109375 -36.15625 L 24.703125 -36.15625 L 24.703125 0 L 15.546875 0 L 15.546875 -36.15625 Z M 2.140625 -36.15625 "/></g></g></g><g fill="#ffffff" fill-opacity="1"><g transform="translate(260.143256, 290.721005)"><g><path d="M 11.359375 0 L 1.4375 0 L 16.546875 -43.796875 L 28.484375 -43.796875 L 43.578125 0 L 33.65625 0 L 30.40625 -9.984375 L 14.609375 -9.984375 Z M 16.953125 -17.21875 L 28.078125 -17.21875 L 22.6875 -33.78125 L 22.34375 -33.78125 Z M 16.953125 -17.21875 "/></g></g></g><g fill="#ffffff" fill-opacity="1"><g transform="translate(309.562562, 290.721005)"><g><path d="M 3.8125 0 L 3.8125 -43.796875 L 21.078125 -43.796875 C 26.054688 -43.796875 29.914062 -42.5 32.65625 -39.90625 C 35.40625 -37.3125 36.78125 -33.835938 36.78125 -29.484375 C 36.78125 -26.492188 36.113281 -23.9375 34.78125 -21.8125 C 33.445312 -19.6875 31.535156 -18.085938 29.046875 -17.015625 L 38.34375 0 L 28.125 0 L 19.828125 -15.53125 L 13.0625 -15.53125 L 13.0625 0 Z M 13.0625 -22.96875 L 19.359375 -22.96875 C 24.617188 -22.96875 27.25 -25.140625 27.25 -29.484375 C 27.25 -33.972656 24.601562 -36.21875 19.3125 -36.21875 L 13.0625 -36.21875 Z M 13.0625 -22.96875 "/></g></g></g><g fill="#ffffff" fill-opacity="1"><g transform="translate(73.207173, 328.161671)"><g><path d="M 2.421875 0 L 2.421875 -20.03125 L 14.4375 -20.03125 L 14.4375 -17.875 L 4.859375 -17.875 L 4.859375 -11.109375 L 13.53125 -11.109375 L 13.53125 -8.953125 L 4.859375 -8.953125 L 4.859375 0 Z M 2.421875 0 "/></g></g></g><g fill="#ffffff" fill-opacity="1"><g transform="translate(95.861993, 328.161671)"><g><path d="M 2.421875 0 L 2.421875 -20.03125 L 9.203125 -20.03125 C 10.765625 -20.03125 12.046875 -19.765625 13.046875 -19.234375 C 14.054688 -18.703125 14.800781 -17.972656 15.28125 -17.046875 C 15.757812 -16.117188 16 -15.066406 16 -13.890625 C 16 -12.554688 15.691406 -11.394531 15.078125 -10.40625 C 14.472656 -9.425781 13.53125 -8.71875 12.25 -8.28125 L 16.78125 0 L 13.96875 0 L 9.75 -7.828125 C 9.582031 -7.828125 9.410156 -7.828125 9.234375 -7.828125 L 4.859375 -7.828125 L 4.859375 0 Z M 4.859375 -10.015625 L 9.15625 -10.015625 C 10.757812 -10.015625 11.898438 -10.359375 12.578125 -11.046875 C 13.265625 -11.742188 13.609375 -12.691406 13.609375 -13.890625 C 13.609375 -15.097656 13.265625 -16.0625 12.578125 -16.78125 C 11.890625 -17.507812 10.734375 -17.875 9.109375 -17.875 L 4.859375 -17.875 Z M 4.859375 -10.015625 "/></g></g></g><g fill="#ffffff" fill-opacity="1"><g transform="translate(119.963692, 328.161671)"><g><path d="M 3.25 0 L 0.703125 0 L 8.0625 -20.03125 L 10.5625 -20.03125 L 17.921875 0 L 15.375 0 L 13.359375 -5.671875 L 5.265625 -5.671875 Z M 6.03125 -7.828125 L 12.59375 -7.828125 L 9.390625 -16.859375 L 9.234375 -16.859375 Z M 6.03125 -7.828125 "/></g></g></g><g fill="#ffffff" fill-opacity="1"><g transform="translate(145.08212, 328.161671)"><g><path d="M 2.421875 -20.03125 L 5.328125 -20.03125 L 12.125 -3.40625 L 12.359375 -3.40625 L 19.171875 -20.03125 L 22.0625 -20.03125 L 22.0625 0 L 19.796875 0 L 19.796875 -15.21875 L 19.609375 -15.21875 L 13.34375 0 L 11.15625 0 L 4.890625 -15.21875 L 4.703125 -15.21875 L 4.703125 0 L 2.421875 0 Z M 2.421875 -20.03125 "/></g></g></g><g fill="#ffffff" fill-opacity="1"><g transform="translate(176.691943, 328.161671)"><g><path d="M 2.421875 0 L 2.421875 -20.03125 L 14.515625 -20.03125 L 14.515625 -17.875 L 4.859375 -17.875 L 4.859375 -11.109375 L 13.890625 -11.109375 L 13.890625 -8.953125 L 4.859375 -8.953125 L 4.859375 -2.15625 L 14.671875 -2.15625 L 14.671875 0 Z M 2.421875 0 "/></g></g></g><g fill="#ffffff" fill-opacity="1"><g transform="translate(199.659615, 328.161671)"><g><path d="M 6.0625 0 L 0.59375 -20.03125 L 3.046875 -20.03125 L 7.234375 -3.71875 L 7.4375 -3.71875 L 11.703125 -20.03125 L 14.4375 -20.03125 L 18.703125 -3.71875 L 18.90625 -3.71875 L 23.09375 -20.03125 L 25.546875 -20.03125 L 20.078125 0 L 17.5625 0 L 13.140625 -15.96875 L 12.984375 -15.96875 L 8.5625 0 Z M 6.0625 0 "/></g></g></g><g fill="#ffffff" fill-opacity="1"><g transform="translate(232.286167, 328.161671)"><g><path d="M 19.328125 -10.015625 C 19.328125 -7.898438 18.945312 -6.070312 18.1875 -4.53125 C 17.425781 -3 16.378906 -1.8125 15.046875 -0.96875 C 13.710938 -0.132812 12.191406 0.28125 10.484375 0.28125 C 8.773438 0.28125 7.253906 -0.132812 5.921875 -0.96875 C 4.597656 -1.8125 3.550781 -3 2.78125 -4.53125 C 2.019531 -6.070312 1.640625 -7.898438 1.640625 -10.015625 C 1.640625 -12.128906 2.019531 -13.953125 2.78125 -15.484375 C 3.550781 -17.023438 4.597656 -18.210938 5.921875 -19.046875 C 7.253906 -19.890625 8.773438 -20.3125 10.484375 -20.3125 C 12.191406 -20.3125 13.710938 -19.890625 15.046875 -19.046875 C 16.378906 -18.210938 17.425781 -17.023438 18.1875 -15.484375 C 18.945312 -13.953125 19.328125 -12.128906 19.328125 -10.015625 Z M 16.984375 -10.015625 C 16.984375 -11.753906 16.691406 -13.21875 16.109375 -14.40625 C 15.535156 -15.601562 14.757812 -16.503906 13.78125 -17.109375 C 12.800781 -17.722656 11.703125 -18.03125 10.484375 -18.03125 C 9.273438 -18.03125 8.175781 -17.722656 7.1875 -17.109375 C 6.207031 -16.503906 5.425781 -15.601562 4.84375 -14.40625 C 4.269531 -13.21875 3.984375 -11.753906 3.984375 -10.015625 C 3.984375 -8.285156 4.269531 -6.820312 4.84375 -5.625 C 5.425781 -4.425781 6.207031 -3.519531 7.1875 -2.90625 C 8.175781 -2.300781 9.273438 -2 10.484375 -2 C 11.703125 -2 12.800781 -2.300781 13.78125 -2.90625 C 14.757812 -3.519531 15.535156 -4.425781 16.109375 -5.625 C 16.691406 -6.820312 16.984375 -8.285156 16.984375 -10.015625 Z M 16.984375 -10.015625 "/></g></g></g><g fill="#ffffff" fill-opacity="1"><g transform="translate(259.750905, 328.161671)"><g><path d="M 2.421875 0 L 2.421875 -20.03125 L 9.203125 -20.03125 C 10.765625 -20.03125 12.046875 -19.765625 13.046875 -19.234375 C 14.054688 -18.703125 14.800781 -17.972656 15.28125 -17.046875 C 15.757812 -16.117188 16 -15.066406 16 -13.890625 C 16 -12.554688 15.691406 -11.394531 15.078125 -10.40625 C 14.472656 -9.425781 13.53125 -8.71875 12.25 -8.28125 L 16.78125 0 L 13.96875 0 L 9.75 -7.828125 C 9.582031 -7.828125 9.410156 -7.828125 9.234375 -7.828125 L 4.859375 -7.828125 L 4.859375 0 Z M 4.859375 -10.015625 L 9.15625 -10.015625 C 10.757812 -10.015625 11.898438 -10.359375 12.578125 -11.046875 C 13.265625 -11.742188 13.609375 -12.691406 13.609375 -13.890625 C 13.609375 -15.097656 13.265625 -16.0625 12.578125 -16.78125 C 11.890625 -17.507812 10.734375 -17.875 9.109375 -17.875 L 4.859375 -17.875 Z M 4.859375 -10.015625 "/></g></g></g><g fill="#ffffff" fill-opacity="1"><g transform="translate(283.852604, 328.161671)"><g><path d="M 2.421875 0 L 2.421875 -20.03125 L 4.859375 -20.03125 L 4.859375 -10.09375 L 5.09375 -10.09375 L 14.09375 -20.03125 L 17.25 -20.03125 L 8.84375 -11 L 17.25 0 L 14.328125 0 L 7.359375 -9.3125 L 4.859375 -6.5 L 4.859375 0 Z M 2.421875 0 "/></g></g></g></svg>